<svg xmlns="http://www.w3.org/2000/svg" xmlns:xlink="http://www.w3.org/1999/xlink" viewBox="0 0 82.94 44.56"><defs><style>.cls-1{fill:none;}.cls-2{isolation:isolate;}.cls-3{clip-path:url(#clip-path);}.cls-4{fill:url(#linear-gradient);}.cls-5{fill:#060503;}.cls-6{fill:url(#linear-gradient-2);}.cls-7{fill:#4a1516;}.cls-11,.cls-13,.cls-14,.cls-18,.cls-19,.cls-20,.cls-21,.cls-22,.cls-23,.cls-24,.cls-25,.cls-28,.cls-29,.cls-30,.cls-31,.cls-32,.cls-33,.cls-34,.cls-35,.cls-36,.cls-8,.cls-9{mix-blend-mode:overlay;}.cls-8{fill:url(#linear-gradient-3);}.cls-9{fill:url(#linear-gradient-4);}.cls-10{fill:url(#linear-gradient-5);}.cls-11{fill:url(#linear-gradient-6);}.cls-12{fill:url(#linear-gradient-7);}.cls-13{fill:url(#linear-gradient-8);}.cls-14{fill:url(#linear-gradient-9);}.cls-15{fill:url(#linear-gradient-10);}.cls-16{fill:url(#linear-gradient-11);}.cls-17{fill:url(#linear-gradient-12);}.cls-18{fill:url(#linear-gradient-13);}.cls-19,.cls-20{opacity:0.57;}.cls-19{fill:url(#linear-gradient-14);}.cls-20{fill:url(#linear-gradient-15);}.cls-21{fill:url(#linear-gradient-16);}.cls-22{fill:url(#linear-gradient-17);}.cls-23{fill:url(#linear-gradient-18);}.cls-24{fill:url(#linear-gradient-19);}.cls-25{fill:url(#linear-gradient-20);}.cls-26{fill:#191e45;}.cls-27{fill:#ffc800;}.cls-28{fill:url(#linear-gradient-21);}.cls-29{fill:url(#linear-gradient-22);}.cls-30{fill:url(#linear-gradient-23);}.cls-31{fill:url(#linear-gradient-24);}.cls-32{fill:url(#linear-gradient-25);}.cls-33{fill:url(#linear-gradient-26);}.cls-34{fill:url(#linear-gradient-27);}.cls-35{fill:url(#linear-gradient-28);}.cls-36{fill:url(#linear-gradient-29);}</style><clipPath id="clip-path" transform="translate(-6.64 1.52)"><path class="cls-1" d="M56.34,14.44s4.85,24.09-12.68,29.2-30.3.57-33.19-3.29-12.6-9.18-10-16.14A32.77,32.77,0,0,1,11.88,8.6C16.93,4.83,31.1-.5,36,0S46.89,3.73,46.89,3.73"/></clipPath><linearGradient id="linear-gradient" x1="-1080.28" y1="-100.06" x2="-1080.31" y2="-100.07" gradientTransform="matrix(-0.98, -0.19, -0.19, 0.98, -990.74, -98.83)" gradientUnits="userSpaceOnUse"><stop offset="0" stop-color="#696372"/><stop offset="0.94" stop-color="#060503"/></linearGradient><linearGradient id="linear-gradient-2" x1="-1023.95" y1="-118.44" x2="-1084.14" y2="-137.6" gradientTransform="matrix(-0.96, -0.26, -0.26, 0.96, -990.75, -132.43)" gradientUnits="userSpaceOnUse"><stop offset="0" stop-color="#3641ba"/><stop offset="1" stop-color="#000721"/></linearGradient><linearGradient id="linear-gradient-3" x1="-1069.85" y1="-145.1" x2="-1035.7" y2="-107.35" gradientTransform="matrix(-0.96, -0.26, -0.26, 0.96, -990.75, -132.43)" gradientUnits="userSpaceOnUse"><stop offset="0.36" stop-opacity="0.5"/><stop offset="1" stop-opacity="0"/></linearGradient><linearGradient id="linear-gradient-4" x1="-1051.99" y1="-84.61" x2="-1065.05" y2="-79.3" gradientTransform="matrix(-0.98, -0.19, -0.19, 0.98, -990.74, -98.83)" gradientUnits="userSpaceOnUse"><stop offset="0" stop-color="#ffc782" stop-opacity="0"/><stop offset="0.09" stop-color="#ffc97e" stop-opacity="0.05"/><stop offset="0.26" stop-color="#ffce73" stop-opacity="0.19"/><stop offset="0.48" stop-color="#ffd761" stop-opacity="0.4"/><stop offset="0.75" stop-color="#ffe248" stop-opacity="0.7"/><stop offset="1" stop-color="#ffee30"/></linearGradient><linearGradient id="linear-gradient-5" x1="-1040.73" y1="-116.29" x2="-1096.23" y2="-111.4" xlink:href="#linear-gradient-2"/><linearGradient id="linear-gradient-6" x1="-1029.12" y1="-131.38" x2="-1009.27" y2="-109.44" xlink:href="#linear-gradient-3"/><linearGradient id="linear-gradient-7" x1="-1030.31" y1="-123.12" x2="-1010.1" y2="-114.87" gradientTransform="matrix(-0.96, -0.26, -0.26, 0.96, -990.75, -132.43)" gradientUnits="userSpaceOnUse"><stop offset="0" stop-color="#82f3ff" stop-opacity="0"/><stop offset="0.1" stop-color="#7cf1fe" stop-opacity="0.05"/><stop offset="0.27" stop-color="#6eedfb" stop-opacity="0.2"/><stop offset="0.51" stop-color="#56e6f7" stop-opacity="0.44"/><stop offset="0.8" stop-color="#36dcf1" stop-opacity="0.76"/><stop offset="1" stop-color="#1dd4ed"/></linearGradient><linearGradient id="linear-gradient-8" x1="-1026.45" y1="-117.61" x2="-1017.05" y2="-118.81" gradientTransform="matrix(-0.96, -0.26, -0.26, 0.96, -990.75, -132.43)" gradientUnits="userSpaceOnUse"><stop offset="0" stop-color="#ffc782" stop-opacity="0"/><stop offset="0.09" stop-color="#ffca87" stop-opacity="0.05"/><stop offset="0.26" stop-color="#ffd193" stop-opacity="0.19"/><stop offset="0.48" stop-color="#ffdca6" stop-opacity="0.4"/><stop offset="0.75" stop-color="#ffecc0" stop-opacity="0.7"/><stop offset="1" stop-color="#fffcdb"/></linearGradient><linearGradient id="linear-gradient-9" x1="-111.25" y1="19.4" x2="-130.21" y2="16.75" gradientTransform="translate(161.6 9.06) rotate(0.48)" xlink:href="#linear-gradient-8"/><linearGradient id="linear-gradient-10" x1="-1017.41" y1="-126.76" x2="-1056.61" y2="-128.8" gradientTransform="matrix(-0.96, -0.26, -0.26, 0.96, -990.75, -132.43)" gradientUnits="userSpaceOnUse"><stop offset="0.78" stop-color="#b80004"/><stop offset="1" stop-color="#520002"/></linearGradient><linearGradient id="linear-gradient-11" x1="-1010.31" y1="-111.01" x2="-1033.07" y2="-118.19" gradientTransform="matrix(-0.96, -0.26, -0.26, 0.96, -990.75, -132.43)" gradientUnits="userSpaceOnUse"><stop offset="0" stop-color="#fc810e"/><stop offset="1" stop-color="#bd0102"/></linearGradient><linearGradient id="linear-gradient-12" x1="-1021.57" y1="-118.83" x2="-1016.82" y2="-114.65" gradientTransform="matrix(-0.96, -0.26, -0.26, 0.96, -990.75, -132.43)" gradientUnits="userSpaceOnUse"><stop offset="0" stop-color="#ffe082" stop-opacity="0"/><stop offset="0.09" stop-color="#ffdc7e" stop-opacity="0.05"/><stop offset="0.26" stop-color="#ffd174" stop-opacity="0.19"/><stop offset="0.48" stop-color="#ffc063" stop-opacity="0.4"/><stop offset="0.75" stop-color="#ffa94d" stop-opacity="0.7"/><stop offset="1" stop-color="#ff9136"/></linearGradient><linearGradient id="linear-gradient-13" x1="-1023.75" y1="-114.67" x2="-1015.61" y2="-115.71" xlink:href="#linear-gradient-8"/><linearGradient id="linear-gradient-14" x1="-1091.07" y1="-143.92" x2="-1013.16" y2="-109.2" gradientTransform="matrix(-0.96, -0.26, -0.26, 0.96, -990.75, -132.43)" gradientUnits="userSpaceOnUse"><stop offset="0.42"/><stop offset="1" stop-opacity="0"/></linearGradient><linearGradient id="linear-gradient-15" x1="-1011.93" y1="-113.06" x2="-1047.64" y2="-108.65" xlink:href="#linear-gradient-14"/><linearGradient id="linear-gradient-16" x1="-1039.7" y1="-107.96" x2="-1024.56" y2="-115.02" gradientTransform="matrix(-0.96, -0.26, -0.26, 0.96, -990.75, -132.43)" xlink:href="#linear-gradient-4"/><linearGradient id="linear-gradient-17" x1="-1026.61" y1="-116.96" x2="-1022.57" y2="-116.79" gradientTransform="matrix(-0.96, -0.26, -0.26, 0.96, -990.75, -132.43)" xlink:href="#linear-gradient-4"/><linearGradient id="linear-gradient-18" x1="-1066.06" y1="-93.13" x2="-1015.58" y2="-93.13" gradientTransform="matrix(-0.98, -0.19, -0.19, 0.98, -990.74, -98.83)" xlink:href="#linear-gradient-14"/><linearGradient id="linear-gradient-19" x1="-1077.76" y1="-80.22" x2="-1077.58" y2="-80.22" gradientTransform="matrix(-0.98, -0.19, -0.19, 0.98, -990.74, -98.83)" xlink:href="#linear-gradient-14"/><linearGradient id="linear-gradient-20" x1="-1009.37" y1="-64.65" x2="-1008.29" y2="-64.65" gradientTransform="matrix(-0.98, -0.19, -0.19, 0.98, -990.74, -98.83)" xlink:href="#linear-gradient-14"/><linearGradient id="linear-gradient-21" x1="-137.57" y1="12.16" x2="-142.37" y2="10.23" gradientTransform="translate(161.6 9.06) rotate(0.48)" xlink:href="#linear-gradient-8"/><linearGradient id="linear-gradient-22" x1="-138.55" y1="15.09" x2="-138.69" y2="14.76" gradientTransform="translate(161.6 9.06) rotate(0.48)" xlink:href="#linear-gradient-4"/><linearGradient id="linear-gradient-23" x1="-138.69" y1="13.32" x2="-138.76" y2="13.17" gradientTransform="translate(161.6 9.06) rotate(0.48)" xlink:href="#linear-gradient-4"/><linearGradient id="linear-gradient-24" x1="-113.63" y1="26.91" x2="-114.31" y2="25.36" gradientTransform="translate(161.6 9.06) rotate(0.48)" xlink:href="#linear-gradient-8"/><linearGradient id="linear-gradient-25" x1="-109.14" y1="17.88" x2="-105.45" y2="14.01" gradientTransform="translate(161.6 9.06) rotate(0.48)" xlink:href="#linear-gradient-8"/><linearGradient id="linear-gradient-26" x1="-176.33" y1="256.96" x2="-175.77" y2="256.37" gradientTransform="matrix(0.91, -0.42, 0.42, 0.91, 113.02, -282.41)" xlink:href="#linear-gradient-8"/><linearGradient id="linear-gradient-27" x1="-175.58" y1="257.48" x2="-175.34" y2="257.21" gradientTransform="matrix(0.91, -0.42, 0.42, 0.91, 113.02, -282.41)" xlink:href="#linear-gradient-8"/><linearGradient id="linear-gradient-28" x1="-84.27" y1="17.66" x2="-80.89" y2="14.11" gradientTransform="translate(161.6 9.06) rotate(0.48)" xlink:href="#linear-gradient-4"/><linearGradient id="linear-gradient-29" x1="-1061.65" y1="-122.69" x2="-1067.2" y2="-120.44" xlink:href="#linear-gradient-8"/></defs><g class="cls-2"><g id="Layer_2" data-name="Layer 2"><g id="Layer_1-2" data-name="Layer 1"><g class="cls-3"><path class="cls-4" d="M88.81,9.19h0Z" transform="translate(-6.64 1.52)"/><path class="cls-5" d="M88.79,9.19h0m0-.78a.86.86,0,0,0-.47.14A.78.78,0,0,0,88.61,10l.16,0a.82.82,0,0,0,.46-.13A.79.79,0,0,0,89,8.42Z" transform="translate(-6.64 1.52)"/><path class="cls-6" d="M56.4,42.73a.31.31,0,0,1-.3-.22.32.32,0,0,1,.17-.38,16.72,16.72,0,0,0,2.37-1.29c.32-.21.64-.44.94-.68a37.93,37.93,0,0,1-8.65,1.26c-.66,0-1.32,0-2,0a37.1,37.1,0,0,1-7.71-.72c-1.2-.27-2-.46-2.52-.63l-.19-.06-.39-.12c-.34-.12-.63-.25-1-.4s-.92-.4-1.76-.71a.31.31,0,0,1,.05-.62l1.38,0c-2.73-1.1-4.5-3.34-6.19-5.75a4.55,4.55,0,0,0-3.66-2,4.14,4.14,0,0,0-1.15.16l-.1,0a.31.31,0,0,1-.23-.11.3.3,0,0,1,0-.39,2.08,2.08,0,0,1,.5-.48,2.21,2.21,0,0,1,.53-.35l0,0a3.29,3.29,0,0,1,1.17-.33,2.56,2.56,0,0,0-.65-.8A.63.63,0,0,1,27,28a2.07,2.07,0,0,0-.44-.4,1.35,1.35,0,0,0-.27-.19l-.11-.07a1.63,1.63,0,0,0-.33-.19l-.1-.05a3.31,3.31,0,0,0-.33-.15,7.48,7.48,0,0,0-.9-.33,2.9,2.9,0,0,0-.42-.12,7.68,7.68,0,0,0-.94-.18,3.94,3.94,0,0,0-.55-.07,12.4,12.4,0,0,0-1.49-.08,11.61,11.61,0,0,0-1.69.11,10,10,0,0,0-3.5,1.33,6.77,6.77,0,0,0-.6.35l-.13.08-.42.27a10.6,10.6,0,0,0-1.06.76c-.25.18-.48.37-.7.55l-.16.13s0,0-.05,0a7.6,7.6,0,0,0-.77.72l-.54.56-.17.2-.06.07,0-.05a.33.33,0,0,1-.1.14.34.34,0,0,1-.21.08.3.3,0,0,1-.21-.08.29.29,0,0,1-.05-.4,20.57,20.57,0,0,0,2.24-4.31,24.19,24.19,0,0,1,1.62-3.37c-.11.05-.25.09-.4.14a14.33,14.33,0,0,1-3.72.51h0a5,5,0,0,1-3.07-.75l-.15-.1A.62.62,0,0,1,7,23a.32.32,0,0,1,0-.34.31.31,0,0,1,.28-.18l.13,0a5.92,5.92,0,0,0,4-2.13,17.26,17.26,0,0,1,2.94-2.57,2.14,2.14,0,0,1-1-.22.3.3,0,0,1-.16-.31.3.3,0,0,1,.22-.26,19.76,19.76,0,0,0,5.1-2.67A28.57,28.57,0,0,1,22,12.24l.15.27-.05-.31c.28-.11.49-.17.72-.25l.52-.16a17.89,17.89,0,0,1,2.32-.45,18.46,18.46,0,0,1,2-.1,23.31,23.31,0,0,1,6.45.86,5.82,5.82,0,0,1,.93.31,3.18,3.18,0,0,0-.91-1.22.31.31,0,0,1,.21-.54h.06c4.68.88,8,2.62,10.53,5.47a.63.63,0,0,1,.11.12l.24.27a6.17,6.17,0,0,1,.44-2,.31.31,0,0,1,.2-.19H46a.3.3,0,0,1,.18.06c.41.3.66.51.87.68a11,11,0,0,0,1.89,1.23,16.75,16.75,0,0,0,7.65,2.07,9.68,9.68,0,0,0,1.56-.12l.29,0a2.71,2.71,0,0,1-1.1-1.9.29.29,0,0,1,.12-.27.31.31,0,0,1,.19-.06l.1,0a8.62,8.62,0,0,0,2,.43h.07l.78,0a15.64,15.64,0,0,0,2.62-.23,4,4,0,0,1-1.07-.45.33.33,0,0,1-.14-.33.34.34,0,0,1,.26-.24,15.5,15.5,0,0,0,5.15-1.72l.08,0a6.17,6.17,0,0,0,.52-.65,6.33,6.33,0,0,0,.49-.7l.09-.14.13-.2a4.23,4.23,0,0,0,.32-.51A11.72,11.72,0,0,0,69.68,10a17.44,17.44,0,0,0,1.55-6.85c0-.33,0-.64,0-.93C71.09.6,71-.46,72.82-1.09L73-1.15a1.29,1.29,0,0,1,.4-.06c.79,0,1.43.74,2,1.51.37.49.77,1.08,1.2,1.69a26,26,0,0,0,3.14,4,10.37,10.37,0,0,0,2.15,1.45l.45.19a19.65,19.65,0,0,0,6.43,1.24.3.3,0,0,1,.3.28.31.31,0,0,1-.24.33A21,21,0,0,1,85.6,10a3.24,3.24,0,0,1,1.22,1.74,2.55,2.55,0,0,0,1.76,1.86.33.33,0,0,1,.22.27.31.31,0,0,1-.16.3.37.37,0,0,1-.14,0,1.31,1.31,0,0,1-.43.06,8.63,8.63,0,0,1-2.17-.46,9.59,9.59,0,0,0-1.13-.28,7.33,7.33,0,0,0,.29.76,5.35,5.35,0,0,1,.45,1.35.94.94,0,0,1,0,.38,5.17,5.17,0,0,0,.81,2.35.32.32,0,0,1-.14.43.37.37,0,0,1-.15,0h-.11A4,4,0,0,1,84.51,18a13,13,0,0,1-.5,1.9,27,27,0,0,1-1.19,3l-.06.13a10.51,10.51,0,0,0-.86,2.2,2.25,2.25,0,0,0,.23,2.17,2.93,2.93,0,0,0,.47.45.32.32,0,0,1,.09.38.36.36,0,0,1-.21.16l-.1,0h0a4.19,4.19,0,0,1-.5,0,5,5,0,0,1-4.08-2.64,4.61,4.61,0,0,1-.23-.52,10.85,10.85,0,0,1-1.17,2.95l-.07.11a1.62,1.62,0,0,1-.18.23c-.13.17-.34.41-.57.67a15,15,0,0,0-1.06,1.29c-.24.37-.32.57-.31.67s.06.17.06.19a.34.34,0,0,1,0,.12.32.32,0,0,1,0,.19A.32.32,0,0,1,74,32h-.08l-.67.71c-.87.94-1.64,1.75-2.33,2.45h0a.36.36,0,0,1-.15.15,27.13,27.13,0,0,1-3.47,3.1c-.4.28-.76.5-1.13.71-.77.42-1.41.76-2,1.07l-.6.3a24.1,24.1,0,0,1-7.1,2.29Z" transform="translate(-6.64 1.52)"/><path class="cls-7" d="M73.38-.9c.61,0,1.17.61,1.77,1.39,1.21,1.59,2.71,4.15,4.38,5.74a9.81,9.81,0,0,0,2.22,1.5h0a4.42,4.42,0,0,0,.48.21A20,20,0,0,0,88.76,9.2a18.51,18.51,0,0,1-4,.54h-.38s0,0,0,0a3,3,0,0,1,2.14,2.07,2.9,2.9,0,0,0,2,2.08h-.06a1.36,1.36,0,0,1-.36.05c-1,0-2.79-.75-3.4-.75a.32.32,0,0,0-.16,0,.2.2,0,0,0-.07.12.32.32,0,0,0,0,.19c.1.52.67,1.47.74,2.12a.63.63,0,0,1,0,.3,5.36,5.36,0,0,0,.84,2.55h0a3.3,3.3,0,0,1-1.75-1.23v0a10,10,0,0,1-.57,2.49l0,.09a25.19,25.19,0,0,1-1.15,2.86c0,.07-.06.13-.08.19a10.89,10.89,0,0,0-.87,2.21,2.57,2.57,0,0,0,.3,2.43,2.75,2.75,0,0,0,.52.5h-.08a2.81,2.81,0,0,1-.5,0A4.7,4.7,0,0,1,78,25.67a3.3,3.3,0,0,1-.37-1.11,5.43,5.43,0,0,1,0-1.11,1.71,1.71,0,0,0,.08-.63v0a1.41,1.41,0,0,1,0-.22l0,.14-.12.77a12,12,0,0,1-1.46,4.6.25.25,0,0,0,0,.07,2.35,2.35,0,0,1-.16.21c-.4.51-1.2,1.32-1.66,2,0,0,0,.05,0,.08a1.43,1.43,0,0,0-.32.76.22.22,0,0,0,0,.1v.06h0s0,0,0,.05,0,0,0,0,0,0,0,0h0a.3.3,0,0,0,0,.08v.06l0,0s0,0,0,0v0l0,0a.1.1,0,0,0,0-.06c-1.25,1.33-2.29,2.45-3.2,3.37a.23.23,0,0,1-.07.1,29.27,29.27,0,0,1-3.5,3.12,13,13,0,0,1-1.1.69s0,0-.07,0c-.69.38-1.33.72-1.94,1-.19.11-.38.2-.59.3a23.91,23.91,0,0,1-7,2.27,19.08,19.08,0,0,0,2.41-1.31,16,16,0,0,0,2-1.63l.08-.07c-.18.07-.36.12-.55.18a35.33,35.33,0,0,1-9.45,1.52c-.65,0-1.3,0-1.95,0a37.27,37.27,0,0,1-7.64-.71c-1.21-.28-2-.46-2.5-.63l-.56-.17c-.75-.27-1.2-.53-2.75-1.11l0,0c1.25,0,2.16-.08,3.29-.11h.06c-3.71-.65-5.8-3.17-7.92-6.17A4.85,4.85,0,0,0,27,30.12a4.39,4.39,0,0,0-1.23.17h0a1.76,1.76,0,0,1,.44-.42,2.75,2.75,0,0,1,.52-.34h0a2.92,2.92,0,0,1,1.18-.31h0s0,0,0,0l.12,0h0l.12,0s0,0,0,0a3,3,0,0,0-.94-1.44.32.32,0,0,0-.1-.1,2.7,2.7,0,0,0-.51-.45,3.09,3.09,0,0,0-.37-.26,2.24,2.24,0,0,0-.4-.22c-.14-.07-.27-.14-.42-.2-.31-.13-.6-.24-.92-.34a3.59,3.59,0,0,0-.47-.12,5.36,5.36,0,0,0-.94-.18,3.09,3.09,0,0,0-.59-.08,12.79,12.79,0,0,0-1.5-.08,13.14,13.14,0,0,0-1.73.11,10.18,10.18,0,0,0-3.61,1.37c-.22.11-.41.23-.61.35l-.57.37c-.38.25-.74.5-1.07.76s-.62.49-.9.72c0,0,0,0,0,0a8.82,8.82,0,0,0-.81.75c-.21.21-.4.41-.54.57l-.2.22h0l-.06.07a0,0,0,0,0,0,0l0,0c2.12-2.87,2.58-6.34,4.78-9-1,.37-.35.54-1.67.94a13.56,13.56,0,0,1-3.62.5A4.89,4.89,0,0,1,7.54,23a1.06,1.06,0,0,0-.2-.14s0,0-.1-.08l.17,0a6.3,6.3,0,0,0,4.19-2.23,14.21,14.21,0,0,1,4.31-3.32,9.2,9.2,0,0,1-1.59.23,1.9,1.9,0,0,1-.89-.19c3.2-.94,5.66-3.33,8.67-4.76a.18.18,0,0,0,.09,0c.44-.17.69-.22,1.22-.4a18.8,18.8,0,0,1,2.26-.44c.63-.06,1.3-.09,2-.09a23.37,23.37,0,0,1,6.35.84,7.91,7.91,0,0,1,1.53.59,3.53,3.53,0,0,0-1.2-2c4.09.77,7.66,2.3,10.36,5.38l.06.05a13.84,13.84,0,0,1,.88,1.11A5.47,5.47,0,0,1,46,14.65a15.51,15.51,0,0,0,2.79,1.93,16.89,16.89,0,0,0,7.8,2.11,10.61,10.61,0,0,0,1.61-.12c.29-.05.74-.09,1-.16a2.91,2.91,0,0,1-1.56-2.11,8.69,8.69,0,0,0,2.09.45h0l.8,0a16.33,16.33,0,0,0,4.14-.55h0c.06,0,.1,0,.1-.07a5.48,5.48,0,0,1-2.53-.63,15.74,15.74,0,0,0,5.25-1.76l0,.08a.47.47,0,0,0,.1-.1,4.58,4.58,0,0,0,.62-.75,7.11,7.11,0,0,0,.5-.72,3,3,0,0,0,.23-.35,3.84,3.84,0,0,0,.33-.52A12.94,12.94,0,0,0,70,10.11a17.88,17.88,0,0,0,1.58-7C71.47.92,71.07-.14,72.92-.8l.14,0a.89.89,0,0,1,.32-.05m0-.62v0a1.82,1.82,0,0,0-.52.08l-.18.07c-2,.7-1.9,2-1.8,3.59,0,.28,0,.59,0,.92A17.49,17.49,0,0,1,69.4,9.86c-.21.46-.42.86-.63,1.23a3.58,3.58,0,0,1-.29.47.16.16,0,0,0,0,.07l-.11.16-.1.15a6.58,6.58,0,0,1-.46.66,6.4,6.4,0,0,1-.47.59l0,0a15.14,15.14,0,0,1-5,1.68A.62.62,0,0,0,62,16l.06,0a14.21,14.21,0,0,1-1.45.07l-.77,0h-.08a8.08,8.08,0,0,1-1.87-.41.52.52,0,0,0-.21,0,.64.64,0,0,0-.38.12.6.6,0,0,0-.24.54A2.65,2.65,0,0,0,57.76,18a11,11,0,0,1-1.17.07,16.33,16.33,0,0,1-7.5-2,10,10,0,0,1-1.84-1.2c-.21-.18-.47-.38-.88-.69A.63.63,0,0,0,46,14l-.17,0a.65.65,0,0,0-.41.38A6.8,6.8,0,0,0,45,15.79c-2.54-2.82-5.91-4.55-10.6-5.44h-.11a.62.62,0,0,0-.56.35.63.63,0,0,0,.15.74,3.17,3.17,0,0,1,.41.41l-.15,0a23.84,23.84,0,0,0-6.53-.87,18.7,18.7,0,0,0-2,.1,19.92,19.92,0,0,0-2.38.45l-.54.18L22,11.9l0,0h0l-.07,0a28.34,28.34,0,0,0-3.55,2.1,19.17,19.17,0,0,1-5,2.63.62.62,0,0,0-.12,1.14,1.94,1.94,0,0,0,.36.15,17.79,17.79,0,0,0-2.36,2.16,5.64,5.64,0,0,1-3.78,2H7.28a.65.65,0,0,0-.59.38.63.63,0,0,0,.1.67.93.93,0,0,0,.27.22l.1.07a5.28,5.28,0,0,0,3.26.81,15,15,0,0,0,3.46-.43c-.48.89-.87,1.82-1.25,2.72a20.43,20.43,0,0,1-2.2,4.25.61.61,0,0,0,.5,1,.62.62,0,0,0,.38-.13.88.88,0,0,0,.18-.2h0l-.06.08.06-.07h0l.09-.11.09-.11c.14-.16.32-.35.52-.54a7.39,7.39,0,0,1,.77-.72A.23.23,0,0,0,13,30l.13-.1c.22-.18.45-.37.69-.55a11.41,11.41,0,0,1,1-.73l.43-.29.14-.09L16,27.9a9.73,9.73,0,0,1,3.41-1.3,12.61,12.61,0,0,1,3.08,0,3.11,3.11,0,0,1,.52.06h0a5.57,5.57,0,0,1,.85.16l.08,0a2.4,2.4,0,0,1,.38.1,8.91,8.91,0,0,1,.86.32l.33.15.06,0,.05,0a1.89,1.89,0,0,1,.28.17l.11.07a1.53,1.53,0,0,1,.21.14l.05,0a2.57,2.57,0,0,1,.39.35l.09.09.05.05a3.58,3.58,0,0,1,.34.34,3.72,3.72,0,0,0-.79.28l-.07.05a2.83,2.83,0,0,0-.57.38,2.21,2.21,0,0,0-.54.52.62.62,0,0,0,0,.78.63.63,0,0,0,.47.22l.14,0h.05A3.88,3.88,0,0,1,27,30.74a4.25,4.25,0,0,1,3.41,1.85,16.87,16.87,0,0,0,5.16,5.3h-.1a.62.62,0,0,0-.22,1.2l.08,0c.82.31,1.33.52,1.73.7s.65.28,1,.4l.4.13.18.06c.57.17,1.33.36,2.54.63a37.83,37.83,0,0,0,7.78.73c.66,0,1.32,0,2,0A40.83,40.83,0,0,0,58,40.87a16.84,16.84,0,0,1-1.88,1A.62.62,0,0,0,56.4,43h.1a24.24,24.24,0,0,0,7.19-2.33,5.12,5.12,0,0,0,.62-.31c.52-.26,1.13-.58,1.94-1l0,0h0a11.82,11.82,0,0,0,1.15-.72A28.53,28.53,0,0,0,71,35.45a.73.73,0,0,0,.17-.19c.68-.69,1.43-1.49,2.29-2.41l.57-.61a.6.6,0,0,0,.5-.44.87.87,0,0,0,0-.36.69.69,0,0,0,0-.13v0a.11.11,0,0,0,0-.08v0a1.79,1.79,0,0,1,.21-.37l0,0,0,0h0a15.48,15.48,0,0,1,1-1.26c.23-.26.44-.5.59-.69a1.3,1.3,0,0,0,.18-.25l0-.06v0l0,0a10.53,10.53,0,0,0,1-2.23,5.28,5.28,0,0,0,4.23,2.59,4.41,4.41,0,0,0,.52,0h0a.52.52,0,0,0,.21,0,.62.62,0,0,0,.2-1.08,2.22,2.22,0,0,1-.41-.39,2,2,0,0,1-.19-1.88A10.2,10.2,0,0,1,83,23.24a.21.21,0,0,1,0-.07.69.69,0,0,1,0-.1,26.24,26.24,0,0,0,1.19-2.95.29.29,0,0,0,0-.09V20a12.69,12.69,0,0,0,.41-1.4,4.09,4.09,0,0,0,1.13.55.68.68,0,0,0,.52-.05.63.63,0,0,0,.24-.84,5.13,5.13,0,0,1-.77-2.19,1.32,1.32,0,0,0,0-.47,5.67,5.67,0,0,0-.46-1.39L85.26,14l.55.16a9.12,9.12,0,0,0,2.26.47,2,2,0,0,0,.51-.06l.22-.08a.63.63,0,0,0-.13-1.14,2.24,2.24,0,0,1-1.55-1.66,3.66,3.66,0,0,0-.78-1.39A23.52,23.52,0,0,0,88.9,9.8a.62.62,0,0,0-.11-1.22,19.16,19.16,0,0,1-6.35-1.22L82,7.17h0a9.69,9.69,0,0,1-2-1.37,25.87,25.87,0,0,1-3.11-4C76.43,1.2,76,.61,75.65.11,75-.72,74.31-1.52,73.38-1.52Z" transform="translate(-6.64 1.52)"/><path class="cls-8" d="M46,29.23s4.91,3.84,10.45,2.87S69.36,27,69.36,27l8.18-3.55.08,0,1.6-.69s3.07-12.27,2.53-15h0a9.81,9.81,0,0,1-2.22-1.5C77.86,4.64,76.36,2.08,75.15.49c-.7-.91-1.34-1.59-2.09-1.34l-.14,0c-1.85.66-1.45,1.72-1.38,3.92a17.88,17.88,0,0,1-1.58,7,23.49,23.49,0,0,1-1.58,7.24,13.59,13.59,0,0,1-4.07,5.25,5.64,5.64,0,0,0,3.94-1.9,31.49,31.49,0,0,0,3.18-3.91s-1.22,5.22-4.7,8a14.82,14.82,0,0,1-5.94,3.17l2.37-2.44c-.69.68-4.6,4.34-9.27,4.57A20.56,20.56,0,0,1,46,29.23Z" transform="translate(-6.64 1.52)"/><path class="cls-9" d="M59.78,16.75c3.22,3.67,5.65,7.09,6.92,12a17,17,0,0,1-1,10.24,1.6,1.6,0,0,1,.23-.1.1.1,0,0,1,.06-.05c1.93-1,3.9-3,7.87-7.27a.26.26,0,0,1,0,.08,0,0,0,0,1,0,0h0s0,0,0-.06l0-.08v0s0,0,0,0a.43.43,0,0,1,0-.12,1.49,1.49,0,0,1,.27-.9.56.56,0,0,0,0-.08,8.55,8.55,0,0,1,1.66-2,2.39,2.39,0,0,1,.26-.21s0-.05-.06-.07a24.29,24.29,0,0,1-5.54-11.53c-.36-1.72-.68-3.52-1.19-5.21l0,.05a5.58,5.58,0,0,1-.32.52c-.07.12-.15.23-.23.35a7.21,7.21,0,0,1-.51.72,9.21,9.21,0,0,1-.61.76l-.12.13,0-.12a15.5,15.5,0,0,1-5.25,1.75,5.34,5.34,0,0,0,2.53.64s0,0-.1.07h0A15.43,15.43,0,0,1,59.78,16.75Z" transform="translate(-6.64 1.52)"/><path class="cls-10" d="M7.24,22.81c0,.05.08.07.09.07a1.34,1.34,0,0,1,.21.15c1.45,1.14,5.2.58,6.5.18s.81-.55,1.44-.86l.22-.09a13.51,13.51,0,0,0-1.92,3.25l-.1.22a27.23,27.23,0,0,1-2.76,5.5l0,0a0,0,0,0,1,0,0s0-.05.06-.06h0c.06-.06.11-.14.19-.23l.55-.57a10.54,10.54,0,0,1,.81-.74s0,0,0,0l.9-.72c.33-.25.68-.5,1.06-.75l.58-.37c.2-.12.4-.25.6-.35A10.25,10.25,0,0,1,19.34,26a13.37,13.37,0,0,1,3.24,0,4.12,4.12,0,0,1,.59.07,8.6,8.6,0,0,1,.94.18l.47.12c.31.11.61.21.91.34l.43.2c.13.06.26.14.4.22s.26.17.37.27a3,3,0,0,1,.51.44l.1.1a3.05,3.05,0,0,1,.94,1.44s0,0,0,0l-.12,0h0a.28.28,0,0,0-.13,0s0,0-.05,0h0a3.05,3.05,0,0,0-1.19.32h0a2.27,2.27,0,0,0-.51.34,1.47,1.47,0,0,0-.44.42s0,0,0,0a4.74,4.74,0,0,1,5.14,1.93c2.12,3,4.21,5.54,7.93,6.18h-.07c-1.14,0-2,.08-3.31.1l.07,0c1.55.58,2,.84,2.75,1.11l.56.18c.55.17,1.29.35,2.5.62a39.06,39.06,0,0,0,9.58.68,35.6,35.6,0,0,0,9.45-1.52l.56-.19a.6.6,0,0,1-.08.08,15.09,15.09,0,0,1-2,1.62,20.63,20.63,0,0,1-2.42,1.32,24.07,24.07,0,0,0,7-2.27,6.27,6.27,0,0,0,.58-.3c.62-.3,1.26-.65,2-1a.15.15,0,0,1,.07,0,12.73,12.73,0,0,0,1.1-.68,42.45,42.45,0,0,1-9.8,1.38l2.33-1.06c-6.65,1.78-13.93-.84-13.93-.84a6.87,6.87,0,0,1,3.84-.65,32.76,32.76,0,0,0-7.94-2.18,8.9,8.9,0,0,0,6-2.1,14.85,14.85,0,0,1-6.14-2c7.13,2.55,9.59,0,9.59,0-6.74-.49-8-4.15-8-4.15a3,3,0,0,1,3,.8,3.1,3.1,0,0,0-2.8-2,14.82,14.82,0,0,1-2.75-.89c5.93,2.23,9.15-.89,9.15-.89-3.58-.23-7.49-2.72-7.91-3,3,1.52,4.62-.59,4.62-.59s-3.34-.24-4.18-3.16a3.59,3.59,0,0,0-2.56-2.61,5.29,5.29,0,0,0-1.06-.16,5.66,5.66,0,0,1,.92,0,10.39,10.39,0,0,1,5.18,2.26,16.31,16.31,0,0,0-8.42-4.93c-.63-.17-1.28-.31-1.94-.44a3.5,3.5,0,0,1,1.2,2A8,8,0,0,0,34,12.38a24.39,24.39,0,0,0-7.42-.81l-.92.07a18.8,18.8,0,0,0-2.26.44c-.53.18-.78.23-1.22.4,0,0-.06,0-.09,0-3,1.43-5.47,3.83-8.67,4.76a1.75,1.75,0,0,0,.85.2,8.65,8.65,0,0,0,1.63-.23,14.26,14.26,0,0,0-4.32,3.32A6.27,6.27,0,0,1,7.24,22.81Z" transform="translate(-6.64 1.52)"/><path class="cls-11" d="M13.43,17.27a1.64,1.64,0,0,0,.85.2,36.42,36.42,0,0,1,7.59-2.12c5.51-.86,6.72.36,6.94.71a4,4,0,0,0-2.61-1.67,6.59,6.59,0,0,0-3.42-.26c.11-.09,2-1.57,7.67-1.18a28.78,28.78,0,0,1,11.39,3.78s0-.31-2.19-2.52l-.14-.14-.63-.62a13.37,13.37,0,0,0-2.6-2c-.64-.16-1.28-.31-2-.44a3.48,3.48,0,0,1,1.2,2A8.14,8.14,0,0,0,34,12.39a23.83,23.83,0,0,0-8.34-.75,19.19,19.19,0,0,0-2.26.44c-.53.18-.77.23-1.22.4,0,0-.06,0-.09,0C19.09,13.94,16.64,16.34,13.43,17.27Z" transform="translate(-6.64 1.52)"/><path class="cls-12" d="M7.24,22.81c0,.05.08.07.09.07a1.34,1.34,0,0,1,.21.15c1.45,1.14,5.2.58,6.5.18s.81-.55,1.44-.86l.22-.09a13.51,13.51,0,0,0-1.92,3.25,44.3,44.3,0,0,1,5.44-2c3.91-1.05,17.44,4.88,17.44,4.88s.42-1.77-1.29-4.8A12.59,12.59,0,0,0,30.08,19a15.93,15.93,0,0,1,2.68,2.19,3.74,3.74,0,0,1,1.17,2.44,19.89,19.89,0,0,0-5.27-4.08,20.52,20.52,0,0,0-6.18-1.44l.6.89a5.14,5.14,0,0,0-2.75-.74,5.89,5.89,0,0,0-3.45,1s.48-.94,3-1.84a4.66,4.66,0,0,1,3.93,0s-.63-.74-2.72-.6A12.21,12.21,0,0,0,17,17.88s.66-1,4.27-2.43A9.81,9.81,0,0,1,28,15.32c.06,0-.46-1.21-3-1.4a8.08,8.08,0,0,0-4.61,1.29s.59-1,3.43-2.53a15,15,0,0,1,2.78-1.11l-.92.07a18.8,18.8,0,0,0-2.26.44c-.53.18-.78.23-1.22.4,0,0-.06,0-.09,0-3,1.43-5.47,3.83-8.67,4.76a1.75,1.75,0,0,0,.85.2,8.65,8.65,0,0,0,1.63-.23,14.26,14.26,0,0,0-4.32,3.32A6.27,6.27,0,0,1,7.24,22.81Z" transform="translate(-6.64 1.52)"/><path class="cls-13" d="M15.7,22.26a14.37,14.37,0,0,0-2,3.47c1.64-1.09,4.73-3.41,7.16-3.09,3.11.43,7.85,1.07,10.78,3l7.07-5.81a19.85,19.85,0,0,0-9.12-5.19,11.45,11.45,0,0,0-8.64.85c.78.17,1.48.3,2.27.41a20.56,20.56,0,0,0-4.82,1.48,21.77,21.77,0,0,0-5.92,5.24c1.46-.46,3.18-1.18,4.57-1.54a6.71,6.71,0,0,0-1.54,1.27Z" transform="translate(-6.64 1.52)"/><path class="cls-14" d="M40.87,40.35a26.74,26.74,0,0,1-5.34-1.83l3.3-.12c-3.72-.64-5.82-3.15-7.94-6.16a4.7,4.7,0,0,0-5.17-1.92,3.08,3.08,0,0,1,2.18-1.11c.18,0,.18.11.34.12a3.5,3.5,0,0,0-1.13-1.63,27.23,27.23,0,0,0,7.06-15.26A9,9,0,0,1,35.5,13a3.33,3.33,0,0,0-1.17-2c4.58.87,8.51,2.67,11.3,6.54a5,5,0,0,1,.4-2.83,17.58,17.58,0,0,0,2.57,1.82,37.92,37.92,0,0,0-7.59,15A25.32,25.32,0,0,0,40.87,40.35Z" transform="translate(-6.64 1.52)"/><path class="cls-15" d="M7.24,22.81l.09.08s.06,0,.21.14c1.45,1.14,5.2.59,6.5.18s.72-.57,1.65-.93h0l-.39.49c-.12.18-.24.35-.35.53s-.22.35-.33.53a.39.39,0,0,0-.06.11c-.25.43-.47.89-.68,1.34a1.63,1.63,0,0,0-.11.23l-.09.22a27.35,27.35,0,0,1-2.77,5.51l0,0a0,0,0,0,1,0,0l.06-.07h0c.06-.06.11-.14.2-.22s.32-.36.54-.57l.28-.29c.16-.15.34-.31.53-.46,0,0,0,0,0,0,.28-.23.58-.48.9-.72s.68-.51,1.06-.76l.58-.37c.2-.12.39-.24.6-.35A10.22,10.22,0,0,1,19.35,26a13.28,13.28,0,0,1,3.23,0,2.89,2.89,0,0,1,.58.08,5.47,5.47,0,0,1,.95.18,2.7,2.7,0,0,1,.47.12,9,9,0,0,1,.91.34,4.14,4.14,0,0,1,.43.2,2.16,2.16,0,0,1,.39.22,2.55,2.55,0,0,1,.38.26,2.79,2.79,0,0,1,.42.35l.08.1s0,0,.06,0l0,.05.19.18h0l.16.16a1.3,1.3,0,0,1,.15.2.36.36,0,0,1,.07.1,4.3,4.3,0,0,1,.37.77,0,0,0,0,0,0,0h0s0,0,0,0a.29.29,0,0,1-.1,0h0l-.13,0,0,0s0,0,0,0h0a2.58,2.58,0,0,0-.29,0l-.31.06a2.56,2.56,0,0,0-.58.22h0a1.87,1.87,0,0,0-.28.16,3.48,3.48,0,0,0-.48.38,1,1,0,0,0-.2.22h0a4.42,4.42,0,0,1,2.77.11,1.56,1.56,0,0,0,.15.06l.29.13a5.2,5.2,0,0,1,1.38,1,5.72,5.72,0,0,1,.55.65c.36.52.73,1,1.1,1.51s.6.76.91,1.1c.16.19.32.37.48.53a10.62,10.62,0,0,0,2.92,2.21,8.88,8.88,0,0,0,2.52.82h-.07c-.56,0-1.07,0-1.59.06h-.41l-1.29,0,0,0,.17.07c1,.37,1.51.6,2,.8a.16.16,0,0,0,.09,0l.53.21c.16.06.36.11.56.17.42.12.92.26,1.66.43l.38.09.46.11a39.65,39.65,0,0,0,9.59.67,35.8,35.8,0,0,0,9.45-1.52c.19-.06.37-.11.55-.18l-.08.07a16,16,0,0,1-2,1.63,18.54,18.54,0,0,1-2.42,1.31,23.87,23.87,0,0,0,7-2.27,6.27,6.27,0,0,0,.58-.3c.55-.27,1.12-.57,1.73-.91,0,0,.08,0,.13-.06l.09-.05s0,0,0,0h0a21.18,21.18,0,0,0,4.64-3.87s0,0,0,0c.91-.92,1.94-2,3.2-3.37l0,0a.39.39,0,0,0,0,.06s0,0,0,0h0s0,0,0,0a0,0,0,0,0,0-.05.69.69,0,0,0,0-.08h0s0,0,0,0,0,0,0-.05h0v-.07a.41.41,0,0,1,0-.1,1.55,1.55,0,0,1,.33-.76.2.2,0,0,1,0-.08c.47-.68,1.25-1.48,1.65-2,0,0,0,0,0,0h0a1.19,1.19,0,0,0,.15-.21s0,0,0-.06h0a13.65,13.65,0,0,0,1.58-5.37l0-.14a1.27,1.27,0,0,0,0,.22v0a6.19,6.19,0,0,0,0,1.74A3.3,3.3,0,0,0,78,25.67a4.5,4.5,0,0,0,4.31,2.44h0s0,0,0,0h0a2.75,2.75,0,0,1-.52-.5,2.57,2.57,0,0,1-.3-2.43A10.13,10.13,0,0,1,82.46,23c0-.06.05-.12.08-.19a27.2,27.2,0,0,0,1.15-2.86l0-.09a10.46,10.46,0,0,0,.57-2.49v0A3.27,3.27,0,0,0,86,18.54h0A5.4,5.4,0,0,1,85.22,16a.79.79,0,0,0,0-.3c-.07-.65-.64-1.6-.74-2.12a.32.32,0,0,1,0-.19.16.16,0,0,1,.07-.12c.37-.25,3,1,3.91.67h.07a2.88,2.88,0,0,1-2-2.08,3.07,3.07,0,0,0-2.14-2.08l0,0a17.48,17.48,0,0,0,4.42-.54,20,20,0,0,1-6.53-1.26,10.1,10.1,0,0,1-2.71-1.71C77.86,4.64,76.36,2.08,75.15.49c-.7-.91-1.34-1.59-2.09-1.34l-.14,0A43.33,43.33,0,0,1,78.59,9.75c2.8,7.83-2,11.86-2,11.86l-.36-2.12-1.83,4.08.88-6.47a21.61,21.61,0,0,1-3.07,5,27.22,27.22,0,0,1-5.87,5.5,26.53,26.53,0,0,1-2.79,1.72c-6,3.21-10.54,3.54-12.9,3.42h0a8.34,8.34,0,0,1-1.74-.23l2.9,1.23s-4.72.29-10.54-3.27a28.37,28.37,0,0,1-5.33-4.26.74.74,0,0,0-.13-.12c-.27-.29-.56-.55-.83-.81l0,0c-.46-.43-.93-.82-1.39-1.19A23.79,23.79,0,0,0,31,22.29c-5.94-3.53-10.76-2.56-10.76-2.56a4.2,4.2,0,0,1,3.05.83s-1.3-.64-4.62-.09a29.84,29.84,0,0,0-6.15,2.07,13.39,13.39,0,0,1-1.73.53,6.35,6.35,0,0,1-3.39-.28Z" transform="translate(-6.64 1.52)"/><path class="cls-16" d="M7.24,22.81l.09.08s.06,0,.21.14c1.45,1.14,5.2.59,6.5.18s.72-.57,1.65-.93h0l-.39.49c-.12.18-.24.35-.35.53s-.22.35-.33.53a.39.39,0,0,0-.06.11c-.25.43-.47.89-.68,1.34a1.63,1.63,0,0,0-.11.23l-.09.22a27.35,27.35,0,0,1-2.77,5.51l0,0a0,0,0,0,1,0,0l.06-.07h0c.06-.06.11-.14.2-.22s.32-.36.54-.57l.28-.29c.16-.15.34-.31.53-.46,0,0,0,0,0,0,.28-.23.58-.48.9-.72s.68-.51,1.06-.76l.58-.37c.2-.12.39-.24.6-.35A10.22,10.22,0,0,1,19.35,26a13.28,13.28,0,0,1,3.23,0,2.89,2.89,0,0,1,.58.08,5.47,5.47,0,0,1,.95.18,2.7,2.7,0,0,1,.47.12,9,9,0,0,1,.91.34,4.14,4.14,0,0,1,.43.2,2.16,2.16,0,0,1,.39.22,2.55,2.55,0,0,1,.38.26,2.79,2.79,0,0,1,.42.35l.08.1s0,0,.06,0l0,.05.19.18a3,3,0,0,1,.52.08,5.31,5.31,0,0,1,.83.22,8.77,8.77,0,0,1,3.73,2.7,22,22,0,0,0-1.68-3.41A6.87,6.87,0,0,0,27.48,25s.49.09,1.17.26h0l.59.15a12.14,12.14,0,0,1,2.19.83,10.73,10.73,0,0,1,2.85,2.29,8.26,8.26,0,0,0-.75-2.33,3.87,3.87,0,0,0-1.65-1.92,13.1,13.1,0,0,1,2.63,1.36,6.5,6.5,0,0,1,2.16,2.6,16.54,16.54,0,0,0-.87-2.23c-.27-.29-.56-.55-.83-.81l0,0c-.46-.43-.93-.82-1.39-1.19A23.79,23.79,0,0,0,31,22.29a19.65,19.65,0,0,0-4-1.81,14.5,14.5,0,0,0-6.81-.75,4.2,4.2,0,0,1,3.05.83s-1.3-.64-4.62-.09a29.84,29.84,0,0,0-6.15,2.07,13.39,13.39,0,0,1-1.73.53,6.35,6.35,0,0,1-3.39-.28Z" transform="translate(-6.64 1.52)"/><path class="cls-17" d="M7.24,22.81l.09.08s.06,0,.21.14c1.45,1.14,5.2.59,6.5.18s.72-.57,1.65-.93h0l-.39.49c-.12.18-.24.35-.35.53s-.22.35-.33.53a.39.39,0,0,0-.06.11c-.25.43-.47.89-.68,1.34a1.63,1.63,0,0,0-.11.23l-.09.22a27.35,27.35,0,0,1-2.77,5.51l0,0a0,0,0,0,1,0,0l.06-.07h0c.06-.06.11-.14.2-.22s.32-.36.54-.57l.28-.29c.16-.15.34-.31.53-.46,0,0,0,0,0,0,.28-.23.58-.48.9-.72s.68-.51,1.06-.76l.58-.37c.2-.12.39-.24.6-.35A10.22,10.22,0,0,1,19.35,26a13.28,13.28,0,0,1,3.23,0,2.89,2.89,0,0,1,.58.08,5.47,5.47,0,0,1,.95.18,2.7,2.7,0,0,1,.47.12,9,9,0,0,1,.91.34,4.14,4.14,0,0,1,.43.2,2.16,2.16,0,0,1,.39.22,2.55,2.55,0,0,1,.38.26,2.79,2.79,0,0,1,.42.35l.08.1s0,0,.06,0l0,.05.19.18a3,3,0,0,1,.52.08,4.87,4.87,0,0,0-1.35-1.84,6.54,6.54,0,0,0-3.87-1.68,5.41,5.41,0,0,1,3.7-.38,9,9,0,0,1,2.17,1.05h0a5,5,0,0,1,.78.61,1.88,1.88,0,0,0-.19-.46,6.32,6.32,0,0,0-2-2.39,13.73,13.73,0,0,0-2.56-1.45,5.5,5.5,0,0,1,2.34-1.14,14.5,14.5,0,0,0-6.81-.75,4.2,4.2,0,0,1,3.05.83s-1.3-.64-4.62-.09a29.84,29.84,0,0,0-6.15,2.07,13.39,13.39,0,0,1-1.73.53,6.35,6.35,0,0,1-3.39-.28Z" transform="translate(-6.64 1.52)"/><path class="cls-18" d="M13.79,25.5c0,.07-.07.15-.11.23h0c1.64-1.08,4.72-3.4,7.15-3.08,3.11.42,7.85,1.07,10.78,3l1.94-1.59A20.89,20.89,0,0,0,31,22.29c-5.94-3.53-10.76-2.56-10.76-2.56a4.2,4.2,0,0,1,3.05.83s-1.3-.64-4.62-.09a29.84,29.84,0,0,0-6.15,2.07l-.07.08c1.46-.46,3.17-1.18,4.57-1.54a6.45,6.45,0,0,0-1.54,1.27l.21-.09s0,0,0,0a4.1,4.1,0,0,0-.37.48c-.13.18-.25.35-.36.53s-.22.35-.33.53l-.06.11c-.25.43-.47.88-.68,1.34A.94.94,0,0,0,13.79,25.5Z" transform="translate(-6.64 1.52)"/><path class="cls-19" d="M12.06,30a6.06,6.06,0,0,1,.52-.46s0,0,0,0c.28-.23.58-.48.9-.72s.69-.51,1.07-.76l.57-.37c.2-.12.39-.24.61-.35A10.18,10.18,0,0,1,19.35,26a13.28,13.28,0,0,1,3.23,0,3.09,3.09,0,0,1,.59.08,5.36,5.36,0,0,1,.94.18,3.59,3.59,0,0,1,.47.12c.32.1.61.21.92.34.15.06.28.13.42.2a2.24,2.24,0,0,1,.4.22,3.09,3.09,0,0,1,.37.26,2.79,2.79,0,0,1,.42.35.43.43,0,0,0,.09.1s0,0,.05,0l.05.06.18.18.16.16a1.3,1.3,0,0,1,.15.2.36.36,0,0,1,.07.1,4.3,4.3,0,0,1,.37.77s0,0,0,0h0s0,0,0,0a.19.19,0,0,1-.09,0h0l-.12,0s0,0,0,0,0,0,0,0h0a2.58,2.58,0,0,0-.29,0l-.31.06a3.14,3.14,0,0,0-.58.22h0a1.75,1.75,0,0,0-.27.16,3.05,3.05,0,0,0-.49.38,2.09,2.09,0,0,0-.2.22h0a4.42,4.42,0,0,1,2.77.11,1.56,1.56,0,0,0,.15.06l.29.13a5.2,5.2,0,0,1,1.38,1,4.85,4.85,0,0,1,.55.65c.37.52.73,1,1.1,1.51s.6.76.91,1.11c.16.18.32.36.49.52a9.51,9.51,0,0,0,5.43,3h-.07c-.56,0-1.06,0-1.58.06h-.42l-1.29,0,0,0,.17.07c1,.37,1.51.6,2,.8l.08,0c.17.08.34.14.53.21l.56.17c.42.13.93.26,1.67.43l.38.09.45.11a39.69,39.69,0,0,0,9.59.67,35.33,35.33,0,0,0,9.45-1.52c.19-.06.37-.11.55-.18l-.08.07a16,16,0,0,1-2,1.63,19.08,19.08,0,0,1-2.41,1.31,23.91,23.91,0,0,0,7-2.27c.21-.1.4-.19.59-.3.54-.27,1.11-.57,1.72-.91l.13-.06.09-.05,0,0h0a21.13,21.13,0,0,0,4.64-3.86s0,0,0,0c.91-.92,1.94-2,3.2-3.37l0,0a.39.39,0,0,0,0,.06s0,0,0,0h0s0,0,0-.05,0-.05,0-.08h0s0,0,0,0,0,0,0,0,0,0,0-.05h0v-.06a.22.22,0,0,1,0-.1,1.43,1.43,0,0,1,.32-.76s0-.06,0-.08c.46-.68,1.24-1.48,1.64-2l0,0h0a2.35,2.35,0,0,0,.16-.21.13.13,0,0,1,0-.06h0a13.65,13.65,0,0,0,1.58-5.37l0-.14a1.41,1.41,0,0,0,0,.22v0a6.19,6.19,0,0,0,0,1.74A3.3,3.3,0,0,0,78,25.67a4.5,4.5,0,0,0,4.31,2.44h.08a2.75,2.75,0,0,1-.52-.5,2.57,2.57,0,0,1-.3-2.43A10.89,10.89,0,0,1,82.46,23c0-.06.05-.12.08-.19a25.19,25.19,0,0,0,1.15-2.86l0-.09a10,10,0,0,0,.57-2.49v0A3.3,3.3,0,0,0,86,18.54s0,0,0,0A5.36,5.36,0,0,1,85.22,16a.63.63,0,0,0,0-.3c-.07-.65-.64-1.6-.74-2.12a.32.32,0,0,1,0-.19.2.2,0,0,1,.07-.12c.37-.25,3,1,3.92.67h.06a2.9,2.9,0,0,1-2-2.08,3,3,0,0,0-2.14-2.07s0,0,0,0a17.48,17.48,0,0,0,4.42-.54,20,20,0,0,1-6.53-1.26,9.9,9.9,0,0,1-2.7-1.71C77.86,4.64,76.36,2.08,75.15.49c-.7-.91-1.34-1.59-2.09-1.34l-.14,0A43,43,0,0,1,78.59,9.75c2.8,7.83-2,11.87-2,11.87l-.36-2.13-1.83,4.08.88-6.47a21.17,21.17,0,0,1-3.07,5,27.22,27.22,0,0,1-5.87,5.5,26.53,26.53,0,0,1-2.79,1.72c-6,3.21-10.54,3.54-12.89,3.42A20.08,20.08,0,0,0,60.1,32c7.37-2.11,11-5.54,11-5.54a22.29,22.29,0,0,1-3.95,5.77,19,19,0,0,1-5.28,3.2s1.29.52,4.55-1.05A27.76,27.76,0,0,0,71.79,31c-.23.31-3.51,4.45-6.82,6.12s-8.55,1.68-8.55,1.68l2-1.91c-.27.18-4.65,3.17-11.6,1.66-7.17-1.56-9.53-3.61-9.53-3.61l1.41,1.9a9.59,9.59,0,0,1-5.26-4.27c-1.59-3.15-2.81-3.49-2.82-3.5l2.76.41S27,23.76,21,24.28C17.27,24.6,14,27.75,12.06,30Z" transform="translate(-6.64 1.52)"/><path class="cls-20" d="M7.24,22.81c0,.05.08.08.1.08a1.06,1.06,0,0,1,.2.14c1.46,1.14,5.2.59,6.5.18s.72-.57,1.65-.93h0c-.14.16-.27.33-.39.49s-.25.35-.36.53-.22.35-.33.53l-.06.11c-.24.43-.47.89-.68,1.34a.94.94,0,0,0-.1.23l-.1.22a27,27,0,0,1-2.76,5.51l0,0a0,0,0,0,1,0,0l.06-.07h0l.2-.22c.14-.16.33-.36.54-.57s.18-.19.29-.29a6.06,6.06,0,0,1,.52-.46s0,0,0,0c.28-.23.58-.48.9-.72s.69-.51,1.07-.76l.57-.37c.2-.12.39-.24.61-.35A10.18,10.18,0,0,1,19.35,26a13.28,13.28,0,0,1,3.23,0,3.09,3.09,0,0,1,.59.08,5.36,5.36,0,0,1,.94.18,3.59,3.59,0,0,1,.47.12c.32.1.61.21.92.34.15.06.28.13.42.2a2.24,2.24,0,0,1,.4.22,3.09,3.09,0,0,1,.37.26,2.79,2.79,0,0,1,.42.35.43.43,0,0,0,.09.1s0,0,.05,0l.05.06.18.18.16.16a1.3,1.3,0,0,1,.15.2.36.36,0,0,1,.07.1,4.3,4.3,0,0,1,.37.77s0,0,0,0h0s0,0,0,0a.19.19,0,0,1-.09,0h0l-.12,0s0,0,0,0,0,0,0,0h0a2.58,2.58,0,0,0-.29,0l-.31.06a3.14,3.14,0,0,0-.58.22h0a1.75,1.75,0,0,0-.27.16,3.05,3.05,0,0,0-.49.38,2.09,2.09,0,0,0-.2.22h0a4.42,4.42,0,0,1,2.77.11,1.56,1.56,0,0,0,.15.06l.29.13a5.2,5.2,0,0,1,1.38,1,4.85,4.85,0,0,1,.55.65c.37.52.73,1,1.1,1.51s.6.76.91,1.11c.16.18.32.36.49.52a10.43,10.43,0,0,0,2.91,2.21,2.51,2.51,0,0,0,1.7-.16s-4.46-1.72-5.56-5a7.28,7.28,0,0,0-3.71-4l.78.34A10.89,10.89,0,0,0,22.1,25a14.53,14.53,0,0,0-8.42,2.19,14.32,14.32,0,0,1,4.6-4.6c2.77-1.52,7.11-1,7.11-1l-1.25-1.12A19.72,19.72,0,0,1,29.34,22,34.54,34.54,0,0,1,35,25.23c-.46-.43-.93-.82-1.39-1.18A20.89,20.89,0,0,0,31,22.29c-5.94-3.53-10.76-2.56-10.76-2.56a4.2,4.2,0,0,1,3.05.83s-1.3-.64-4.62-.09a29.84,29.84,0,0,0-6.15,2.07,13.39,13.39,0,0,1-1.73.53,6.25,6.25,0,0,1-3.39-.28Z" transform="translate(-6.64 1.52)"/><path class="cls-21" d="M25.72,30.32a4.45,4.45,0,0,1,2.8.08,1.56,1.56,0,0,0,.15.06l.29.13a5.2,5.2,0,0,1,1.38,1,5.07,5.07,0,0,1,.55.66c.36.52.73,1,1.1,1.5s.6.76.91,1.11c.16.18.32.36.49.52a9.51,9.51,0,0,0,5.43,3h0l-1.62.06h-.42l-1.22.05.15.08a16.92,16.92,0,0,0,2,.8l.08,0c.91.32,1.84.58,2.76.81.12,0,.25.07.38.11s0,0,0,0A25.21,25.21,0,0,1,41,31.45c.09-.34.17-.68.26-1A28.33,28.33,0,0,1,36,26.18,25.07,25.07,0,0,0,31,22.29a28.16,28.16,0,0,1-3.9,5.41,1.85,1.85,0,0,0,.14.14,1.75,1.75,0,0,1,.23.24l.16.16.15.2a.36.36,0,0,1,.07.1,2.5,2.5,0,0,1,.37.77s0,0,0,0h0a.1.1,0,0,1-.11,0h0a.2.2,0,0,0-.16-.07s0,0,0,0h0a1.55,1.55,0,0,0-.31,0l-.31.06a2.92,2.92,0,0,0-.58.23h0a1.75,1.75,0,0,0-.27.16,3.05,3.05,0,0,0-.49.38,2,2,0,0,0-.19.22h0A0,0,0,0,0,25.72,30.32Z" transform="translate(-6.64 1.52)"/><path class="cls-22" d="M18.38,23.73a8,8,0,0,1,4.45-1.5,15.24,15.24,0,0,1,4.43.35c-.2-.36-.39-.74-.59-1.11a29.67,29.67,0,0,1,8.15,5.87,42.46,42.46,0,0,0-6.92-4.21l.44.7A15.71,15.71,0,0,0,18.38,23.73Z" transform="translate(-6.64 1.52)"/><path class="cls-23" d="M74.75,6.8a10.56,10.56,0,0,1-3,6.48c.15-1.1.31-2.17.45-3.24a14.91,14.91,0,0,1-4.33,6,11.76,11.76,0,0,1-6,2.6l1.3.29a14.64,14.64,0,0,1-7,2.29,12.55,12.55,0,0,1-7.66-2.05A9.16,9.16,0,0,0,49,22.43a17.4,17.4,0,0,1-6-3.17l.36,2.39a45.35,45.35,0,0,0-4-3.94,15,15,0,0,0-5.21-2.45l1.47,0A14.72,14.72,0,0,0,29,12.63a16.11,16.11,0,0,0-6.81-.13,14.9,14.9,0,0,1,3.39-.82c3.53-.2,6.75-.15,9.9,1.31a3.36,3.36,0,0,0-1.18-2c4.58.87,8.51,2.67,11.3,6.54A5.07,5.07,0,0,1,46,14.69,16.73,16.73,0,0,0,58.23,18.6c.24,0,.71-.13,1-.17a3,3,0,0,1-1.56-2.1,13.36,13.36,0,0,0,7.07-.09c.09,0,.13-.07.11-.07a5.24,5.24,0,0,1-2.53-.63,15.74,15.74,0,0,0,5.25-1.76s0,.15,0,.07c2.42-2.5,4.13-7.78,4-10.59S71.11.15,73-.87c.71-.37,1.61.83,2,1.28A42.63,42.63,0,0,1,74.75,6.8Z" transform="translate(-6.64 1.52)"/><path class="cls-24" d="M82.38,28.12a0,0,0,0,0,0,0v0l.15.12A.38.38,0,0,0,82.38,28.12Z" transform="translate(-6.64 1.52)"/><path class="cls-25" d="M12.57,29.57a10.08,10.08,0,0,0-.8.75c-.2.21-.37.41-.51.59C10.87,31.44,12.1,30.44,12.57,29.57Z" transform="translate(-6.64 1.52)"/><path class="cls-26" d="M36,16.69a16.38,16.38,0,0,0-3.89.34v-.3a4.77,4.77,0,0,1,2.52,1.41h0l1.44.54-.07.17a11.43,11.43,0,0,0-5.46-.25l0-.32a4.09,4.09,0,0,1,1.31.72,2.31,2.31,0,0,1,.78,1.26s0,0,0,0h0a2.43,2.43,0,0,0-.88-1.09,4.65,4.65,0,0,0-1.28-.59.16.16,0,0,1-.11-.21.16.16,0,0,1,.13-.11h0A13.85,13.85,0,0,1,33.29,18a6.65,6.65,0,0,1,2.77.64h0a.1.1,0,0,1,0,.13.11.11,0,0,1-.13,0c-.46-.21-.94-.41-1.41-.61h0a5.09,5.09,0,0,0-1.15-.81A3.9,3.9,0,0,0,32.07,17a.15.15,0,0,1-.13-.17.16.16,0,0,1,.12-.13,9.28,9.28,0,0,1,4-.08,0,0,0,0,1,0,0Z" transform="translate(-6.64 1.52)"/><path d="M52.91,25a3,3,0,0,1-1.52.4c-.54,0-1-.13-1.58-.12l.09-.16a6.81,6.81,0,0,0,1.23.86c.45.22.92.4,1.41.61,0,0,0,0,0,0h0A3.3,3.3,0,0,1,51,26.27a3.06,3.06,0,0,1-1.22-1.06v0a.08.08,0,0,1,0-.12.08.08,0,0,1,.08,0,3.05,3.05,0,0,0,1.53,0c.51,0,1-.1,1.53-.13,0,0,0,0,0,0S52.92,25,52.91,25Z" transform="translate(-6.64 1.52)"/><path d="M56.44,30.56a4.13,4.13,0,0,1-1.15,1.17,5.64,5.64,0,0,1-1.52.64l0-.11a7.28,7.28,0,0,0,1.31-.2c.43-.1.86-.19,1.28-.3l2.57-.62h0a0,0,0,0,1,0,0,8,8,0,0,1-2.51.95,8.5,8.5,0,0,1-1.33.18c-.45,0-.89,0-1.33.08,0,0-.07,0-.07-.06a.08.08,0,0,1,0-.06,10,10,0,0,0,1.39-.79,14.1,14.1,0,0,0,1.29-.94h0Z" transform="translate(-6.64 1.52)"/><path d="M65.72,27.5a2,2,0,0,1-.26,1.37,4.7,4.7,0,0,1-.9,1.08l-.16-.26a25.14,25.14,0,0,0,2.33-1.15,10.86,10.86,0,0,0,2-1.62.11.11,0,0,1,.15,0,.09.09,0,0,1,0,.09h0a2.54,2.54,0,0,1-.44,1.24,7.27,7.27,0,0,1-.86,1l-.18-.31a17.63,17.63,0,0,0,4.2-2.31h0s0,0,0,0a10.83,10.83,0,0,1-4.11,2.65.19.19,0,0,1-.18-.32,3.67,3.67,0,0,0,1.34-2l.18.1c-.68.55-1.39,1.06-2.11,1.57A10.35,10.35,0,0,1,64.52,30h0a.16.16,0,0,1-.2-.09.17.17,0,0,1,0-.17,3.08,3.08,0,0,0,1.33-2.21s0,0,0,0S65.72,27.49,65.72,27.5Z" transform="translate(-6.64 1.52)"/><path d="M74.63,11.66A10.53,10.53,0,0,1,74.16,13a.14.14,0,0,1-.27,0h0a3.14,3.14,0,0,0-1.11-2.05l.08-.07c.13.3.26.6.4.89a.13.13,0,0,1,0,.06v0a3.63,3.63,0,0,1-1.71,2h0a.18.18,0,0,1-.25-.07.15.15,0,0,1,0-.13,2.81,2.81,0,0,0,.08-1,4.21,4.21,0,0,0-.32-1.05s0,0,0,0h0a2.79,2.79,0,0,1,.55,1,2.29,2.29,0,0,1,0,1.19l-.27-.2a4.55,4.55,0,0,0,1.71-1.8v.07c-.1-.32-.2-.62-.32-.93a.07.07,0,0,1,0-.07h.06a5.88,5.88,0,0,1,.91.89A2,2,0,0,1,74.18,13l-.28-.06a11.15,11.15,0,0,1,.7-1.26h0S74.63,11.65,74.63,11.66Z" transform="translate(-6.64 1.52)"/><path d="M81.77,15.75c-.09.39-.2.74-.27,1.11A2.51,2.51,0,0,0,81.4,18a.06.06,0,0,1,0,.08h0a5.86,5.86,0,0,1-.76-.22,2.48,2.48,0,0,1-.68-.44,2,2,0,0,1-.6-1.47l0,0h0a4.23,4.23,0,0,0,.82,1.21,4.09,4.09,0,0,0,.56.45,3.86,3.86,0,0,0,.66.37l-.08.06a4.76,4.76,0,0,1-.08-1.2,2,2,0,0,1,.54-1.07h0Z" transform="translate(-6.64 1.52)"/><path class="cls-27" d="M37.29,30.82a3.51,3.51,0,0,1-1.65.3c-.28,0-.56-.06-.84-.06s-.56,0-.85,0l.14-.22c.48.63,1.34.79,2.14,1.16a0,0,0,0,1,0,0h0a3.46,3.46,0,0,1-1.31-.18A1.8,1.8,0,0,1,33.85,31v0a.15.15,0,0,1,.06-.19H34a5.8,5.8,0,0,0,.81.16,2.93,2.93,0,0,0,.83-.08,7.52,7.52,0,0,1,1.65-.08l0,0A0,0,0,0,1,37.29,30.82Z" transform="translate(-6.64 1.52)"/><path class="cls-27" d="M20.11,22.61a9.61,9.61,0,0,0-.85.55,9,9,0,0,0-.83.59l-.06-.1a8.37,8.37,0,0,0,.82-.23,4.85,4.85,0,0,1,.85-.13,4.18,4.18,0,0,1,1.68.24,0,0,0,0,1,0,0h0c-.57.07-1.11.07-1.66.09h-.82a2.59,2.59,0,0,0-.83.1.06.06,0,0,1-.07,0,.07.07,0,0,1,0-.06h0a3.6,3.6,0,0,1,.74-.77,1.92,1.92,0,0,1,1-.32s0,0,0,0Z" transform="translate(-6.64 1.52)"/><path class="cls-26" d="M22.45,14.07l-.62.6c-.19.21-.41.38-.6.59l-.09-.12A5.3,5.3,0,0,0,22,15a4.25,4.25,0,0,1,.87-.13,4.47,4.47,0,0,1,1.74.27,0,0,0,0,1,0,0h0a10.12,10.12,0,0,1-1.73,0l-.86,0a2,2,0,0,0-.84.14.07.07,0,0,1-.1,0,.06.06,0,0,1,0-.06v0a1.77,1.77,0,0,1,.54-.73,2.1,2.1,0,0,1,.8-.41,0,0,0,0,1,0,0Z" transform="translate(-6.64 1.52)"/><path class="cls-28" d="M31.39,13.43c-2.42-.39-5.23-.85-7.58-.3S19.86,15,18.05,16.46c.46.07.84.15,1.3.2a11.21,11.21,0,0,0-3.71,1.79c-1.45,1.05-3.22,3-5.05,3.88A6.51,6.51,0,0,1,7.5,23c-.24,0-.08-.13-.25-.16a6.37,6.37,0,0,0,4.35-2.27,14.31,14.31,0,0,1,4.31-3.31,4,4,0,0,1-2.47,0c3.2-.94,5.66-3.34,8.66-4.76l.09,0a7.92,7.92,0,0,1,1.17-.38A16.53,16.53,0,0,1,31.39,13.43Z" transform="translate(-6.64 1.52)"/><path class="cls-29" d="M23.94,22.19c-.05.64-1,.66-1.47.59s-1.43-.29-1.39-.91,1-.64,1.49-.59S24,21.56,23.94,22.19Z" transform="translate(-6.64 1.52)"/><path class="cls-30" d="M23.21,20.84c0,.29-.38.36-.62.34S22,21,22,20.73s.39-.36.63-.34S23.24,20.55,23.21,20.84Z" transform="translate(-6.64 1.52)"/><path class="cls-31" d="M38.23,28.54a29.76,29.76,0,0,0,7.33,3.16c-.21-.42-.43-.84-.65-1.26a31.26,31.26,0,0,0,8.14,1.32,31.93,31.93,0,0,1-6.7,0c1.1.8,2.22,1.56,3.34,2.32A21.31,21.31,0,0,1,38.23,28.54Z" transform="translate(-6.64 1.52)"/><path class="cls-32" d="M68.43,16.55a29.05,29.05,0,0,1-10.09,5.71c.13-.25.27-.49.41-.73a16.69,16.69,0,0,1-8.59-.47c2.15,1.38,4.6,1.53,7.09,1.43-.43.77-.88,1.52-1.31,2.28C60.61,22.8,65,20.34,68.43,16.55Z" transform="translate(-6.64 1.52)"/><path class="cls-33" d="M61.33,22.47c.2.52-.79,1.07-1.13,1.25s-1.34.65-1.54.13.81-1.06,1.15-1.24S61.14,22,61.33,22.47Z" transform="translate(-6.64 1.52)"/><path class="cls-34" d="M61.19,23.82c.09.24-.32.48-.48.57s-.59.27-.68,0,.32-.48.49-.57S61.09,23.58,61.19,23.82Z" transform="translate(-6.64 1.52)"/><path class="cls-35" d="M85.22,16a5.31,5.31,0,0,0,.83,2.58,3.25,3.25,0,0,1-1.77-1.23A19.23,19.23,0,0,1,82.44,23c-.91,1.9-1.69,3.66-.08,5.16a3,3,0,0,1-1.82-2.69,11.16,11.16,0,0,1,1.74-5.67c0,.39,0,.86,0,1.28a6.71,6.71,0,0,0,1.19-3.81A13.32,13.32,0,0,0,83,13.21c.38.73.76,1.46,1.13,2.19-.22-1.1-.45-2.21-.68-3.31a6.3,6.3,0,0,0,3.8,1.11,3.22,3.22,0,0,0,1.26.74c-.9.36-3.6-.91-4-.66S85.32,15.2,85.22,16Z" transform="translate(-6.64 1.52)"/><path class="cls-36" d="M66.7,28.7a17,17,0,0,1-1,10.24l.13-.06.1,0,0,0h0a21.13,21.13,0,0,0,4.64-3.86c.92-.94,2-2.06,3.23-3.42l0,0a.39.39,0,0,0,0,.06s0,0,0,0h0s0,0,0-.05,0-.05,0-.08v0h0s0,0,0,0,0,0,0,0a.37.37,0,0,0,0-.09,1.61,1.61,0,0,1,.28-.9s0-.06,0-.08a8.17,8.17,0,0,1,1.64-2l0,0h0a1.51,1.51,0,0,1,.26-.2s0-.05-.06-.07a24.94,24.94,0,0,1-3.84-6,27.22,27.22,0,0,1-5.87,5.5C66.5,27.94,66.6,28.32,66.7,28.7Z" transform="translate(-6.64 1.52)"/></g></g></g></g></svg>