<svg xmlns="http://www.w3.org/2000/svg" xmlns:xlink="http://www.w3.org/1999/xlink" viewBox="0 0 82.94 44.56"><defs><style>.cls-1{isolation:isolate;}.cls-2{fill:url(#linear-gradient);}.cls-3{fill:#060503;}.cls-4{fill:url(#linear-gradient-2);}.cls-5{fill:#4a1516;}.cls-11,.cls-12,.cls-16,.cls-17,.cls-18,.cls-19,.cls-20,.cls-21,.cls-22,.cls-23,.cls-26,.cls-27,.cls-28,.cls-29,.cls-30,.cls-31,.cls-32,.cls-33,.cls-34,.cls-6,.cls-7,.cls-9{mix-blend-mode:overlay;}.cls-6{fill:url(#linear-gradient-3);}.cls-7{fill:url(#linear-gradient-4);}.cls-8{fill:url(#linear-gradient-5);}.cls-9{fill:url(#linear-gradient-6);}.cls-10{fill:url(#linear-gradient-7);}.cls-11{fill:url(#linear-gradient-8);}.cls-12{fill:url(#linear-gradient-9);}.cls-13{fill:url(#linear-gradient-10);}.cls-14{fill:url(#linear-gradient-11);}.cls-15{fill:url(#linear-gradient-12);}.cls-16{fill:url(#linear-gradient-13);}.cls-17,.cls-18{opacity:0.57;}.cls-17{fill:url(#linear-gradient-14);}.cls-18{fill:url(#linear-gradient-15);}.cls-19{fill:url(#linear-gradient-16);}.cls-20{fill:url(#linear-gradient-17);}.cls-21{fill:url(#linear-gradient-18);}.cls-22{fill:url(#linear-gradient-19);}.cls-23{fill:url(#linear-gradient-20);}.cls-24{fill:#191e45;}.cls-25{fill:#ffc800;}.cls-26{fill:url(#linear-gradient-21);}.cls-27{fill:url(#linear-gradient-22);}.cls-28{fill:url(#linear-gradient-23);}.cls-29{fill:url(#linear-gradient-24);}.cls-30{fill:url(#linear-gradient-25);}.cls-31{fill:url(#linear-gradient-26);}.cls-32{fill:url(#linear-gradient-27);}.cls-33{fill:url(#linear-gradient-28);}.cls-34{fill:url(#linear-gradient-29);}</style><linearGradient id="linear-gradient" x1="-1327.25" y1="-121.69" x2="-1327.28" y2="-121.7" gradientTransform="matrix(-0.98, -0.19, -0.19, 0.98, -1243.93, -123.23)" gradientUnits="userSpaceOnUse"><stop offset="0" stop-color="#696372"/><stop offset="0.94" stop-color="#060503"/></linearGradient><linearGradient id="linear-gradient-2" x1="-1271.58" y1="-149.14" x2="-1331.77" y2="-168.3" gradientTransform="matrix(-0.96, -0.26, -0.26, 0.96, -1244.39, -166.35)" gradientUnits="userSpaceOnUse"><stop offset="0" stop-color="#3641ba"/><stop offset="1" stop-color="#000721"/></linearGradient><linearGradient id="linear-gradient-3" x1="-1317.49" y1="-175.8" x2="-1283.34" y2="-138.05" gradientTransform="matrix(-0.96, -0.26, -0.26, 0.96, -1244.39, -166.35)" gradientUnits="userSpaceOnUse"><stop offset="0.36" stop-opacity="0.5"/><stop offset="1" stop-opacity="0"/></linearGradient><linearGradient id="linear-gradient-4" x1="-1298.97" y1="-106.24" x2="-1312.03" y2="-100.93" gradientTransform="matrix(-0.98, -0.19, -0.19, 0.98, -1243.93, -123.23)" gradientUnits="userSpaceOnUse"><stop offset="0" stop-color="#ffc782" stop-opacity="0"/><stop offset="0.09" stop-color="#ffc97e" stop-opacity="0.05"/><stop offset="0.26" stop-color="#ffce73" stop-opacity="0.19"/><stop offset="0.48" stop-color="#ffd761" stop-opacity="0.4"/><stop offset="0.75" stop-color="#ffe248" stop-opacity="0.7"/><stop offset="1" stop-color="#ffee30"/></linearGradient><linearGradient id="linear-gradient-5" x1="-1288.36" y1="-146.99" x2="-1343.86" y2="-142.11" xlink:href="#linear-gradient-2"/><linearGradient id="linear-gradient-6" x1="-1276.76" y1="-162.08" x2="-1256.91" y2="-140.14" xlink:href="#linear-gradient-3"/><linearGradient id="linear-gradient-7" x1="-1277.95" y1="-153.82" x2="-1257.73" y2="-145.57" gradientTransform="matrix(-0.96, -0.26, -0.26, 0.96, -1244.39, -166.35)" gradientUnits="userSpaceOnUse"><stop offset="0" stop-color="#82f3ff" stop-opacity="0"/><stop offset="0.1" stop-color="#7cf1fe" stop-opacity="0.05"/><stop offset="0.27" stop-color="#6eedfb" stop-opacity="0.2"/><stop offset="0.51" stop-color="#56e6f7" stop-opacity="0.44"/><stop offset="0.8" stop-color="#36dcf1" stop-opacity="0.76"/><stop offset="1" stop-color="#1dd4ed"/></linearGradient><linearGradient id="linear-gradient-8" x1="-1274.09" y1="-148.31" x2="-1264.68" y2="-149.51" gradientTransform="matrix(-0.96, -0.26, -0.26, 0.96, -1244.39, -166.35)" gradientUnits="userSpaceOnUse"><stop offset="0" stop-color="#ffc782" stop-opacity="0"/><stop offset="0.09" stop-color="#ffca87" stop-opacity="0.05"/><stop offset="0.26" stop-color="#ffd193" stop-opacity="0.19"/><stop offset="0.48" stop-color="#ffdca6" stop-opacity="0.4"/><stop offset="0.75" stop-color="#ffecc0" stop-opacity="0.7"/><stop offset="1" stop-color="#fffcdb"/></linearGradient><linearGradient id="linear-gradient-9" x1="-117.59" y1="19.93" x2="-136.54" y2="17.28" gradientTransform="translate(161.3 10.1) rotate(0.48)" xlink:href="#linear-gradient-8"/><linearGradient id="linear-gradient-10" x1="-1265.04" y1="-157.46" x2="-1304.25" y2="-159.5" gradientTransform="matrix(-0.96, -0.26, -0.26, 0.96, -1244.39, -166.35)" gradientUnits="userSpaceOnUse"><stop offset="0.78" stop-color="#b80004"/><stop offset="1" stop-color="#520002"/></linearGradient><linearGradient id="linear-gradient-11" x1="-1257.94" y1="-141.71" x2="-1280.7" y2="-148.89" gradientTransform="matrix(-0.96, -0.26, -0.26, 0.96, -1244.39, -166.35)" gradientUnits="userSpaceOnUse"><stop offset="0" stop-color="#fc810e"/><stop offset="1" stop-color="#bd0102"/></linearGradient><linearGradient id="linear-gradient-12" x1="-1269.2" y1="-149.53" x2="-1264.45" y2="-145.36" gradientTransform="matrix(-0.96, -0.26, -0.26, 0.96, -1244.39, -166.35)" gradientUnits="userSpaceOnUse"><stop offset="0" stop-color="#ffe082" stop-opacity="0"/><stop offset="0.09" stop-color="#ffdc7e" stop-opacity="0.05"/><stop offset="0.26" stop-color="#ffd174" stop-opacity="0.19"/><stop offset="0.48" stop-color="#ffc063" stop-opacity="0.4"/><stop offset="0.75" stop-color="#ffa94d" stop-opacity="0.7"/><stop offset="1" stop-color="#ff9136"/></linearGradient><linearGradient id="linear-gradient-13" x1="-1271.38" y1="-145.37" x2="-1263.25" y2="-146.41" xlink:href="#linear-gradient-8"/><linearGradient id="linear-gradient-14" x1="-1338.7" y1="-174.62" x2="-1260.8" y2="-139.9" gradientTransform="matrix(-0.96, -0.26, -0.26, 0.96, -1244.39, -166.35)" gradientUnits="userSpaceOnUse"><stop offset="0.42"/><stop offset="1" stop-opacity="0"/></linearGradient><linearGradient id="linear-gradient-15" x1="-1259.56" y1="-143.77" x2="-1295.27" y2="-139.35" xlink:href="#linear-gradient-14"/><linearGradient id="linear-gradient-16" x1="-1287.33" y1="-138.66" x2="-1272.19" y2="-145.72" gradientTransform="matrix(-0.96, -0.26, -0.26, 0.96, -1244.39, -166.35)" xlink:href="#linear-gradient-4"/><linearGradient id="linear-gradient-17" x1="-1274.24" y1="-147.67" x2="-1270.2" y2="-147.5" gradientTransform="matrix(-0.96, -0.26, -0.26, 0.96, -1244.39, -166.35)" xlink:href="#linear-gradient-4"/><linearGradient id="linear-gradient-18" x1="-1313.04" y1="-114.76" x2="-1262.55" y2="-114.76" gradientTransform="matrix(-0.98, -0.19, -0.19, 0.98, -1243.93, -123.23)" xlink:href="#linear-gradient-14"/><linearGradient id="linear-gradient-19" x1="-1324.73" y1="-101.85" x2="-1324.56" y2="-101.85" gradientTransform="matrix(-0.98, -0.19, -0.19, 0.98, -1243.93, -123.23)" xlink:href="#linear-gradient-14"/><linearGradient id="linear-gradient-20" x1="-1256.34" y1="-86.28" x2="-1255.26" y2="-86.28" gradientTransform="matrix(-0.98, -0.19, -0.19, 0.98, -1243.93, -123.23)" xlink:href="#linear-gradient-14"/><linearGradient id="linear-gradient-21" x1="-143.91" y1="12.69" x2="-148.7" y2="10.76" gradientTransform="translate(161.3 10.1) rotate(0.48)" xlink:href="#linear-gradient-8"/><linearGradient id="linear-gradient-22" x1="-144.88" y1="15.62" x2="-145.03" y2="15.29" gradientTransform="translate(161.3 10.1) rotate(0.48)" xlink:href="#linear-gradient-4"/><linearGradient id="linear-gradient-23" x1="-145.02" y1="13.86" x2="-145.09" y2="13.71" gradientTransform="translate(161.3 10.1) rotate(0.48)" xlink:href="#linear-gradient-4"/><linearGradient id="linear-gradient-24" x1="-119.96" y1="27.44" x2="-120.64" y2="25.89" gradientTransform="translate(161.3 10.1) rotate(0.48)" xlink:href="#linear-gradient-8"/><linearGradient id="linear-gradient-25" x1="-115.47" y1="18.41" x2="-111.78" y2="14.54" gradientTransform="translate(161.3 10.1) rotate(0.48)" xlink:href="#linear-gradient-8"/><linearGradient id="linear-gradient-26" x1="-208.87" y1="304.13" x2="-208.31" y2="303.54" gradientTransform="matrix(0.91, -0.42, 0.42, 0.91, 116.37, -337.31)" xlink:href="#linear-gradient-8"/><linearGradient id="linear-gradient-27" x1="-208.12" y1="304.64" x2="-207.88" y2="304.38" gradientTransform="matrix(0.91, -0.42, 0.42, 0.91, 116.37, -337.31)" xlink:href="#linear-gradient-8"/><linearGradient id="linear-gradient-28" x1="-90.61" y1="18.19" x2="-87.22" y2="14.64" gradientTransform="translate(161.3 10.1) rotate(0.48)" xlink:href="#linear-gradient-4"/><linearGradient id="linear-gradient-29" x1="-1309.29" y1="-153.39" x2="-1314.83" y2="-151.14" xlink:href="#linear-gradient-8"/></defs><g class="cls-1"><g id="Layer_2" data-name="Layer 2"><g id="Layer_1-2" data-name="Layer 1"><path class="cls-2" d="M82.17,10.71h0Z"/><path class="cls-3" d="M82.15,10.71h0l0,0h0m0-.78a.83.83,0,0,0-.46.14.76.76,0,0,0-.33.8.78.78,0,0,0,.61.62h.17a.79.79,0,0,0,.45-.13.8.8,0,0,0,.34-.81.78.78,0,0,0-.61-.61l-.17,0Z"/><path class="cls-4" d="M49.76,44.25a.31.31,0,0,1-.13-.59A17.9,17.9,0,0,0,52,42.37q.48-.33.93-.69A37.82,37.82,0,0,1,44.29,43l-2,0a37.2,37.2,0,0,1-7.72-.72c-1.2-.27-2-.46-2.51-.63l-.19-.05-.39-.13a10.25,10.25,0,0,1-1-.4c-.42-.17-.93-.39-1.76-.7a.35.35,0,0,1-.25-.35.32.32,0,0,1,.3-.28l1.37,0c-2.72-1.1-4.49-3.34-6.19-5.75a4.55,4.55,0,0,0-3.66-2,4.48,4.48,0,0,0-1.14.16l-.1,0a.32.32,0,0,1-.24-.11.3.3,0,0,1,0-.39,2.28,2.28,0,0,1,.5-.48,2.69,2.69,0,0,1,.53-.35l.05,0a3.3,3.3,0,0,1,1.16-.33,2.51,2.51,0,0,0-.64-.8.32.32,0,0,1-.12-.11,2.81,2.81,0,0,0-.45-.4l-.26-.19-.11-.07a2.37,2.37,0,0,0-.34-.19.26.26,0,0,1-.09-.05l-.33-.15c-.31-.13-.59-.23-.9-.33a2.26,2.26,0,0,0-.43-.11,6,6,0,0,0-.93-.18,3.14,3.14,0,0,0-.56-.08,14.87,14.87,0,0,0-1.49-.08,12.93,12.93,0,0,0-1.68.11,10.05,10.05,0,0,0-3.51,1.33l-.6.35-.12.08a4.55,4.55,0,0,0-.43.28,11.37,11.37,0,0,0-1,.75c-.26.19-.49.38-.71.56l-.16.12a.1.1,0,0,1,0,0,7.81,7.81,0,0,0-.78.73c-.22.21-.4.4-.54.56l-.16.19,0,0,0,0v-.05a.28.28,0,0,1-.09.14.35.35,0,0,1-.22.08A.32.32,0,0,1,4.09,33a.31.31,0,0,1,0-.4,20.5,20.5,0,0,0,2.24-4.3A26.16,26.16,0,0,1,7.9,24.89a3.6,3.6,0,0,1-.4.14,13.82,13.82,0,0,1-3.71.51h0a5,5,0,0,1-3.08-.75l-.14-.1s-.12-.07-.19-.15a.29.29,0,0,1-.06-.33A.32.32,0,0,1,.6,24l.13,0a5.94,5.94,0,0,0,4-2.13,16.06,16.06,0,0,1,2.94-2.56,2.15,2.15,0,0,1-1-.23.32.32,0,0,1-.16-.31.3.3,0,0,1,.22-.26,19.6,19.6,0,0,0,5.1-2.67,30.72,30.72,0,0,1,3.52-2.08l.09,0c.3-.12.5-.18.73-.25l.52-.17A19.74,19.74,0,0,1,19,12.86c.64-.06,1.31-.1,2-.1a23.31,23.31,0,0,1,6.45.86,5.82,5.82,0,0,1,.93.31,3.22,3.22,0,0,0-.9-1.21.31.31,0,0,1-.08-.37.33.33,0,0,1,.28-.18h.06c4.69.89,8,2.63,10.54,5.47l.09.11a3.33,3.33,0,0,1,.25.28,6.45,6.45,0,0,1,.44-2,.34.34,0,0,1,.2-.19h.09a.33.33,0,0,1,.19.06l.87.68a10.07,10.07,0,0,0,1.88,1.24A16.79,16.79,0,0,0,50,19.9a9.81,9.81,0,0,0,1.57-.12l.28,0a2.67,2.67,0,0,1-1.1-1.9.33.33,0,0,1,.12-.27.33.33,0,0,1,.19-.06l.1,0a9.28,9.28,0,0,0,2,.44h.06c.26,0,.52,0,.78,0a14.77,14.77,0,0,0,2.63-.23,3.48,3.48,0,0,1-1.07-.45.3.3,0,0,1-.14-.32.31.31,0,0,1,.26-.25A15.53,15.53,0,0,0,60.76,15l.09,0a7.14,7.14,0,0,0,.51-.64,7.54,7.54,0,0,0,.49-.71l.1-.14c0-.07.09-.13.12-.19a3.33,3.33,0,0,0,.32-.52A11.53,11.53,0,0,0,63,11.51,17.51,17.51,0,0,0,64.6,4.65c0-.33,0-.64,0-.92-.09-1.61-.16-2.67,1.63-3.3l.16-.06a1.29,1.29,0,0,1,.4-.06c.79,0,1.43.75,2,1.51.38.5.78,1.08,1.2,1.7a26.39,26.39,0,0,0,3.14,4A10.12,10.12,0,0,0,75.25,9l.46.19a19.6,19.6,0,0,0,6.43,1.24.31.31,0,0,1,.3.28.31.31,0,0,1-.24.33,21.14,21.14,0,0,1-3.23.53,3.22,3.22,0,0,1,1.21,1.73,2.57,2.57,0,0,0,1.76,1.86.32.32,0,0,1,.22.27.31.31,0,0,1-.16.3l-.14,0a1.69,1.69,0,0,1-.43.05,8.63,8.63,0,0,1-2.17-.46,10,10,0,0,0-1.12-.28,4.5,4.5,0,0,0,.29.76,5.3,5.3,0,0,1,.44,1.35,1,1,0,0,1,0,.38,5.38,5.38,0,0,0,.81,2.36.29.29,0,0,1,0,.24.28.28,0,0,1-.16.18.37.37,0,0,1-.14,0l-.11,0a3.85,3.85,0,0,1-1.43-.81,12.31,12.31,0,0,1-.51,1.9,27.46,27.46,0,0,1-1.18,3,.49.49,0,0,0-.06.13,10.3,10.3,0,0,0-.87,2.2A2.3,2.3,0,0,0,75.5,29a2.81,2.81,0,0,0,.46.44.31.31,0,0,1,.09.38.36.36,0,0,1-.21.17h-.15a2.7,2.7,0,0,1-.49,0,5,5,0,0,1-4.09-2.65,3.93,3.93,0,0,1-.23-.52,10.24,10.24,0,0,1-1.17,2.95l-.07.12a1.16,1.16,0,0,1-.18.22c-.13.17-.34.41-.57.68a14.87,14.87,0,0,0-1,1.29,1.48,1.48,0,0,0-.32.66,2.11,2.11,0,0,1,.1.3.43.43,0,0,1,0,.2.31.31,0,0,1-.26.23h-.09l-.68.72c-.87.93-1.62,1.73-2.31,2.43h0s0,.09-.15.15a27.47,27.47,0,0,1-3.47,3.11c-.4.27-.75.5-1.12.7-.78.42-1.42.77-2,1.07a5.59,5.59,0,0,1-.6.3,23.82,23.82,0,0,1-7.1,2.29Z"/><path class="cls-5" d="M66.74.62c.62,0,1.17.61,1.78,1.39,1.2,1.59,2.7,4.15,4.37,5.75a10.78,10.78,0,0,0,2.22,1.5h0l.47.2a19.8,19.8,0,0,0,6.54,1.26,18.1,18.1,0,0,1-4,.55h-.38l0,0a3.09,3.09,0,0,1,2.14,2.08,2.87,2.87,0,0,0,2,2.07l-.06,0a1.28,1.28,0,0,1-.36,0c-1,0-2.78-.75-3.39-.75a.27.27,0,0,0-.17,0,.12.12,0,0,0-.06.11.36.36,0,0,0,0,.2c.1.51.66,1.47.73,2.12a.58.58,0,0,1,0,.29,5.27,5.27,0,0,0,.85,2.55h0a3.34,3.34,0,0,1-1.75-1.23v0a10.46,10.46,0,0,1-.57,2.49l0,.09a28.55,28.55,0,0,1-1.15,2.86c0,.07-.06.14-.09.19A10.83,10.83,0,0,0,75,26.7a2.59,2.59,0,0,0,.29,2.44,2.71,2.71,0,0,0,.52.49h-.08a4,4,0,0,1-.49,0,4.73,4.73,0,0,1-3.82-2.49A3.26,3.26,0,0,1,71,26.08,4.71,4.71,0,0,1,71,25a1.79,1.79,0,0,0,.07-.63h0a1.55,1.55,0,0,1,0-.22l0,.13L70.9,25a12,12,0,0,1-1.46,4.59l0,.07a1,1,0,0,1-.16.22c-.39.5-1.19,1.32-1.66,2a.56.56,0,0,0,0,.08,1.51,1.51,0,0,0-.32.76.31.31,0,0,0,0,.11h0v0h0v0s0,0,0,0v0l0,0h0l0,.08s0,0,0,.06v0h0v0l0-.06C66,34.36,65,35.48,64.05,36.41a.18.18,0,0,1-.07.09,27,27,0,0,1-3.5,3.12,11.45,11.45,0,0,1-1.09.69s0,0-.07,0c-.7.38-1.34.72-2,1a5.43,5.43,0,0,1-.59.3,23.81,23.81,0,0,1-7,2.27,19.08,19.08,0,0,0,2.41-1.31,16.77,16.77,0,0,0,2-1.62.23.23,0,0,1,.07-.07l-.54.18a36.21,36.21,0,0,1-9.45,1.52c-.66,0-1.31,0-2,0A36.56,36.56,0,0,1,34.68,42c-1.21-.27-1.94-.46-2.49-.62l-.57-.18c-.75-.26-1.19-.53-2.75-1.11l-.05,0c1.25,0,2.17-.08,3.29-.11h.06c-3.71-.65-5.8-3.16-7.91-6.17a4.91,4.91,0,0,0-3.92-2.11,4.47,4.47,0,0,0-1.23.18h0a2.51,2.51,0,0,1,.44-.42,2.75,2.75,0,0,1,.52-.34h0a2.87,2.87,0,0,1,1.18-.31h0s0,0,0,0,.09,0,.12,0h0s.06,0,.11,0,0,0,0,0a3,3,0,0,0-.95-1.44.32.32,0,0,0-.1-.1,2.74,2.74,0,0,0-.51-.45c-.11-.09-.25-.17-.37-.26a2.24,2.24,0,0,0-.4-.22c-.14-.07-.27-.14-.42-.2s-.6-.23-.92-.34a3.59,3.59,0,0,0-.47-.12,6.47,6.47,0,0,0-.94-.18,3.1,3.1,0,0,0-.58-.08,13,13,0,0,0-1.51-.08,13.14,13.14,0,0,0-1.73.11A10.37,10.37,0,0,0,9.1,28.87c-.21.11-.41.23-.61.35s-.4.25-.57.38c-.38.24-.74.5-1.07.75L6,31.07s0,0,0,0a7.62,7.62,0,0,0-.81.76c-.21.2-.4.4-.54.56s-.13.16-.19.23h0l-.06.07v0l0,0c2.12-2.87,2.59-6.35,4.78-9-1,.37-.35.54-1.66.94a13.63,13.63,0,0,1-3.62.5A4.9,4.9,0,0,1,.9,24.55l-.2-.14s0,0-.09-.08l.17,0A6.22,6.22,0,0,0,5,22.08a14.34,14.34,0,0,1,4.31-3.32A8.3,8.3,0,0,1,7.68,19a1.83,1.83,0,0,1-.88-.19c3.2-.94,5.65-3.34,8.66-4.77l.09,0c.45-.17.69-.23,1.22-.41A19.16,19.16,0,0,1,19,13.17a18.15,18.15,0,0,1,2-.09,23.11,23.11,0,0,1,6.36.84,7.49,7.49,0,0,1,1.52.58,3.46,3.46,0,0,0-1.2-2c4.09.78,7.66,2.3,10.36,5.38a.22.22,0,0,1,.07.06A11.68,11.68,0,0,1,39,19a5.58,5.58,0,0,1,.37-2.85,16.26,16.26,0,0,0,2.79,1.94,17,17,0,0,0,7.8,2.1,10.61,10.61,0,0,0,1.61-.12c.29-.05.74-.09,1-.16A2.93,2.93,0,0,1,51,17.82a8.72,8.72,0,0,0,2.09.46h0c.27,0,.54,0,.81,0a16.31,16.31,0,0,0,4.13-.55h0c.06,0,.11,0,.1-.07A5.39,5.39,0,0,1,55.66,17a15.72,15.72,0,0,0,5.25-1.75v.07s.06,0,.1-.09a6.06,6.06,0,0,0,.62-.76c.17-.22.35-.47.5-.71s.16-.23.22-.36a3.06,3.06,0,0,0,.33-.52c.23-.4.45-.83.66-1.28a18,18,0,0,0,1.58-7c-.07-2.2-.48-3.26,1.38-3.91l.14-.06a1.12,1.12,0,0,1,.31-.05m0-.62V0a1.52,1.52,0,0,0-.51.09L66,.16c-2,.69-1.9,2-1.8,3.59,0,.28,0,.58.05.91a17.52,17.52,0,0,1-1.53,6.72q-.32.69-.63,1.23a3,3,0,0,1-.29.47.43.43,0,0,0,0,.07.91.91,0,0,1-.11.16l-.09.15c-.14.22-.29.44-.47.67a6.19,6.19,0,0,1-.46.58l-.06,0a15.39,15.39,0,0,1-5,1.69.62.62,0,0,0-.52.48.63.63,0,0,0,.28.65l.06,0a14,14,0,0,1-1.44.07c-.26,0-.52,0-.77,0h-.09a8.19,8.19,0,0,1-1.87-.41.52.52,0,0,0-.21,0,.56.56,0,0,0-.37.13.58.58,0,0,0-.25.53,2.7,2.7,0,0,0,.73,1.66,8.76,8.76,0,0,1-1.17.07,16.41,16.41,0,0,1-7.49-2,10.07,10.07,0,0,1-1.85-1.21c-.21-.17-.47-.38-.88-.69a.63.63,0,0,0-.37-.12.51.51,0,0,0-.17,0,.61.61,0,0,0-.41.37,6.71,6.71,0,0,0-.38,1.37c-2.54-2.83-5.91-4.56-10.59-5.45h-.12A.62.62,0,0,0,27.28,13a4,4,0,0,1,.41.41l-.14,0A24,24,0,0,0,21,12.45c-.72,0-1.4,0-2,.1A18,18,0,0,0,16.6,13l-.54.17c-.24.08-.45.14-.73.25h-.06l-.07,0a29.74,29.74,0,0,0-3.56,2.1,19.17,19.17,0,0,1-5,2.63.62.62,0,0,0-.44.53.61.61,0,0,0,.32.61,2.75,2.75,0,0,0,.36.15,18.46,18.46,0,0,0-2.35,2.16,5.62,5.62,0,0,1-3.79,2H.64a.67.67,0,0,0-.58.38.61.61,0,0,0,.09.67A.91.91,0,0,0,.42,25l.1.07a5.33,5.33,0,0,0,3.27.81,14.9,14.9,0,0,0,3.45-.42c-.48.89-.87,1.81-1.25,2.72a19.66,19.66,0,0,1-2.2,4.24.61.61,0,0,0,.07.81.6.6,0,0,0,.43.18.67.67,0,0,0,.38-.13A.74.74,0,0,0,4.85,33h0l0,.08.06-.08h0L5,32.94a.81.81,0,0,1,.09-.1c.15-.17.32-.35.52-.55a10.28,10.28,0,0,1,.77-.72l.07-.06.13-.11c.22-.18.45-.37.7-.55a11.88,11.88,0,0,1,1-.73c.16-.11.29-.2.43-.28l.15-.09a5.69,5.69,0,0,1,.55-.32,9.58,9.58,0,0,1,3.41-1.31A12.7,12.7,0,0,1,14.44,28a13.26,13.26,0,0,1,1.43.08,3.11,3.11,0,0,1,.52.06h.05a5.56,5.56,0,0,1,.85.17h.08l.38.1a8,8,0,0,1,.86.32,2.63,2.63,0,0,1,.33.15L19,29l0,0a1.48,1.48,0,0,1,.27.16l.12.07a1.49,1.49,0,0,1,.2.15.1.1,0,0,1,.05,0,1.8,1.8,0,0,1,.39.34.43.43,0,0,0,.1.09l0,.05a3.56,3.56,0,0,1,.34.34,3.66,3.66,0,0,0-.78.29l-.08,0a3.14,3.14,0,0,0-.57.38,2.92,2.92,0,0,0-.54.52.62.62,0,0,0,0,.79.61.61,0,0,0,.47.21h.13l.05,0a3.88,3.88,0,0,1,1.06-.15,4.24,4.24,0,0,1,3.41,1.85,16.76,16.76,0,0,0,5.16,5.3h-.1a.62.62,0,0,0-.22,1.2l.08,0c.82.31,1.33.53,1.74.7s.65.28,1,.41l.4.12.18.06c.58.17,1.34.36,2.54.63a37.13,37.13,0,0,0,7.79.74c.65,0,1.31,0,2,0a40.67,40.67,0,0,0,7.08-.87,17.63,17.63,0,0,1-1.87,1,.61.61,0,0,0-.34.75.62.62,0,0,0,.59.44h.11a24.52,24.52,0,0,0,7.19-2.32c.2-.1.41-.2.62-.32.52-.26,1.13-.58,1.93-1l0,0,0,0a12.84,12.84,0,0,0,1.14-.71A29.47,29.47,0,0,0,64.39,37a.83.83,0,0,0,.16-.18c.69-.7,1.43-1.5,2.29-2.41l.58-.62a.6.6,0,0,0,.5-.44.69.69,0,0,0,0-.35.74.74,0,0,0,0-.14v0l0-.09v0a3.33,3.33,0,0,1,.21-.37l0,0,0,0h0a15.48,15.48,0,0,1,1-1.26c.23-.25.44-.49.59-.69a1.8,1.8,0,0,0,.19-.24l0-.07h0l0-.05a10,10,0,0,0,1-2.23,5.29,5.29,0,0,0,4.24,2.6,4.38,4.38,0,0,0,.51,0h0a.71.71,0,0,0,.21,0,.62.62,0,0,0,.2-1.09,1.93,1.93,0,0,1-.41-.39,2,2,0,0,1-.19-1.88,10.79,10.79,0,0,1,.83-2.11s0-.05,0-.07l0-.1a30.66,30.66,0,0,0,1.19-2.95.31.31,0,0,1,0-.08v0c.13-.39.28-.88.4-1.4a4.07,4.07,0,0,0,1.13.54.71.71,0,0,0,.21,0,.59.59,0,0,0,.31-.09.61.61,0,0,0,.24-.83,5.23,5.23,0,0,1-.77-2.2,1.28,1.28,0,0,0,0-.47,5.7,5.7,0,0,0-.47-1.39l-.09-.22.56.16a9.05,9.05,0,0,0,2.25.47,2,2,0,0,0,.51-.06.66.66,0,0,0,.22-.08.64.64,0,0,0,.31-.61.63.63,0,0,0-.43-.52,2.28,2.28,0,0,1-1.56-1.67,3.53,3.53,0,0,0-.78-1.39,24.18,24.18,0,0,0,2.57-.47.62.62,0,0,0-.12-1.22,19.05,19.05,0,0,1-6.34-1.22l-.43-.19h0a9.71,9.71,0,0,1-2-1.38,26.64,26.64,0,0,1-3.11-4c-.42-.62-.82-1.2-1.2-1.7C68.37.81,67.67,0,66.74,0Z"/><path class="cls-6" d="M39.37,30.75s4.91,3.84,10.45,2.87,12.9-5.06,12.9-5.06L70.9,25,71,25l1.6-.68s3.07-12.28,2.53-15h0a10.78,10.78,0,0,1-2.22-1.5C71.22,6.16,69.72,3.6,68.52,2,67.81,1.1,67.17.42,66.43.67l-.14.06c-1.86.65-1.45,1.71-1.38,3.91a18,18,0,0,1-1.58,7,23.8,23.8,0,0,1-1.59,7.23,13.68,13.68,0,0,1-4.07,5.26,5.66,5.66,0,0,0,3.94-1.91,31.49,31.49,0,0,0,3.18-3.91s-1.22,5.22-4.69,8a14.88,14.88,0,0,1-6,3.17L56.53,27c-.69.68-4.61,4.35-9.28,4.57A20.56,20.56,0,0,1,39.37,30.75Z"/><path class="cls-7" d="M53.15,18.28c3.21,3.66,5.64,7.08,6.92,11.94a17.12,17.12,0,0,1-1,10.24l.22-.1a.12.12,0,0,1,.07,0c1.93-1.05,3.89-3,7.87-7.27l0,.08v.05h0s0,0,0-.06l0-.08h0v0a.43.43,0,0,1,0-.12,1.47,1.47,0,0,1,.28-.9l0-.08a8.53,8.53,0,0,1,1.66-2,2.35,2.35,0,0,1,.26-.22s0-.05-.06-.07A24.29,24.29,0,0,1,63.9,18.09c-.35-1.72-.67-3.52-1.19-5.21a.09.09,0,0,1,0,0,3,3,0,0,1-.32.52c-.07.12-.15.24-.23.35s-.33.49-.5.72a9.31,9.31,0,0,1-.62.76l-.11.14,0-.13A15.42,15.42,0,0,1,55.66,17a5.29,5.29,0,0,0,2.54.64s0,0-.1.07h0A16,16,0,0,1,53.15,18.28Z"/><path class="cls-8" d="M.6,24.33c.05.05.08.07.09.07a1.34,1.34,0,0,1,.21.15c1.46,1.14,5.2.58,6.51.18s.8-.55,1.44-.86l.21-.09A14,14,0,0,0,7.14,27a2.14,2.14,0,0,1-.1.22,27,27,0,0,1-2.76,5.5l0,0v0l.06-.06h0l.18-.22c.15-.17.34-.37.55-.57a8.82,8.82,0,0,1,.81-.75s0,0,0,0c.27-.22.57-.47.89-.71s.69-.51,1.07-.76l.57-.37c.2-.12.4-.25.61-.35a10.4,10.4,0,0,1,3.6-1.37,13.37,13.37,0,0,1,3.24,0,4.12,4.12,0,0,1,.59.07c.31.05.62.1.94.18l.47.12c.31.11.62.21.91.34l.43.2a4.1,4.1,0,0,1,.4.23c.12.08.26.17.37.26a2.39,2.39,0,0,1,.51.45.43.43,0,0,1,.1.09,3.07,3.07,0,0,1,.95,1.44s0,0,0,0l-.11,0h0l-.12,0s0,0-.05,0l0,0a3,3,0,0,0-1.19.31h0a2.27,2.27,0,0,0-.51.34,1.77,1.77,0,0,0-.44.42s0,0,0,0a4.73,4.73,0,0,1,5.15,1.93c2.11,3,4.2,5.53,7.92,6.17,0,0,0,0-.07,0-1.13,0-2.05.09-3.3.1l.06,0c1.55.57,2,.84,2.75,1.1.16.06.36.11.57.19.55.16,1.28.35,2.49.61a38.66,38.66,0,0,0,9.59.68,35.73,35.73,0,0,0,9.45-1.52l.55-.18-.08.07a14.34,14.34,0,0,1-2,1.62,20.48,20.48,0,0,1-2.41,1.32,24.11,24.11,0,0,0,7-2.27,5.43,5.43,0,0,0,.59-.3c.61-.3,1.25-.65,2-1a.09.09,0,0,1,.07-.05,11.27,11.27,0,0,0,1.09-.68A41.2,41.2,0,0,1,50.68,41L53,39.94c-6.65,1.78-13.92-.84-13.92-.84a6.77,6.77,0,0,1,3.83-.64A32.9,32.9,0,0,0,35,36.27a8.9,8.9,0,0,0,6-2.1,14.85,14.85,0,0,1-6.14-2c7.13,2.56,9.59,0,9.59,0-6.74-.49-8-4.15-8-4.15a3,3,0,0,1,3,.8,3.09,3.09,0,0,0-2.8-1.95,14.91,14.91,0,0,1-2.76-.9c5.93,2.23,9.15-.89,9.15-.89-3.58-.23-7.49-2.72-7.9-3,3,1.52,4.61-.59,4.61-.59s-3.34-.24-4.17-3.16A3.58,3.58,0,0,0,33,15.73,4.48,4.48,0,0,0,32,15.58a4,4,0,0,1,.92,0,10.17,10.17,0,0,1,5.18,2.26,16.3,16.3,0,0,0-8.41-4.94c-.64-.16-1.28-.31-1.95-.44a3.43,3.43,0,0,1,1.2,2,7.4,7.4,0,0,0-1.52-.59A23.75,23.75,0,0,0,20,13.1c-.32,0-.63,0-.93.07a17.32,17.32,0,0,0-2.26.43c-.53.18-.77.23-1.22.41,0,0-.06,0-.09,0-3,1.43-5.46,3.83-8.67,4.77a1.88,1.88,0,0,0,.86.2,9.38,9.38,0,0,0,1.62-.24A14.38,14.38,0,0,0,5,22.08,6.25,6.25,0,0,1,.6,24.33Z"/><path class="cls-9" d="M6.79,18.8a1.88,1.88,0,0,0,.86.2,36.23,36.23,0,0,1,7.59-2.13c5.5-.86,6.71.37,6.94.72a3.92,3.92,0,0,0-2.62-1.67,6.54,6.54,0,0,0-3.41-.26c.1-.1,2-1.58,7.66-1.19a28.8,28.8,0,0,1,11.4,3.79s0-.31-2.19-2.53a1.74,1.74,0,0,1-.15-.13L32.25,15a13.8,13.8,0,0,0-2.61-2.05c-.63-.16-1.28-.31-1.95-.44a3.49,3.49,0,0,1,1.21,2,7.53,7.53,0,0,0-1.53-.59A23.84,23.84,0,0,0,19,13.17a17.32,17.32,0,0,0-2.26.43c-.53.18-.77.23-1.22.41,0,0-.06,0-.09,0C12.45,15.46,10,17.86,6.79,18.8Z"/><path class="cls-10" d="M.6,24.33c.05.05.08.07.09.07a1.34,1.34,0,0,1,.21.15c1.46,1.14,5.2.58,6.51.18s.8-.55,1.44-.86l.21-.09A14,14,0,0,0,7.14,27a44.91,44.91,0,0,1,5.44-2C16.49,24,30,29.92,30,29.92s.42-1.77-1.28-4.81a12.68,12.68,0,0,0-5.29-4.61,15.84,15.84,0,0,1,2.67,2.2,3.81,3.81,0,0,1,1.18,2.43A20.3,20.3,0,0,0,22,21.05a20.39,20.39,0,0,0-6.19-1.43l.6.89a5,5,0,0,0-2.75-.74,5.89,5.89,0,0,0-3.45,1s.48-.95,3-1.85a4.71,4.71,0,0,1,3.93,0s-.63-.74-2.72-.6a12.11,12.11,0,0,0-4.07,1.12s.66-1,4.26-2.43a9.81,9.81,0,0,1,6.76-.12c.05,0-.46-1.22-3-1.4a7.91,7.91,0,0,0-4.61,1.29s.6-1,3.44-2.53A13.23,13.23,0,0,1,20,13.1c-.32,0-.63,0-.93.07a17.32,17.32,0,0,0-2.26.43c-.53.18-.77.23-1.22.41,0,0-.06,0-.09,0-3,1.43-5.46,3.83-8.67,4.77a1.88,1.88,0,0,0,.86.2,9.38,9.38,0,0,0,1.62-.24A14.38,14.38,0,0,0,5,22.08,6.25,6.25,0,0,1,.6,24.33Z"/><path class="cls-11" d="M9.06,23.78a14.72,14.72,0,0,0-2,3.47c1.63-1.08,4.72-3.41,7.15-3.08,3.11.42,7.85,1.07,10.78,3l7.07-5.82a19.88,19.88,0,0,0-9.12-5.19A11.42,11.42,0,0,0,14.3,17c.78.17,1.47.29,2.27.41a19.86,19.86,0,0,0-4.83,1.48,21.84,21.84,0,0,0-5.91,5.23C7.28,23.69,9,23,10.39,22.61a6.35,6.35,0,0,0-1.54,1.26Z"/><path class="cls-12" d="M34.23,41.87A26.12,26.12,0,0,1,28.89,40l3.3-.11c-3.72-.64-5.81-3.15-7.93-6.17a4.71,4.71,0,0,0-5.17-1.92,3,3,0,0,1,2.17-1.11c.19,0,.19.11.34.12a3.43,3.43,0,0,0-1.13-1.63A27.24,27.24,0,0,0,27.54,14a9.5,9.5,0,0,1,1.33.54,3.31,3.31,0,0,0-1.18-2c4.58.86,8.52,2.67,11.3,6.54a5,5,0,0,1,.4-2.84A17.58,17.58,0,0,0,42,18a37.9,37.9,0,0,0-7.58,15A25.09,25.09,0,0,0,34.23,41.87Z"/><path class="cls-13" d="M.6,24.33c.05.05.08.08.1.08a1.06,1.06,0,0,1,.2.14c1.46,1.14,5.2.59,6.51.18s.71-.57,1.64-.93h0a6.12,6.12,0,0,0-.39.5,6,6,0,0,0-.36.52L8,25.34l-.06.11c-.24.44-.47.89-.68,1.34a2.29,2.29,0,0,0-.1.23c0,.08-.07.15-.1.22a27.38,27.38,0,0,1-2.76,5.52l0,0v0l.06-.07h0c.06-.07.12-.15.2-.23s.33-.36.54-.56l.29-.3a6.06,6.06,0,0,1,.52-.46s0,0,0,0l.9-.72c.33-.25.69-.51,1.07-.76l.57-.37c.2-.12.4-.24.61-.35a10.37,10.37,0,0,1,3.61-1.37,13.28,13.28,0,0,1,3.23,0,3.09,3.09,0,0,1,.59.08,6.47,6.47,0,0,1,.94.18,3.59,3.59,0,0,1,.47.12c.32.1.61.21.92.34.15.06.28.13.42.2a2.24,2.24,0,0,1,.4.22c.12.09.26.17.37.26a2.36,2.36,0,0,1,.42.36l.09.09s0,0,.05,0l.05.06.18.17a0,0,0,0,0,0,0,1.29,1.29,0,0,1,.15.17.66.66,0,0,1,.15.19l.08.1a4.39,4.39,0,0,1,.36.77s0,0,0,0h0s0,0,0,0l-.09,0h0a.61.61,0,0,0-.12-.05s0,0,0,0h0a2.77,2.77,0,0,0-.3,0l-.31.07a2.52,2.52,0,0,0-.58.21h0a1.75,1.75,0,0,0-.27.16,3.05,3.05,0,0,0-.49.38l-.2.22h0a4.28,4.28,0,0,1,2.77.11L22,32l.29.13a5.42,5.42,0,0,1,1.39,1,4.78,4.78,0,0,1,.54.65c.37.52.73,1,1.1,1.51s.6.76.91,1.11l.49.53a10.59,10.59,0,0,0,2.91,2.2,9,9,0,0,0,2.52.82h-.07c-.56,0-1.06,0-1.58.06l-.42,0c-.4,0-.83,0-1.29,0l.05,0,.17.07c1,.37,1.51.61,2,.81l.08,0,.53.2.57.18c.41.12.92.26,1.66.42a3.54,3.54,0,0,0,.38.09l.45.11a39.65,39.65,0,0,0,9.59.68,36.15,36.15,0,0,0,9.45-1.52l.55-.19-.08.07a15.16,15.16,0,0,1-2,1.63,19.08,19.08,0,0,1-2.41,1.31,23.81,23.81,0,0,0,7-2.27,5.43,5.43,0,0,0,.59-.3c.54-.27,1.11-.57,1.73-.91a.73.73,0,0,1,.12-.05.53.53,0,0,1,.1-.06l0,0h0A20.62,20.62,0,0,0,64,36.45s0,0,0,0c.92-.93,2-2,3.2-3.37,0,0,0,0,0,0s0,0,0,.06v0h0s0,0,0,0,0,0,0-.08h0v0s0,0,0,0v0h0v0h0a.31.31,0,0,1,0-.11,1.43,1.43,0,0,1,.32-.76.56.56,0,0,1,0-.08c.46-.68,1.24-1.48,1.65-2,0,0,0,0,0,0h0a2.39,2.39,0,0,0,.16-.22.13.13,0,0,1,0-.06h0A13.61,13.61,0,0,0,71,24.24l0-.13a1.55,1.55,0,0,0,0,.22h0c0,.82-.19.24,0,1.74a3.3,3.3,0,0,0,.37,1.11,4.53,4.53,0,0,0,4.31,2.45h.08a2.71,2.71,0,0,1-.52-.49A2.62,2.62,0,0,1,75,26.7a11.5,11.5,0,0,1,.87-2.21l.08-.19a27,27,0,0,0,1.16-2.86v-.09a9.57,9.57,0,0,0,.57-2.49v0a3.3,3.3,0,0,0,1.75,1.23s0,0,0,0a5.36,5.36,0,0,1-.84-2.55.63.63,0,0,0,0-.3c-.07-.64-.64-1.6-.73-2.11a.38.38,0,0,1,0-.2.15.15,0,0,1,.07-.11c.37-.26,3,1,3.92.67l.06,0a2.9,2.9,0,0,1-2-2.07,3.06,3.06,0,0,0-2.13-2.08s0,0,0,0a17.61,17.61,0,0,0,4.43-.54,19.8,19.8,0,0,1-6.54-1.26,9.63,9.63,0,0,1-2.7-1.7C71.22,6.16,69.72,3.6,68.52,2,67.81,1.1,67.17.42,66.42.67l-.13.06A43.26,43.26,0,0,1,72,11.27c2.8,7.83-2,11.87-2,11.87L69.62,21,67.8,25.09l.87-6.47a21.17,21.17,0,0,1-3.07,5,27.22,27.22,0,0,1-5.87,5.5,25,25,0,0,1-2.79,1.72C51,34,46.4,34.36,44.05,34.24h0A9.59,9.59,0,0,1,42.28,34l2.89,1.22s-4.72.29-10.54-3.26a29.17,29.17,0,0,1-5.32-4.26l-.13-.13-.84-.81h0c-.46-.44-.93-.83-1.39-1.19a21.94,21.94,0,0,0-2.55-1.75c-5.94-3.54-10.76-2.57-10.76-2.57a4.2,4.2,0,0,1,3.05.83s-1.3-.64-4.61-.08a29.38,29.38,0,0,0-6.16,2.06,13.39,13.39,0,0,1-1.73.53,6.26,6.26,0,0,1-3.39-.28Z"/><path class="cls-14" d="M.6,24.33c.05.05.08.08.1.08a1.06,1.06,0,0,1,.2.14c1.46,1.14,5.2.59,6.51.18s.71-.57,1.64-.93h0a6.12,6.12,0,0,0-.39.5,6,6,0,0,0-.36.52L8,25.34l-.06.11c-.24.44-.47.89-.68,1.34a2.29,2.29,0,0,0-.1.23c0,.08-.07.15-.1.22a27.38,27.38,0,0,1-2.76,5.52l0,0v0l.06-.07h0c.06-.07.12-.15.2-.23s.33-.36.54-.56l.29-.3a6.06,6.06,0,0,1,.52-.46s0,0,0,0l.9-.72c.33-.25.69-.51,1.07-.76l.57-.37c.2-.12.4-.24.61-.35a10.37,10.37,0,0,1,3.61-1.37,13.28,13.28,0,0,1,3.23,0,3.09,3.09,0,0,1,.59.08,6.47,6.47,0,0,1,.94.18,3.59,3.59,0,0,1,.47.12c.32.1.61.21.92.34.15.06.28.13.42.2a2.24,2.24,0,0,1,.4.22c.12.09.26.17.37.26a2.36,2.36,0,0,1,.42.36l.09.09s0,0,.05,0l.05.06.18.17.53.08a5.18,5.18,0,0,1,.82.22,8.82,8.82,0,0,1,3.74,2.71,22.18,22.18,0,0,0-1.69-3.41,6.79,6.79,0,0,0-3.39-2.62s.49.08,1.17.26h0l.6.15a12.34,12.34,0,0,1,2.18.83,10.49,10.49,0,0,1,2.85,2.3,7.88,7.88,0,0,0-.75-2.33,3.93,3.93,0,0,0-1.65-1.93,12.89,12.89,0,0,1,2.63,1.37,6.34,6.34,0,0,1,2.17,2.6,18.06,18.06,0,0,0-.87-2.24l-.84-.81h0c-.46-.44-.93-.83-1.39-1.19a21.94,21.94,0,0,0-2.55-1.75A19.19,19.19,0,0,0,20.42,22a14.5,14.5,0,0,0-6.81-.75,4.2,4.2,0,0,1,3.05.83s-1.3-.64-4.61-.08a29.38,29.38,0,0,0-6.16,2.06,13.39,13.39,0,0,1-1.73.53,6.26,6.26,0,0,1-3.39-.28Z"/><path class="cls-15" d="M.6,24.33c.05.05.08.08.1.08a1.06,1.06,0,0,1,.2.14c1.46,1.14,5.2.59,6.51.18s.71-.57,1.64-.93h0a6.12,6.12,0,0,0-.39.5,6,6,0,0,0-.36.52L8,25.34l-.06.11c-.24.44-.47.89-.68,1.34a2.29,2.29,0,0,0-.1.23c0,.08-.07.15-.1.22a27.38,27.38,0,0,1-2.76,5.52l0,0v0l.06-.07h0c.06-.07.12-.15.2-.23s.33-.36.54-.56l.29-.3a6.06,6.06,0,0,1,.52-.46s0,0,0,0l.9-.72c.33-.25.69-.51,1.07-.76l.57-.37c.2-.12.4-.24.61-.35a10.37,10.37,0,0,1,3.61-1.37,13.28,13.28,0,0,1,3.23,0,3.09,3.09,0,0,1,.59.08,6.47,6.47,0,0,1,.94.18,3.59,3.59,0,0,1,.47.12c.32.1.61.21.92.34.15.06.28.13.42.2a2.24,2.24,0,0,1,.4.22c.12.09.26.17.37.26a2.36,2.36,0,0,1,.42.36l.09.09s0,0,.05,0l.05.06.18.17.53.08A5.12,5.12,0,0,0,20,27.83a6.62,6.62,0,0,0-3.87-1.68,5.49,5.49,0,0,1,3.71-.38A8.77,8.77,0,0,1,22,26.83h0a5.37,5.37,0,0,1,.79.61,4.14,4.14,0,0,0-.19-.46,6.46,6.46,0,0,0-2-2.39,13.37,13.37,0,0,0-2.56-1.45A5.58,5.58,0,0,1,20.42,22a14.5,14.5,0,0,0-6.81-.75,4.2,4.2,0,0,1,3.05.83s-1.3-.64-4.61-.08a29.38,29.38,0,0,0-6.16,2.06,13.39,13.39,0,0,1-1.73.53,6.26,6.26,0,0,1-3.39-.28Z"/><path class="cls-16" d="M7.15,27a2.29,2.29,0,0,0-.1.23h0c1.64-1.08,4.73-3.4,7.15-3.08,3.11.43,7.85,1.07,10.78,3l1.94-1.59a21.94,21.94,0,0,0-2.55-1.75c-5.94-3.54-10.76-2.57-10.76-2.57a4.18,4.18,0,0,1,3.05.83s-1.3-.64-4.61-.08A29.08,29.08,0,0,0,5.9,24.06l-.07.08C7.28,23.68,9,23,10.39,22.6a6.71,6.71,0,0,0-1.54,1.27l.21-.09s0,0,0,0a5.72,5.72,0,0,0-.37.49c-.12.17-.25.34-.36.52L8,25.34l-.06.11c-.25.43-.47.89-.68,1.34C7.22,26.87,7.18,27,7.15,27Z"/><path class="cls-17" d="M5.42,31.55c.15-.15.33-.3.52-.46,0,0,0,0,0,0l.89-.72c.33-.25.69-.51,1.07-.75.17-.13.37-.25.57-.38s.4-.24.61-.35a10.37,10.37,0,0,1,3.61-1.37,13.36,13.36,0,0,1,3.24,0,3.1,3.1,0,0,1,.58.08,6.47,6.47,0,0,1,.94.18,3.59,3.59,0,0,1,.47.12c.32.11.62.21.92.34s.28.13.42.2a2.24,2.24,0,0,1,.4.22c.12.09.26.17.37.26a2.36,2.36,0,0,1,.42.36l.09.09.06,0a.21.21,0,0,1,0,.06l.19.18a1.29,1.29,0,0,1,.15.17.7.7,0,0,1,.16.19.86.86,0,0,1,.07.1,4.67,4.67,0,0,1,.37.77s0,0,0,0h0s0,0,0,0l-.09,0h0s-.07,0-.12,0l0,0h0l-.3,0-.31.07a2.45,2.45,0,0,0-.57.21h0a1.75,1.75,0,0,0-.27.16,2.59,2.59,0,0,0-.48.38,2.18,2.18,0,0,0-.21.22h0a4.32,4.32,0,0,1,2.78.11L22,32l.28.13a5.42,5.42,0,0,1,1.39,1,5.72,5.72,0,0,1,.55.65c.36.52.73,1,1.09,1.51s.6.76.91,1.11l.49.53a9.5,9.5,0,0,0,5.43,3h-.07c-.56,0-1.06,0-1.58.06l-.42,0c-.4,0-.82,0-1.29,0l.05,0,.18.07c1,.38,1.5.61,2,.81l.08,0,.53.2.57.18c.41.12.92.26,1.66.42a3.54,3.54,0,0,0,.38.09l.45.11a39.69,39.69,0,0,0,9.6.68,36.21,36.21,0,0,0,9.45-1.52l.54-.18a.23.23,0,0,0-.07.07,16.77,16.77,0,0,1-2,1.62,19.08,19.08,0,0,1-2.41,1.31,23.81,23.81,0,0,0,7-2.27,5.43,5.43,0,0,0,.59-.3c.54-.27,1.11-.57,1.73-.91l.12-.05a.53.53,0,0,1,.1-.06l0,0,0,0A21.07,21.07,0,0,0,64,36.45s0,0,0,0c.92-.93,2-2,3.2-3.37a0,0,0,0,1,0,0s0,0,0,0v0h0s0,0,0,0l0-.08h0a0,0,0,0,0,0,0s0,0,0,0v0h0v0h0a.31.31,0,0,1,0-.11,1.51,1.51,0,0,1,.32-.76.56.56,0,0,1,0-.08c.46-.67,1.25-1.48,1.65-2a0,0,0,0,1,0,0h0a1,1,0,0,0,.16-.22l0-.06h0A13.61,13.61,0,0,0,71,24.24l0-.13a1.55,1.55,0,0,0,0,.22h0c0,.82-.19.24,0,1.74a3.26,3.26,0,0,0,.36,1.11,4.53,4.53,0,0,0,4.31,2.45h.08a2.71,2.71,0,0,1-.52-.49A2.59,2.59,0,0,1,75,26.7a10.83,10.83,0,0,1,.86-2.21s.05-.12.09-.19a28.55,28.55,0,0,0,1.15-2.86l0-.09a10.46,10.46,0,0,0,.57-2.49v0a3.34,3.34,0,0,0,1.75,1.23s0,0,0,0a5.27,5.27,0,0,1-.85-2.55.58.58,0,0,0,0-.29c-.07-.65-.63-1.61-.73-2.12a.36.36,0,0,1,0-.2.12.12,0,0,1,.06-.11c.38-.26,3,1,3.92.67l.06,0a2.87,2.87,0,0,1-2-2.07,3.09,3.09,0,0,0-2.14-2.08l0,0a17.48,17.48,0,0,0,4.42-.54,19.8,19.8,0,0,1-6.54-1.26,9.77,9.77,0,0,1-2.7-1.7C71.22,6.16,69.72,3.6,68.52,2,67.81,1.1,67.17.42,66.43.67l-.14.06A43.24,43.24,0,0,1,72,11.27c2.79,7.83-2,11.87-2,11.87L69.63,21,67.8,25.09l.87-6.47a21.31,21.31,0,0,1-3.06,5,27.54,27.54,0,0,1-5.88,5.5,25,25,0,0,1-2.79,1.72C51,34,46.41,34.36,44.05,34.24a20.12,20.12,0,0,0,9.42-.73c7.36-2.11,11-5.53,11-5.53a22.47,22.47,0,0,1-4,5.77A19.16,19.16,0,0,1,55.2,37s1.29.51,4.55-1.05a28.56,28.56,0,0,0,5.41-3.39c-.24.3-3.52,4.45-6.83,6.11s-8.55,1.68-8.55,1.68l2-1.91c-.27.19-4.65,3.18-11.6,1.67-7.17-1.57-9.53-3.62-9.53-3.62L32,38.34a9.56,9.56,0,0,1-5.26-4.27c-1.6-3.15-2.82-3.49-2.83-3.49l2.77.4s-6.35-5.7-12.31-5.18C10.63,26.13,7.34,29.27,5.42,31.55Z"/><path class="cls-18" d="M.61,24.33c.05.05.07.08.09.08l.2.14c1.46,1.14,5.21.59,6.51.18s.72-.57,1.64-.93h0c-.14.16-.26.33-.39.5s-.25.34-.36.52L8,25.34l-.06.11c-.24.44-.46.89-.68,1.34,0,.08-.07.16-.1.23s-.07.15-.1.22a27.38,27.38,0,0,1-2.76,5.52l0,0v0l.06-.07h0c.06-.07.11-.15.19-.23s.33-.36.54-.56l.29-.3c.15-.15.33-.3.52-.46,0,0,0,0,0,0l.89-.72c.33-.25.69-.51,1.07-.75.17-.13.37-.25.57-.38s.4-.24.61-.35a10.37,10.37,0,0,1,3.61-1.37,13.36,13.36,0,0,1,3.24,0,3.1,3.1,0,0,1,.58.08,6.47,6.47,0,0,1,.94.18,3.59,3.59,0,0,1,.47.12c.32.11.62.21.92.34s.28.13.42.2a2.24,2.24,0,0,1,.4.22c.12.09.26.17.37.26a2.36,2.36,0,0,1,.42.36l.09.09.06,0a.21.21,0,0,1,0,.06l.19.18a1.29,1.29,0,0,1,.15.17.7.7,0,0,1,.16.19.86.86,0,0,1,.07.1,4.67,4.67,0,0,1,.37.77s0,0,0,0h0s0,0,0,0l-.09,0h0s-.07,0-.12,0l0,0h0l-.3,0-.31.07a2.45,2.45,0,0,0-.57.21h0a1.75,1.75,0,0,0-.27.16,2.59,2.59,0,0,0-.48.38,2.18,2.18,0,0,0-.21.22h0a4.32,4.32,0,0,1,2.78.11L22,32l.28.13a5.42,5.42,0,0,1,1.39,1,5.72,5.72,0,0,1,.55.65c.36.52.73,1,1.09,1.51s.6.76.91,1.11l.49.53a10.59,10.59,0,0,0,2.91,2.2A2.51,2.51,0,0,0,31.37,39s-4.47-1.72-5.57-5a7.25,7.25,0,0,0-3.71-4.05l.78.34a10.86,10.86,0,0,0-7.41-3.73A14.52,14.52,0,0,0,7,28.66a14.44,14.44,0,0,1,4.6-4.6c2.77-1.52,7.11-1,7.11-1L17.5,21.94a19.72,19.72,0,0,1,5.2,1.55,34.23,34.23,0,0,1,5.61,3.27,16.6,16.6,0,0,0-1.39-1.19,21.94,21.94,0,0,0-2.55-1.75c-5.94-3.54-10.76-2.57-10.76-2.57a4.18,4.18,0,0,1,3.05.83s-1.3-.64-4.61-.08A29.08,29.08,0,0,0,5.9,24.06a14.07,14.07,0,0,1-1.74.54,6.31,6.31,0,0,1-3.38-.29Z"/><path class="cls-19" d="M19.08,31.84a4.48,4.48,0,0,1,2.81.09L22,32l.28.13a5.42,5.42,0,0,1,1.39,1,4.86,4.86,0,0,1,.54.66c.37.52.74,1,1.1,1.5s.6.76.91,1.11l.49.53a9.5,9.5,0,0,0,5.43,3h0c-.54,0-1.09,0-1.62.06l-.42,0-1.22,0a1.19,1.19,0,0,0,.16.08,18.76,18.76,0,0,0,2,.81l.08,0c.92.31,1.84.57,2.76.8.13.05.25.07.38.11s0,0,0,0A25.45,25.45,0,0,1,34.37,33c.09-.34.17-.67.26-1a29.51,29.51,0,0,1-5.32-4.26,24.07,24.07,0,0,0-4.94-3.89,28.79,28.79,0,0,1-3.9,5.41l.15.13.23.24a1.29,1.29,0,0,1,.15.17c.06.06.11.13.16.19a.86.86,0,0,1,.07.1,2.5,2.5,0,0,1,.37.77s0,0,0,0h0a.18.18,0,0,1-.11,0h0a.25.25,0,0,0-.17-.07h0l-.31,0-.31.07a2.89,2.89,0,0,0-.58.22h0a1.75,1.75,0,0,0-.27.16,2.59,2.59,0,0,0-.48.38l-.2.22h0S19.08,31.83,19.08,31.84Z"/><path class="cls-20" d="M11.74,25.26a8.08,8.08,0,0,1,4.45-1.5,14.65,14.65,0,0,1,4.44.35c-.21-.37-.4-.74-.6-1.11a30,30,0,0,1,8.16,5.86,42.56,42.56,0,0,0-6.92-4.2l.44.7A15.68,15.68,0,0,0,11.74,25.26Z"/><path class="cls-21" d="M68.11,8.32a10.58,10.58,0,0,1-3,6.49c.15-1.1.31-2.18.45-3.25a14.82,14.82,0,0,1-4.33,6,11.78,11.78,0,0,1-6,2.61c.43.08.85.18,1.29.28a14.76,14.76,0,0,1-7,2.3,12.66,12.66,0,0,1-7.66-2.06A9,9,0,0,0,42.39,24a17.19,17.19,0,0,1-6-3.17c.12.8.24,1.6.37,2.39a46.76,46.76,0,0,0-4-3.93,15.23,15.23,0,0,0-5.21-2.46l1.48,0a14.92,14.92,0,0,0-6.64-2.65A16,16,0,0,0,15.58,14,13.92,13.92,0,0,1,19,13.21c3.54-.21,6.75-.16,9.9,1.3a3.39,3.39,0,0,0-1.18-2c4.58.87,8.51,2.67,11.3,6.54a5,5,0,0,1,.4-2.83,16.66,16.66,0,0,0,12.2,3.91c.24,0,.72-.13,1-.17A3,3,0,0,1,51,17.85a13.29,13.29,0,0,0,7.08-.09c.09,0,.12-.07.1-.07a5.24,5.24,0,0,1-2.53-.63,15.74,15.74,0,0,0,5.25-1.76s0,.15,0,.08c2.42-2.5,4.13-7.79,4-10.59S64.48,1.67,66.4.66c.71-.38,1.61.82,2,1.27A41.25,41.25,0,0,1,68.11,8.32Z"/><path class="cls-22" d="M75.74,29.64l0,0v0l.15.12A.5.5,0,0,0,75.74,29.64Z"/><path class="cls-23" d="M5.94,31.09a10.35,10.35,0,0,0-.81.75,5.84,5.84,0,0,0-.5.59C4.23,33,5.46,32,5.94,31.09Z"/><path class="cls-24" d="M29.38,18.21a17,17,0,0,0-3.9.34v-.3A4.84,4.84,0,0,1,28,19.66h0c.48.19,1,.37,1.45.54l-.08.17a11.55,11.55,0,0,0-5.46-.25l0-.32a4.31,4.31,0,0,1,1.31.72A2.35,2.35,0,0,1,26,21.77s0,0,0,0,0,0,0,0a2.48,2.48,0,0,0-.88-1.09,4.52,4.52,0,0,0-1.28-.59.15.15,0,0,1-.11-.2.18.18,0,0,1,.13-.12h0a14.64,14.64,0,0,1,2.82-.23,6.8,6.8,0,0,1,2.76.64h0a.11.11,0,0,1,0,.13.09.09,0,0,1-.12.05c-.47-.22-.94-.42-1.42-.62h0a5.43,5.43,0,0,0-1.15-.81,4.15,4.15,0,0,0-1.32-.38.15.15,0,0,1-.14-.16.17.17,0,0,1,.13-.14,9.08,9.08,0,0,1,3.95-.07s0,0,0,0A0,0,0,0,1,29.38,18.21Z"/><path d="M46.28,26.48a3.07,3.07,0,0,1-1.53.4c-.53,0-1-.13-1.57-.12l.08-.16a6,6,0,0,0,1.24.86c.44.22.91.41,1.41.61,0,0,0,0,0,0h0a3.32,3.32,0,0,1-1.57-.31,3,3,0,0,1-1.21-1.06l0,0a.1.1,0,0,1,0-.13.09.09,0,0,1,.07,0,3.17,3.17,0,0,0,1.53,0c.51-.06,1-.11,1.54-.14,0,0,0,0,0,0Z"/><path d="M49.8,32.08a3.89,3.89,0,0,1-1.15,1.17,5.61,5.61,0,0,1-1.51.65l0-.12a6.49,6.49,0,0,0,1.31-.2l1.29-.3,2.57-.62a0,0,0,0,1,0,0v0a8.33,8.33,0,0,1-2.5.95,10.08,10.08,0,0,1-1.33.17c-.45,0-.9,0-1.34.08a.06.06,0,1,1,0-.12A9.86,9.86,0,0,0,48.48,33a12.44,12.44,0,0,0,1.29-.94h0Z"/><path d="M59.08,29a2,2,0,0,1-.26,1.37,4.66,4.66,0,0,1-.89,1.08l-.17-.25c.79-.36,1.58-.72,2.33-1.15a11,11,0,0,0,2-1.62.1.1,0,0,1,.16,0,.11.11,0,0,1,0,.08h0a2.62,2.62,0,0,1-.45,1.24,6.71,6.71,0,0,1-.86,1l-.18-.32A17.29,17.29,0,0,0,65,28.13h0v0a10.73,10.73,0,0,1-4.12,2.64.18.18,0,0,1-.23-.12.18.18,0,0,1,0-.19,3.71,3.71,0,0,0,1.34-2l.18.09c-.68.55-1.39,1.07-2.1,1.57a10,10,0,0,1-2.29,1.32h0a.16.16,0,0,1-.2-.08.15.15,0,0,1,0-.18A3.15,3.15,0,0,0,59.05,29a0,0,0,0,1,0,0Z"/><path d="M68,13.18a12.27,12.27,0,0,1-.47,1.37.14.14,0,0,1-.19.08.16.16,0,0,1-.09-.12h0a3.1,3.1,0,0,0-1.11-2.05l.09-.06c.12.3.25.59.4.89a0,0,0,0,1,0,.05v0a3.56,3.56,0,0,1-1.71,2h0a.18.18,0,0,1-.25-.07.15.15,0,0,1,0-.13,2.44,2.44,0,0,0,.08-1,4,4,0,0,0-.32-1s0,0,0,0h0a2.83,2.83,0,0,1,.55,1,2.25,2.25,0,0,1,0,1.18l-.27-.2a4.48,4.48,0,0,0,1.71-1.8v.07c-.09-.31-.2-.62-.31-.92a.05.05,0,0,1,0-.07s0,0,0,0a6.36,6.36,0,0,1,.92.88,2,2,0,0,1,.41,1.24l-.28-.05a12,12,0,0,1,.7-1.27h0Z"/><path d="M75.13,17.27c-.08.4-.2.75-.26,1.11a2.4,2.4,0,0,0-.1,1.13.07.07,0,0,1,0,.07h0a5.11,5.11,0,0,1-.76-.23,2.19,2.19,0,0,1-.69-.44,2,2,0,0,1-.59-1.47,0,0,0,0,1,0,0h0a4.12,4.12,0,0,0,.83,1.21,2.76,2.76,0,0,0,.56.45,3,3,0,0,0,.65.37l-.08.07a5.31,5.31,0,0,1-.08-1.2,2.09,2.09,0,0,1,.54-1.08h0Z"/><path class="cls-25" d="M30.65,32.35a3.59,3.59,0,0,1-1.65.3,5.93,5.93,0,0,0-.84-.06c-.28,0-.56,0-.84,0l.14-.21c.47.62,1.34.78,2.13,1.15a0,0,0,0,1,0,0h0a3.91,3.91,0,0,1-1.31-.18,1.82,1.82,0,0,1-1.06-.87v0a.14.14,0,0,1,.06-.18.1.1,0,0,1,.09,0,4.55,4.55,0,0,0,.82.15A2.85,2.85,0,0,0,29,32.4a7,7,0,0,1,1.65-.09l0,0S30.66,32.34,30.65,32.35Z"/><path class="cls-25" d="M13.47,24.13c-.3.2-.59.36-.85.56a7.32,7.32,0,0,0-.83.58l-.06-.09a7.71,7.71,0,0,0,.82-.24,4.85,4.85,0,0,1,.85-.13,4.18,4.18,0,0,1,1.68.24s0,0,0,0a0,0,0,0,1,0,0,15.86,15.86,0,0,1-1.67.09h-.82a2.9,2.9,0,0,0-.83.1.06.06,0,0,1-.07,0,0,0,0,0,1,0-.05h0a3.33,3.33,0,0,1,.73-.77,2,2,0,0,1,1-.32,0,0,0,0,1,0,0Z"/><path class="cls-24" d="M15.81,15.59c-.21.22-.42.41-.62.6s-.4.38-.6.59l-.09-.12a6.25,6.25,0,0,0,.86-.18,3.76,3.76,0,0,1,.88-.14,4.46,4.46,0,0,1,1.73.28s0,0,0,0h0a10.06,10.06,0,0,1-1.73.05l-.86,0a2,2,0,0,0-.84.15.1.1,0,0,1-.1,0s0-.05,0-.06v0A1.83,1.83,0,0,1,15,16a2,2,0,0,1,.8-.41s0,0,0,0Z"/><path class="cls-26" d="M24.75,15c-2.42-.39-5.22-.84-7.58-.3s-4,1.91-5.75,3.33c.45.07.84.15,1.29.2A11.45,11.45,0,0,0,9,20c-1.45,1-3.22,3-5,3.87a6.37,6.37,0,0,1-3.09.66c-.23,0-.08-.13-.25-.16A6.4,6.4,0,0,0,5,22.09a14.18,14.18,0,0,1,4.31-3.32,4,4,0,0,1-2.47,0c3.21-.94,5.66-3.34,8.67-4.76l.09,0a7.71,7.71,0,0,1,1.16-.37A16.4,16.4,0,0,1,24.75,15Z"/><path class="cls-27" d="M17.31,23.72c-.06.63-1,.65-1.48.59s-1.42-.3-1.39-.91,1-.65,1.49-.6S17.37,23.08,17.31,23.72Z"/><path class="cls-28" d="M16.58,22.36c0,.3-.39.37-.63.34s-.59-.16-.58-.45.39-.36.63-.34S16.6,22.07,16.58,22.36Z"/><path class="cls-29" d="M31.6,30.06a29.23,29.23,0,0,0,7.33,3.16L38.28,32a31.53,31.53,0,0,0,8.13,1.31,30.54,30.54,0,0,1-6.69,0c1.09.81,2.21,1.56,3.34,2.33A21.32,21.32,0,0,1,31.6,30.06Z"/><path class="cls-30" d="M61.79,18.08a29.19,29.19,0,0,1-10.09,5.7l.41-.73a16.81,16.81,0,0,1-8.59-.46c2.16,1.37,4.6,1.52,7.09,1.42-.43.77-.88,1.52-1.31,2.29C54,24.33,58.36,21.86,61.79,18.08Z"/><path class="cls-31" d="M54.7,24c.19.52-.79,1.07-1.14,1.25s-1.34.65-1.53.13.8-1.06,1.14-1.24S54.5,23.47,54.7,24Z"/><path class="cls-32" d="M54.55,25.34c.09.24-.32.48-.48.57s-.58.27-.67,0,.32-.48.48-.57S54.46,25.1,54.55,25.34Z"/><path class="cls-33" d="M78.58,17.5a5.35,5.35,0,0,0,.83,2.59,3.32,3.32,0,0,1-1.77-1.24,19.14,19.14,0,0,1-1.84,5.68c-.91,1.9-1.69,3.67-.08,5.16A3,3,0,0,1,73.9,27a11.09,11.09,0,0,1,1.74-5.66c0,.39,0,.85,0,1.27a6.76,6.76,0,0,0,1.19-3.81,13.68,13.68,0,0,0-.54-4.07c.37.73.75,1.46,1.13,2.19-.23-1.1-.46-2.2-.68-3.31a6.21,6.21,0,0,0,3.79,1.11,3.29,3.29,0,0,0,1.26.74c-.89.36-3.6-.91-4-.65S78.69,16.72,78.58,17.5Z"/><path class="cls-34" d="M60.07,30.23a17.17,17.17,0,0,1-1,10.23l.12-.05.1,0s0,0,0,0l0,0A21.07,21.07,0,0,0,64,36.45c.91-.94,2-2.05,3.22-3.41l0,0s0,0,0,0v0h0s0,0,0,0l0-.08v0h0a0,0,0,0,0,0,0s0-.06,0-.09a1.51,1.51,0,0,1,.27-.9.56.56,0,0,1,0-.08,8.21,8.21,0,0,1,1.65-2,0,0,0,0,1,0,0h0a1.13,1.13,0,0,1,.26-.2.24.24,0,0,0-.06-.08,24.7,24.7,0,0,1-3.83-6,27.54,27.54,0,0,1-5.88,5.5C59.86,29.47,60,29.84,60.07,30.23Z"/></g></g></g></svg>