<svg xmlns="http://www.w3.org/2000/svg" xmlns:xlink="http://www.w3.org/1999/xlink" viewBox="0 0 76.31 38.33"><defs><style>.cls-1{isolation:isolate;}.cls-2{fill:url(#linear-gradient);}.cls-3{fill:#17154a;}.cls-4{fill:url(#linear-gradient-2);}.cls-5{fill:#fff;}.cls-6{fill:#c9c9c9;}.cls-10,.cls-14,.cls-16,.cls-17,.cls-22,.cls-23,.cls-24,.cls-25,.cls-26,.cls-7,.cls-9{mix-blend-mode:overlay;}.cls-7{fill:url(#linear-gradient-3);}.cls-15,.cls-8{mix-blend-mode:multiply;}.cls-8{fill:url(#linear-gradient-4);}.cls-9{fill:url(#linear-gradient-5);}.cls-10{fill:url(#linear-gradient-6);}.cls-11{fill:url(#linear-gradient-7);}.cls-12{fill:#4a1516;}.cls-13{fill:url(#linear-gradient-8);}.cls-14{fill:url(#linear-gradient-9);}.cls-15{fill:url(#linear-gradient-10);}.cls-16{fill:url(#linear-gradient-11);}.cls-17{fill:url(#linear-gradient-12);}.cls-18{fill:url(#linear-gradient-13);}.cls-19{fill:url(#linear-gradient-14);}.cls-20{fill:#301213;}.cls-21{fill:url(#linear-gradient-15);}.cls-22{fill:url(#linear-gradient-16);}.cls-23{fill:url(#linear-gradient-17);}.cls-24{fill:url(#linear-gradient-18);}.cls-25{fill:url(#linear-gradient-19);}.cls-26{fill:url(#linear-gradient-20);}.cls-27{fill:url(#linear-gradient-21);}.cls-28{fill:url(#linear-gradient-22);}</style><linearGradient id="linear-gradient" x1="-1119.9" y1="24.52" x2="-1107.78" y2="48.04" gradientTransform="matrix(-1, 0.04, 0.04, 1, -1046.16, 19.46)" gradientUnits="userSpaceOnUse"><stop offset="0" stop-color="#3641ba"/><stop offset="1" stop-color="#000721"/></linearGradient><linearGradient id="linear-gradient-2" x1="-1113.23" y1="38.48" x2="-1118.1" y2="38.91" gradientTransform="matrix(-1, 0.04, 0.04, 1, -1046.83, 18.42)" gradientUnits="userSpaceOnUse"><stop offset="0" stop-color="#c2ecff"/><stop offset="1" stop-color="#fff" stop-opacity="0"/></linearGradient><linearGradient id="linear-gradient-3" x1="-1118.14" y1="24.64" x2="-1105.92" y2="52.51" gradientTransform="matrix(-1, 0.04, 0.04, 1, -1046.16, 19.46)" gradientUnits="userSpaceOnUse"><stop offset="0" stop-color="#fff"/><stop offset="1" stop-color="#fff" stop-opacity="0"/></linearGradient><linearGradient id="linear-gradient-4" x1="-1117.4" y1="37.29" x2="-1107.68" y2="44.81" gradientTransform="matrix(-1, 0.04, 0.04, 1, -1046.16, 19.46)" gradientUnits="userSpaceOnUse"><stop offset="0"/><stop offset="1" stop-color="#fff" stop-opacity="0"/></linearGradient><linearGradient id="linear-gradient-5" x1="-1108.18" y1="32.33" x2="-1101.89" y2="39.24" gradientTransform="matrix(-0.83, -0.55, -0.55, 0.83, -843.52, -624.79)" xlink:href="#linear-gradient-3"/><linearGradient id="linear-gradient-6" x1="-1107.58" y1="35" x2="-1103.94" y2="38.99" gradientTransform="matrix(-0.83, -0.55, -0.55, 0.83, -842.58, -624.84)" xlink:href="#linear-gradient-3"/><linearGradient id="linear-gradient-7" x1="13.61" y1="-17.79" x2="25.73" y2="5.73" gradientTransform="translate(-11.83 19.46) rotate(2.14)" gradientUnits="userSpaceOnUse"><stop offset="0" stop-color="#ba3637"/><stop offset="1" stop-color="#210000"/></linearGradient><linearGradient id="linear-gradient-8" x1="21.09" y1="-1.78" x2="15.56" y2="-1.29" gradientTransform="translate(-11.16 18.42) rotate(2.02)" gradientUnits="userSpaceOnUse"><stop offset="0" stop-color="#ffc2c2"/><stop offset="1" stop-color="#fff" stop-opacity="0"/></linearGradient><linearGradient id="linear-gradient-9" x1="15.37" y1="-17.67" x2="27.6" y2="10.2" gradientTransform="translate(-11.83 19.46) rotate(2.14)" xlink:href="#linear-gradient-3"/><linearGradient id="linear-gradient-10" x1="16.11" y1="-5.02" x2="25.83" y2="2.51" gradientTransform="translate(-11.83 19.46) rotate(2.14)" xlink:href="#linear-gradient-4"/><linearGradient id="linear-gradient-11" x1="25.34" y1="-9.97" x2="31.63" y2="-3.06" gradientTransform="translate(-4.97 -6.01) rotate(56.59)" xlink:href="#linear-gradient-3"/><linearGradient id="linear-gradient-12" x1="25.94" y1="-7.31" x2="29.57" y2="-3.32" gradientTransform="translate(-4.03 -4.96) rotate(56.59)" xlink:href="#linear-gradient-3"/><linearGradient id="linear-gradient-13" x1="25.87" y1="14.15" x2="26.1" y2="28.63" gradientTransform="matrix(1, 0, 0, 1, 0, 0)" xlink:href="#linear-gradient-7"/><linearGradient id="linear-gradient-14" x1="-1439.6" y1="14.15" x2="-1439.37" y2="28.63" gradientTransform="matrix(-1, 0, 0, 1, -1389.18, 0)" xlink:href="#linear-gradient"/><linearGradient id="linear-gradient-15" x1="44.01" y1="33.92" x2="44.01" y2="19.01" gradientTransform="matrix(1, 0, 0, 1, 0, 0)" xlink:href="#linear-gradient"/><linearGradient id="linear-gradient-16" x1="26.35" y1="11.15" x2="26.76" y2="37.33" gradientTransform="matrix(1, 0, 0, 1, 0, 0)" xlink:href="#linear-gradient-3"/><linearGradient id="linear-gradient-17" x1="28.48" y1="11.32" x2="28.92" y2="38.94" gradientTransform="matrix(1, 0, 0, 1, 0, 0)" xlink:href="#linear-gradient-3"/><linearGradient id="linear-gradient-18" x1="-1430.83" y1="14.1" x2="-1430.59" y2="29.43" gradientTransform="matrix(-1, 0, 0, 1, -1381.75, 0)" xlink:href="#linear-gradient-3"/><linearGradient id="linear-gradient-19" x1="-1426.46" y1="14.63" x2="-1426.22" y2="29.96" gradientTransform="matrix(-1, 0, 0, 1, -1381.75, 0)" xlink:href="#linear-gradient-3"/><linearGradient id="linear-gradient-20" x1="43.38" y1="26.64" x2="44.38" y2="40.04" gradientUnits="userSpaceOnUse"><stop offset="0.42"/><stop offset="1" stop-opacity="0"/></linearGradient><linearGradient id="linear-gradient-21" x1="26.81" y1="13.77" x2="28.68" y2="20.44" gradientUnits="userSpaceOnUse"><stop offset="0" stop-color="#3e2929"/><stop offset="1" stop-color="#000721"/></linearGradient><linearGradient id="linear-gradient-22" x1="-1070.28" y1="13.77" x2="-1068.41" y2="20.44" gradientTransform="matrix(-1, 0, 0, 1, -1021.98, 0)" xlink:href="#linear-gradient-21"/></defs><g class="cls-1"><g id="Layer_2" data-name="Layer 2"><g id="Layer_1-2" data-name="Layer 1"><path class="cls-2" d="M60.07,31.71c-3.52,0-8-.67-9.23-3.89-.71-1.81-.27-4.21,1.3-7.13C56.69,12.24,66.82,5.56,70.63,3c.62-.4,1.05-.69,1.24-.84.43-.34.81-.69,1.13-1,.61-.56,1-.94,1.4-.94a.53.53,0,0,1,.44.23c.13.17.41.54-.59,3.48a.91.91,0,0,1,.37-.09A.48.48,0,0,1,75,4a.53.53,0,0,1,.13.42,9.82,9.82,0,0,1-.17,1.26h.14a.53.53,0,0,1,.56.54l0,.35c.43,7,.89,19.12-.9,21.52a3,3,0,0,1-1,.77c-2.47,1.37-8.56,2.83-13.68,2.83Z"/><path class="cls-3" d="M74.39.55a.31.31,0,0,1,.24.12c.38.51-.82,3.74-.88,3.92a2.07,2.07,0,0,1,.87-.43c.13,0,.22.08.21.28a16.07,16.07,0,0,1-.26,1.68,1.39,1.39,0,0,1,.5-.14.24.24,0,0,1,.28.27c0,.53,1.32,18.82-.82,21.7a3,3,0,0,1-.91.69c-2.35,1.3-8.31,2.8-13.55,2.8-4.18,0-7.9-1-9-3.72-.64-1.61-.35-3.86,1.28-6.9C57.66,11,70.68,3.49,72,2.42c1.14-.9,1.9-1.87,2.35-1.87m0-.55c-.49,0-.92.4-1.58,1A14.26,14.26,0,0,1,71.7,2c-.18.15-.64.45-1.22.83-3.83,2.53-14,9.24-18.58,17.75-1.61,3-2,5.47-1.32,7.36,1,2.66,4.31,4.07,9.49,4.07s11.31-1.49,13.82-2.87A3.31,3.31,0,0,0,75,28.27c1.84-2.47,1.39-14.65,1-21.7,0-.19,0-.3,0-.34a.8.8,0,0,0-.64-.79,8.23,8.23,0,0,0,.11-1,.83.83,0,0,0-.2-.63.73.73,0,0,0-.51-.22c.87-2.67.58-3.05.4-3.28A.82.82,0,0,0,74.39,0Z"/><path class="cls-4" d="M64.5,28.18a5.28,5.28,0,0,1-4.13-8.3c3.52-5,9.11-12.78,10.28-12.78,1.74,0,2.63,17.9.69,19.65C70.44,27.57,67.47,28.26,64.5,28.18Z"/><path class="cls-5" d="M68.4,26.9a11.17,11.17,0,0,1-1.14-.06c-.48-.05-1-.07-1.46-.09-2.1-.07-4.27-.15-6.22-2.69l0,0V24c0-.07.28-6.5,4.38-10.31.31-.29.56-.59.79-.85A2.69,2.69,0,0,1,65.6,12a1.28,1.28,0,0,1,.46-.1.48.48,0,0,1,.45.24c.36.62-.56,2.5-1.17,3.62,1.46-.92,2.65-1.61,3.54-2.06a10.46,10.46,0,0,1,3.19-1.19.41.41,0,0,1,.31.11l.06.07v.16c0,.12-.08.35-3.6,3.94,2.17-1.29,2.66-1.48,2.83-1.48h.14l.07.15c0,.11.09.32-3.42,4.29A14.44,14.44,0,0,1,72,19c.83,0,1.28.24,1.34.72.15,1.19-1.54,2.13-2.4,2.52,1.36.41,4,1.31,3.94,2.19,0,.69-2.92,2.44-6.47,2.44Z"/><path class="cls-6" d="M66.06,12c1.22,0-1.12,4-1.24,4.23.15-.1,2.48-1.61,4.14-2.45a10.49,10.49,0,0,1,3.11-1.17c.13,0,.2,0,.18.12-.08.37-4.31,4.62-4.57,4.88a34.67,34.67,0,0,1,4-2.2s0,0,0,0a57.73,57.73,0,0,1-3.82,4.61A17.05,17.05,0,0,1,72,19.21c.64,0,1.11.15,1.16.57.18,1.42-2.77,2.52-2.77,2.52s4.34,1.22,4.31,2.16c0,.52-2.78,2.26-6.29,2.26a10.65,10.65,0,0,1-1.12-.06c-2.47-.27-5.19.36-7.56-2.71,0,0,.23-6.38,4.33-10.17.75-.7,1.15-1.46,1.62-1.65a1.17,1.17,0,0,1,.39-.09m0-.36a1.43,1.43,0,0,0-.53.11,2.89,2.89,0,0,0-1,.88,9.51,9.51,0,0,1-.77.84c-4.16,3.85-4.43,10.16-4.44,10.43v.13l.08.11c2,2.6,4.32,2.68,6.36,2.76.5,0,1,0,1.45.08a11.12,11.12,0,0,0,1.16.06c3.52,0,6.62-1.75,6.65-2.61s-2-1.71-3.62-2.24c.94-.48,2.22-1.37,2.08-2.5,0-.4-.35-.88-1.52-.88a12.92,12.92,0,0,0-3,.51c3.16-3.58,3.1-3.78,3-4L72,15.1l-.31,0h0c-.13,0-.31,0-1.74.82,2.62-2.69,2.67-2.9,2.7-3.05a.43.43,0,0,0-.09-.38.55.55,0,0,0-.45-.18,10.85,10.85,0,0,0-3.28,1.2c-.56.29-1.5.8-3,1.71.67-1.3,1.17-2.62.85-3.19a.66.66,0,0,0-.61-.33Z"/><path class="cls-7" d="M51.1,27.72a31.56,31.56,0,0,1,5-11.31C60.32,10.72,71.39,3.63,71.89,3.25s1.45-1.94,1.94-1.86-.74,3.71-.8,3.9c.1-.1.8-.81,1-.36s-.35,2.45-.35,2.45.73-.8,1-.32,2,18-1.1,21.58a3,3,0,0,0,.91-.69c2.14-2.88.84-21.17.82-21.7s-.78-.13-.78-.13a16.07,16.07,0,0,0,.26-1.68c0-.66-1,.07-1.08.15.06-.18,1.26-3.41.88-3.92S73.41,1.34,72,2.42,57.66,11,52.38,20.82C50.75,23.86,50.46,26.11,51.1,27.72Z"/><path class="cls-8" d="M59.72,22.12a10.94,10.94,0,0,0,7.56,4.54c.53-1-1.2-2.45-1.2-2.45s2.25.15,2.48-1-4.22-2-4.22-2,2.65-2.06,2-2.62S63,20.05,63,20.05a32,32,0,0,0,1.49-4.14c.41-1.34,0-1.9-.47-2.13A57.33,57.33,0,0,0,59.72,22.12Z"/><ellipse class="cls-9" cx="59.95" cy="13.39" rx="1.68" ry="0.76" transform="translate(3.39 37.35) rotate(-35.55)"/><ellipse class="cls-10" cx="60.51" cy="14.83" rx="0.97" ry="0.44" transform="translate(2.66 37.94) rotate(-35.55)"/><path class="cls-11" d="M16.24,31.71c-5.12,0-11.21-1.46-13.68-2.83a3,3,0,0,1-1-.77C-.23,25.71.23,13.6.66,6.59l0-.35a.53.53,0,0,1,.56-.54h.14a9.82,9.82,0,0,1-.17-1.26A.53.53,0,0,1,1.34,4a.48.48,0,0,1,.35-.14A.91.91,0,0,1,2.06,4C1.06,1,1.34.67,1.46.51A.55.55,0,0,1,1.91.27c.39,0,.79.38,1.4.94.32.3.7.65,1.13,1,.19.15.62.44,1.24.84,3.81,2.52,13.94,9.2,18.49,17.65,1.57,2.92,2,5.32,1.3,7.13C24.22,31,19.76,31.71,16.24,31.71Z"/><path class="cls-12" d="M1.92.55c.45,0,1.21,1,2.35,1.87C5.63,3.49,18.65,11,23.93,20.82c1.63,3,1.92,5.29,1.28,6.9-1.07,2.77-4.79,3.72-9,3.72-5.24,0-11.2-1.5-13.55-2.8A3,3,0,0,1,1.78,28C-.36,25.07.94,6.78,1,6.25A.24.24,0,0,1,1.24,6a1.39,1.39,0,0,1,.5.14,13.62,13.62,0,0,1-.26-1.68c0-.2.08-.28.21-.28a2.07,2.07,0,0,1,.87.43C2.5,4.41,1.3,1.18,1.68.67A.31.31,0,0,1,1.92.55m0-.55h0a.81.81,0,0,0-.67.34c-.18.23-.47.61.4,3.28a.73.73,0,0,0-.51.22.79.79,0,0,0-.2.63,8.23,8.23,0,0,0,.11,1,.8.8,0,0,0-.64.79s0,.15,0,.34c-.44,7-.89,19.23,1,21.7a3.31,3.31,0,0,0,1.08.85C4.93,30.5,11.08,32,16.24,32s8.45-1.41,9.49-4.07c.73-1.89.29-4.36-1.32-7.36C19.83,12.05,9.66,5.34,5.83,2.81c-.58-.38-1-.68-1.22-.82-.42-.33-.79-.68-1.11-1C2.84.4,2.41,0,1.92,0Z"/><path class="cls-13" d="M18.69,23.26S7.4,7.1,5.66,7.1,3,25,5,26.75,18.06,28.78,18.69,23.26Z"/><path class="cls-5" d="M7.91,26.9c-3.55,0-6.44-1.75-6.47-2.44,0-.88,2.58-1.78,3.94-2.19-.86-.39-2.55-1.33-2.4-2.52C3,19.27,3.49,19,4.32,19a14.44,14.44,0,0,1,3.54.68c-3.51-4-3.45-4.18-3.42-4.29l0-.13.17,0c.17,0,.66.19,2.83,1.48C4,13.16,3.9,12.93,3.88,12.81l0-.08.07-.15a.41.41,0,0,1,.31-.11,10.46,10.46,0,0,1,3.19,1.19c.89.45,2.08,1.14,3.54,2.06-.61-1.12-1.53-3-1.17-3.62a.48.48,0,0,1,.45-.24,1.28,1.28,0,0,1,.46.1,4.69,4.69,0,0,1,1.7,1.71A59.15,59.15,0,0,1,16.76,22l0,.1-.07.09a11.07,11.07,0,0,1-7.68,4.61A11.17,11.17,0,0,1,7.91,26.9Z"/><path class="cls-6" d="M10.25,12a1.17,1.17,0,0,1,.39.09,4.65,4.65,0,0,1,1.62,1.65,57.33,57.33,0,0,1,4.33,8.34A10.94,10.94,0,0,1,9,26.66a10.65,10.65,0,0,1-1.12.06c-3.51,0-6.27-1.74-6.29-2.26,0-.94,4.31-2.16,4.31-2.16S3,21.2,3.16,19.78c0-.42.52-.57,1.16-.57a17.05,17.05,0,0,1,4.12.87,57.73,57.73,0,0,1-3.82-4.61s0,0,0,0a34.67,34.67,0,0,1,4,2.2c-.26-.26-4.49-4.51-4.57-4.88,0-.08.05-.12.18-.12a10.49,10.49,0,0,1,3.11,1.17c1.66.84,4,2.35,4.14,2.45C11.37,16.06,9,12,10.25,12m0-.36h0a.66.66,0,0,0-.61.33c-.32.57.18,1.89.85,3.19-1.47-.91-2.41-1.42-3-1.71a10.72,10.72,0,0,0-3.27-1.2.55.55,0,0,0-.45.18.43.43,0,0,0-.09.38c0,.15.08.36,2.7,3.05-1.44-.82-1.62-.82-1.75-.82H4.38l-.12.29c0,.21-.11.41,3.05,4a12.92,12.92,0,0,0-3-.51c-1.17,0-1.48.48-1.52.88-.14,1.13,1.14,2,2.08,2.5-1.66.53-3.65,1.35-3.62,2.24s3.13,2.61,6.65,2.61A11.12,11.12,0,0,0,9.07,27a11.24,11.24,0,0,0,7.81-4.68l.13-.17-.09-.2a56.26,56.26,0,0,0-4.36-8.4,4.94,4.94,0,0,0-1.78-1.78,1.43,1.43,0,0,0-.53-.11Z"/><path class="cls-14" d="M25.21,27.72a31.56,31.56,0,0,0-5-11.31C16,10.72,4.92,3.63,4.42,3.25S3,1.31,2.48,1.39s.74,3.71.8,3.9c-.1-.1-.8-.81-1-.36s.35,2.45.35,2.45-.73-.8-1-.32-2,18,1.1,21.58A3,3,0,0,1,1.78,28C-.36,25.07.94,6.78,1,6.25s.78-.13.78-.13a13.62,13.62,0,0,1-.26-1.68c0-.66,1,.07,1.08.15C2.5,4.41,1.3,1.18,1.68.67s1.22.67,2.59,1.75S18.65,11,23.93,20.82C25.56,23.86,25.85,26.11,25.21,27.72Z"/><path class="cls-15" d="M16.59,22.12A10.94,10.94,0,0,1,9,26.66c-.53-1,1.2-2.45,1.2-2.45s-2.25.15-2.48-1,4.22-2,4.22-2-2.65-2.06-2-2.62,3.32,1.5,3.32,1.5a32,32,0,0,1-1.49-4.14c-.41-1.34,0-1.9.47-2.13A57.33,57.33,0,0,1,16.59,22.12Z"/><ellipse class="cls-16" cx="16.36" cy="13.39" rx="0.76" ry="1.68" transform="translate(-4.05 18.91) rotate(-54.45)"/><ellipse class="cls-17" cx="15.8" cy="14.83" rx="0.44" ry="0.97" transform="translate(-5.45 19.06) rotate(-54.45)"/><path class="cls-18" d="M20.62,26.8a.67.67,0,0,1-.3-.06c-.5-.23-.77-.53-.8-.9a1.11,1.11,0,0,1,.24-.75h-.94a.28.28,0,0,1-.23-.13.25.25,0,0,1,0-.25c0-.06.58-1.26,3.1-1.61a5.46,5.46,0,0,0,2-.62,1.91,1.91,0,0,1-1-.55,1.47,1.47,0,0,1-.47-1.07,1.57,1.57,0,0,1,.48-1,.27.27,0,0,1,.19-.08h0a.25.25,0,0,1,.2.14,1.07,1.07,0,0,0,.95.4,4.73,4.73,0,0,0,2.27-.82,12,12,0,0,1,6-1.47c.49,0,.78,0,.78,0a.27.27,0,0,1,.24.19.28.28,0,0,1-.09.3c-1.08.84-10.63,8.27-12.71,8.27Z"/><path class="cls-12" d="M32.39,18.29c.48,0,.77,0,.77,0s-10.5,8.21-12.54,8.21a.5.5,0,0,1-.19,0c-1.44-.66,0-1.67,0-1.67H18.82s.49-1.12,2.89-1.45S24.64,22,24.64,22a1.28,1.28,0,0,1-.69.2,1.45,1.45,0,0,1-1-.48,1.14,1.14,0,0,1,0-1.71,1.3,1.3,0,0,0,1.19.54,4.79,4.79,0,0,0,2.41-.86,11.87,11.87,0,0,1,5.87-1.42m0-.55h0a12.31,12.31,0,0,0-6.15,1.5,4.3,4.3,0,0,1-2.13.78c-.53,0-.7-.24-.72-.27a.59.59,0,0,0-.4-.25h-.08a.53.53,0,0,0-.36.13A1.84,1.84,0,0,0,22,20.86a1.69,1.69,0,0,0,.55,1.26,2.28,2.28,0,0,0,.48.38,6.83,6.83,0,0,1-1.38.33c-2.62.36-3.25,1.62-3.31,1.76a.54.54,0,0,0,.5.77h.49a1.24,1.24,0,0,0-.07.51,1.43,1.43,0,0,0,1,1.12,1.08,1.08,0,0,0,.42.08c2.12,0,11.1-6.94,12.88-8.33a.55.55,0,0,0-.29-1s-.32,0-.82,0Z"/><path class="cls-19" d="M55.67,26.8C53.59,26.8,44,19.37,43,18.53a.29.29,0,0,1-.1-.3A.28.28,0,0,1,43.1,18s.3,0,.79,0a12.05,12.05,0,0,1,6,1.47,4.69,4.69,0,0,0,2.27.82,1.07,1.07,0,0,0,1-.4.25.25,0,0,1,.19-.14h0a.24.24,0,0,1,.18.07,1.52,1.52,0,0,1,.48,1,1.43,1.43,0,0,1-.47,1.07,1.84,1.84,0,0,1-1,.55,5.59,5.59,0,0,0,2,.62c2.51.35,3.07,1.55,3.1,1.6a.29.29,0,0,1,0,.26.26.26,0,0,1-.23.13h-.94a1.07,1.07,0,0,1,.25.75,1.17,1.17,0,0,1-.8.9A.7.7,0,0,1,55.67,26.8Z"/><path class="cls-20" d="M43.89,18.29a11.85,11.85,0,0,1,5.87,1.42,4.85,4.85,0,0,0,2.42.86A1.3,1.3,0,0,0,53.37,20a1.15,1.15,0,0,1,0,1.71,1.47,1.47,0,0,1-1,.48,1.27,1.27,0,0,1-.68-.2s.54,1,2.93,1.35,2.88,1.45,2.88,1.45h-1.6s1.44,1,0,1.67a.54.54,0,0,1-.19,0c-2.05,0-12.54-8.21-12.54-8.21s.29,0,.76,0m0-.55c-.49,0-.8,0-.81,0a.57.57,0,0,0-.48.39.55.55,0,0,0,.19.59c1.78,1.39,10.75,8.33,12.88,8.33a1.16,1.16,0,0,0,.42-.08A1.41,1.41,0,0,0,57,25.87a1.24,1.24,0,0,0-.06-.51h.48a.55.55,0,0,0,.46-.24.56.56,0,0,0,0-.53c-.07-.14-.69-1.4-3.32-1.76a6.55,6.55,0,0,1-1.37-.33,2.28,2.28,0,0,0,.48-.38,1.69,1.69,0,0,0,.55-1.26,1.89,1.89,0,0,0-.57-1.24.57.57,0,0,0-.37-.14h-.09a.56.56,0,0,0-.4.28s-.18.25-.7.25a4.24,4.24,0,0,1-2.13-.78,12.35,12.35,0,0,0-6.16-1.5Z"/><path class="cls-21" d="M67.9,38.05c-.88,0-11-3.57-21.84-7.43-1.43-.51-2.63-.94-3.17-1.12,0,.1,0,.23,0,.39-.08,2-.27,6.72-2.43,6.72h-.14c-.23,0-.58,0-1,0-3.1,0-9.17-.72-9.22-.72s-.35-.16-.5-.8h-.38a17.48,17.48,0,0,0-7.32,2.09.27.27,0,0,1,.16.26.28.28,0,0,1-.29.25h0c-.11,0-.44,0-.54-.29a.38.38,0,0,1,.08-.4,3.59,3.59,0,0,1,.28-.71,2.35,2.35,0,0,0,.25-.69h-.37c-.25,0-.49,0-.74,0s-.47,0-.6-.31.09-.54.26-.76l0-.05c-.47,0-.87-.08-1.24-.13l-.3,0-.31,0L18,34.2l-.21,0a.43.43,0,0,1-.33-.22c-.29-.53.28-2.12,1.61-5.25.24-.59.5-1.19.59-1.47a.21.21,0,0,1-.07-.13.27.27,0,0,1,0-.26s.7-.67,1.82-1.62l.14-.12.26-.22.59-.49.25-.19c.63-.51,1.38-1.08,2.23-1.69l.48-.33.34-.23.21-.14.74-.49.55-.33.07-.06.52-.3.61-.35.24-.13.38-.21.14-.07c.24-.13.47-.25.72-.36.42-.21.86-.4,1.29-.57l.24-.1a4.28,4.28,0,0,1,.46-.17l.67-.23c.21-.07.42-.13.64-.18h0l.14,0a3.68,3.68,0,0,1,.48-.12l.22-.05.54-.1.2,0,.38,0c.26,0,.53,0,.8,0A7.46,7.46,0,0,1,37.5,18c.27.07.52.14.75.22A7.81,7.81,0,0,1,39,18a6.84,6.84,0,0,1,1.53-.16c4,0,8.62,2.85,11.84,5.23a53.67,53.67,0,0,1,4.51,3.75,48.57,48.57,0,0,0,6.5,4.21c4.69,2.73,7.51,4.48,7.22,5.8-.14.65-1,1-2.61,1.18Z"/><path class="cls-20" d="M40.55,18.14c3.84,0,8.39,2.73,11.68,5.17A49.16,49.16,0,0,1,56.71,27C61.18,31,76.15,37,68,37.76c0,0,0,0-.06,0-1.26,0-25.11-8.65-25.24-8.65h0c-.14,0,.15,7.21-2.21,7.21h-.11a9.86,9.86,0,0,1-1,0c-3.07,0-9.06-.71-9.19-.73s-.21-.3-.31-.77a5.74,5.74,0,0,0-.6,0c-2.81,0-7,1.61-7.67,2.3.07-.56,1-1.7.31-1.75l-1.12-.06c-1.11-.07.57-1-.13-1.1l-1.42-.15-.36,0-.79-.11-.23,0c-.91-.14,2.35-6.75,2.15-6.81l-.07,0-.08,0s.68-.66,1.81-1.61l.39-.34c.19-.15.39-.31.59-.49l.25-.19c.66-.53,1.42-1.1,2.22-1.68l.48-.32a3.88,3.88,0,0,1,.33-.23l.2-.13.75-.5c.17-.11.35-.22.54-.32l.1-.07.55-.33c.25-.16.52-.29.78-.44l.52-.28c.23-.12.46-.24.7-.35.43-.21.86-.39,1.28-.57l.25-.1.43-.16c.22-.08.45-.16.67-.22l.62-.18a.11.11,0,0,1,.08,0,5.54,5.54,0,0,1,.55-.14l.19,0,.54-.1.55-.06.78,0a8,8,0,0,1,1.48.14,7,7,0,0,1,.77.23h0c.26-.08.53-.16.82-.23a7.05,7.05,0,0,1,1.47-.14m-19,19c0,.17,0,.28.22.3-.33,0-.38-.14-.22-.3m19-19.55h0a7.3,7.3,0,0,0-1.58.16l-.72.19c-.21-.07-.44-.13-.67-.19a8.33,8.33,0,0,0-2.44-.12,2.6,2.6,0,0,0-.37,0l-.19,0-.29,0-.28.05-.15,0H33.8c-.18,0-.36.08-.55.14l-.16,0q-.3.07-.6.18a6,6,0,0,0-.68.23,4,4,0,0,0-.45.16l-.24.09c-.41.18-.87.37-1.33.6-.25.11-.5.24-.73.36l-.12.07-.4.22-.21.11-.59.33-.55.33-.11.08-.53.31-.76.51a.91.91,0,0,0-.16.11l-.4.26-.46.32q-1.29.93-2.25,1.71l-.24.17c-.14.13-.26.22-.37.31l-.24.2-.27.23-.12.11c-1.14.95-1.82,1.61-1.84,1.64a.54.54,0,0,0-.15.47.64.64,0,0,0,.06.18c-.12.31-.34.82-.54,1.29-1.57,3.73-1.91,4.91-1.58,5.5a.68.68,0,0,0,.51.35l.12,0,.12,0,.53.07.26,0h.07l.27,0,.81.09a.81.81,0,0,0-.05.7.88.88,0,0,0,.84.46l.75.05c-.05.1-.09.2-.13.27a4.33,4.33,0,0,0-.28.71.67.67,0,0,0-.08.62.78.78,0,0,0,.77.46h0a.55.55,0,0,0,.54-.51.46.46,0,0,0,0-.2,18,18,0,0,1,6.93-1.88h.16c.13.44.31.73.65.79.09,0,6.14.74,9.29.74a9.62,9.62,0,0,0,1,0h.11c2.42,0,2.61-4.72,2.7-7v0l2.81,1c15.23,5.43,21.17,7.45,21.94,7.45a.6.6,0,0,0,.2,0c1.21-.12,2.57-.4,2.79-1.39.34-1.53-2.43-3.23-7.35-6.1a48.19,48.19,0,0,1-6.47-4.18,49.72,49.72,0,0,0-4.51-3.76c-3.26-2.41-8-5.28-12-5.28Z"/><path class="cls-22" d="M35.29,18.16c-2.11.78-6.76,2.64-9.28,4.76-2.1,1.78-7,10-7.5,11.07-2-.25,1.31-7,1.31-7S28.45,18.71,35.29,18.16Z"/><path class="cls-23" d="M36.71,18.75c-.34.28-13.23,13.08-14.84,16.64-.38,0-.76,0-1.12-.06C21.63,33.67,29.66,23.58,32,21.8,35.41,19.22,36.58,18.79,36.71,18.75Z"/><path class="cls-24" d="M41.21,18.16c2.11.78,6.76,2.64,9.28,4.76a15.9,15.9,0,0,1,3.78,4.56A11.23,11.23,0,0,0,56.68,27S48.05,18.71,41.21,18.16Z"/><path class="cls-25" d="M39.79,18.75c.34.28,6.84,5.68,8.44,9.24l1.12-.07A19.14,19.14,0,0,0,44.5,21.8C41.09,19.22,39.92,18.79,39.79,18.75Z"/><path class="cls-26" d="M68,37.76c-.09.46-25.2-8.64-25.3-8.63s.16,7.43-2.32,7.2c-2.48.23-10.05-.67-10.2-.69s-.21-.3-.31-.77c-3.4-.33-9.84,2.45-8,2.57-.83-.06.94-2,.09-2l-1.12-.06c-1.11-.07.57-1-.13-1.1l-1.42-.15-.36,0-.79-.11-.23,0c-.91-.14,2.35-6.75,2.15-6.81l-.07,0-.08,0s.68-.66,1.81-1.61l.39-.34c.19-.15.39-.31.59-.49l.25-.19c.66-.53,1.42-1.1,2.22-1.68l.48-.32a3.88,3.88,0,0,1,.33-.23l.2-.13c3,1.56,8.27,3.22,17,2.89a31,31,0,0,0,9.11-1.63A49.16,49.16,0,0,1,56.71,27C61.19,31,76.15,37,68,37.76Z"/><path class="cls-27" d="M28.16,24.72a1.59,1.59,0,0,1-.4,0c-.59-.13-2.47-.94-1.81-5.65a10.26,10.26,0,0,1,3.44-6.22.15.15,0,0,1,.11,0l.08,0a.17.17,0,0,1,.09.17s-.38,4.83.54,6.24A4.74,4.74,0,0,0,32.05,21a.18.18,0,0,1,.11.16c-.06,2.54-2.64,3.59-4,3.59Z"/><path d="M29.5,13h0m0,0s-.4,4.87.56,6.34A4.65,4.65,0,0,0,32,21.13c-.06,2.42-2.57,3.42-3.82,3.42a1.79,1.79,0,0,1-.36,0c-1-.24-2.21-1.59-1.67-5.45A10.18,10.18,0,0,1,29.5,13m0-.36h0a.33.33,0,0,0-.22.08A10.42,10.42,0,0,0,25.78,19c-.68,4.85,1.31,5.7,1.94,5.84a2,2,0,0,0,.44,0c1.42,0,4.11-1.1,4.17-3.76a.34.34,0,0,0-.22-.34,4.41,4.41,0,0,1-1.75-1.7c-.73-1.11-.62-4.73-.51-6.09V13a.35.35,0,0,0-.35-.36Zm0,.71Z"/><path class="cls-28" d="M47,24.72c-1.36,0-3.94-1-4-3.59a.16.16,0,0,1,.11-.16A4.74,4.74,0,0,0,44.9,19.2c.92-1.41.54-6.19.54-6.24a.17.17,0,0,1,.09-.17l.08,0a.15.15,0,0,1,.11,0A10.26,10.26,0,0,1,49.16,19c.65,4.71-1.22,5.52-1.81,5.65A1.59,1.59,0,0,1,47,24.72Z"/><path d="M45.61,13A10.18,10.18,0,0,1,49,19.06c.54,3.86-.64,5.21-1.67,5.45a1.79,1.79,0,0,1-.36,0c-1.25,0-3.76-1-3.82-3.42A4.6,4.6,0,0,0,45,19.29c1-1.47.57-6.34.57-6.34m0-.36a.42.42,0,0,0-.16,0,.35.35,0,0,0-.19.34c.11,1.33.23,5-.51,6.13A4.41,4.41,0,0,1,43,20.8a.37.37,0,0,0-.23.34c.07,2.66,2.76,3.76,4.18,3.76a2,2,0,0,0,.44,0c.63-.14,2.62-1,1.94-5.84a10.45,10.45,0,0,0-3.5-6.34.35.35,0,0,0-.22-.08Z"/></g></g></g></svg>