<svg xmlns="http://www.w3.org/2000/svg" xmlns:xlink="http://www.w3.org/1999/xlink" viewBox="0 0 17.23 13.66"><defs><style>.cls-1{fill:url(#linear-gradient);}.cls-2{fill:#fca4a4;}</style><linearGradient id="linear-gradient" x1="-223.76" y1="-251.13" x2="-227.68" y2="-257.61" gradientTransform="translate(101.9 335.55) rotate(25.74)" gradientUnits="userSpaceOnUse"><stop offset="0" stop-color="#b80004"/><stop offset="1" stop-color="#520002"/></linearGradient></defs><g id="Layer_2" data-name="Layer 2"><g id="Layer_1-2" data-name="Layer 1"><path class="cls-1" d="M8.92,13.34a1.35,1.35,0,0,1-.56-.13C4.65,11.35.73,7.83.35,4.69A3.47,3.47,0,0,1,1.57,1.51,3.48,3.48,0,0,1,3.86.64a4.38,4.38,0,0,1,.5,0,7.13,7.13,0,0,1,3.9,2.41A6.74,6.74,0,0,1,13.35.32a4.55,4.55,0,0,1,.92.1c1.44.33,2.89,1.6,2.6,4.17-.55,5-7.08,8.46-7.35,8.6A1.27,1.27,0,0,1,8.92,13.34ZM4.53,3.88a.76.76,0,0,0-.5.21.72.72,0,0,0-.27.75c.18,1.5,2.5,3.9,5.21,5.41,1.22-.74,4.44-2.91,4.72-5.48.12-1-.31-1.1-.49-1.14a1.39,1.39,0,0,0-.3,0A3.73,3.73,0,0,0,9.72,6.16a1.19,1.19,0,0,1-1,.78H8.6a1.17,1.17,0,0,1-1-.52A8.18,8.18,0,0,0,5.15,4.05a1.91,1.91,0,0,0-.5-.16Z"/><path class="cls-2" d="M13.35.65a3.89,3.89,0,0,1,.85.09c1.3.3,2.61,1.45,2.35,3.81C16,9.42,9.64,12.76,9.37,12.9a.91.91,0,0,1-.45.11,1,1,0,0,1-.42-.09h0C4.88,11.1,1,7.68.67,4.65a3.17,3.17,0,0,1,1.11-2.9A3.2,3.2,0,0,1,3.86,1a3.4,3.4,0,0,1,.45,0,7.26,7.26,0,0,1,4,2.6A6.44,6.44,0,0,1,13.35.65m-4.75,6a.86.86,0,0,1-.71-.38,8.55,8.55,0,0,0-2.6-2.49,2.32,2.32,0,0,0-.6-.19H4.53a1,1,0,0,0-.71.28,1.08,1.08,0,0,0-.39,1C3.63,6.54,6.08,9.06,9,10.62c1.18-.69,4.72-3,5-5.81.14-1.29-.53-1.44-.75-1.49a1.5,1.5,0,0,0-.37,0A4.06,4.06,0,0,0,9.42,6.05a.86.86,0,0,1-.71.57H8.6M13.36,0h0A6.88,6.88,0,0,0,8.24,2.6,7.14,7.14,0,0,0,4.4.36a3.27,3.27,0,0,0-.54,0,3.85,3.85,0,0,0-2.5.94A3.83,3.83,0,0,0,0,4.73c.41,3.41,4.52,6.93,8.16,8.76a1.65,1.65,0,0,0,1.48,0c.28-.15,7-3.65,7.53-8.86C17.5,1.84,15.85.45,14.34.11a4.46,4.46,0,0,0-1-.11ZM8.6,7.27h.2a1.48,1.48,0,0,0,1.23-1A3.45,3.45,0,0,1,12.9,3.92a.85.85,0,0,1,.23,0c.11,0,.32.07.24.79C13.12,7.06,10.25,9.08,9,9.87,6.12,8.25,4.22,6,4.08,4.81c0-.26,0-.36.16-.47a.39.39,0,0,1,.29-.13h.08a1.37,1.37,0,0,1,.4.14A7.81,7.81,0,0,1,7.35,6.61a1.49,1.49,0,0,0,1.25.66Z"/></g></g></svg>