<svg xmlns="http://www.w3.org/2000/svg" xmlns:xlink="http://www.w3.org/1999/xlink" viewBox="0 0 47.17 40.05"><defs><style>.cls-1{fill:none;}.cls-2{isolation:isolate;}.cls-3{clip-path:url(#clip-path);}.cls-4{fill:url(#linear-gradient);}.cls-5{stroke-linecap:round;stroke-linejoin:round;stroke-width:0.23px;opacity:0.21;stroke:url(#linear-gradient-2);}.cls-6,.cls-8,.cls-9{mix-blend-mode:overlay;}.cls-7{fill:#fff;}.cls-8{fill:url(#linear-gradient-3);}.cls-9{fill:url(#linear-gradient-4);}.cls-10{fill:url(#linear-gradient-5);}.cls-11{fill:url(#linear-gradient-6);}.cls-12{opacity:0.54;}</style><clipPath id="clip-path" transform="translate(-3.71 -2.49)"><path class="cls-1" d="M50.74,16H24.44V0L.09,15.52S-.11,39.62.09,40s22.31,6.79,23.4,6.34,13.63-7.09,16.17-10.08S47.6,25.37,47.6,25.37l5-6.73"/></clipPath><linearGradient id="linear-gradient" x1="-708.91" y1="29.83" x2="-696.58" y2="5.35" gradientTransform="matrix(-1, 0, 0, 1, -679.45, 0)" gradientUnits="userSpaceOnUse"><stop offset="0" stop-color="#582570"/><stop offset="1"/></linearGradient><linearGradient id="linear-gradient-2" x1="-700.19" y1="2.83" x2="-700.19" y2="35.38" gradientTransform="matrix(-1, 0, 0, 1, -679.45, 0)" gradientUnits="userSpaceOnUse"><stop offset="0" stop-color="#361616"/><stop offset="0.95" stop-color="#0f0606"/></linearGradient><linearGradient id="linear-gradient-3" x1="-697.42" y1="33.72" x2="-717.38" y2="14.58" gradientTransform="matrix(-1, 0, 0, 1, -679.45, 0)" gradientUnits="userSpaceOnUse"><stop offset="0" stop-color="#fff"/><stop offset="0.81" stop-color="#fff" stop-opacity="0"/></linearGradient><linearGradient id="linear-gradient-4" x1="-696.6" y1="34.19" x2="-713.31" y2="18.16" xlink:href="#linear-gradient-3"/><linearGradient id="linear-gradient-5" x1="-933.5" y1="17.95" x2="-927.99" y2="1" gradientTransform="matrix(-1, 0, 0, 1, -895.39, 0)" xlink:href="#linear-gradient"/><linearGradient id="linear-gradient-6" x1="-928.68" y1="27.81" x2="-933.42" y2="5.56" gradientTransform="matrix(-1, 0, 0, 1, -895.39, 0)" gradientUnits="userSpaceOnUse"><stop offset="0" stop-color="#582570"/><stop offset="0.33" stop-color="#56246e"/><stop offset="0.5" stop-color="#502266"/><stop offset="0.64" stop-color="#451d58"/><stop offset="0.76" stop-color="#361745"/><stop offset="0.87" stop-color="#230f2c"/><stop offset="0.96" stop-color="#0b050e"/><stop offset="1"/></linearGradient></defs><g class="cls-2"><g id="Layer_2" data-name="Layer 2"><g id="Layer_1-2" data-name="Layer 1"><g class="cls-3"><path class="cls-4" d="M23.4,42.31a.23.23,0,0,1-.17-.22c0-.06-.06-5.84-4.65-8.09a9.74,9.74,0,0,0-4.33-.88,27.85,27.85,0,0,0-10,2.34.18.18,0,0,1-.1,0A.26.26,0,0,1,4,35.4a.24.24,0,0,1,0-.28c.06-.06,5.33-6.84,5.41-11.81A9.4,9.4,0,0,0,6.53,16a.21.21,0,0,1-.08-.24.23.23,0,0,1,.21-.16c.06,0,6.07-.48,14.08-10.07A7.8,7.8,0,0,1,27,2.72c2.87,0,6.36,1.12,10.39,3.33a75,75,0,0,1,13.17,9.62.26.26,0,0,1,.07.19.23.23,0,0,1-.11.17c-.18.12-18.49,11.83-26.88,26.17a.24.24,0,0,1-.2.12Z" transform="translate(-3.71 -2.49)"/><path d="M27,3c3.2,0,6.84,1.41,10.28,3.3a74.48,74.48,0,0,1,13.12,9.59S32,27.53,23.46,42.09c0,0,0-6-4.78-8.3a10,10,0,0,0-4.43-.9A28.42,28.42,0,0,0,4.16,35.27c.28-.35,5.38-7,5.46-12A9.52,9.52,0,0,0,6.67,15.8s6.06-.34,14.25-10.14A7.55,7.55,0,0,1,27,3m0-.46a8,8,0,0,0-6.45,2.87c-8,9.54-13.87,10-13.92,10a.47.47,0,0,0-.42.32.46.46,0,0,0,.16.49,9.18,9.18,0,0,1,2.77,7.15C9.08,28.2,3.86,34.92,3.81,35a.45.45,0,0,0,.35.74.58.58,0,0,0,.19,0,27.58,27.58,0,0,1,9.9-2.34,9.6,9.6,0,0,1,4.23.85C22.94,36.39,23,42,23,42.09a.47.47,0,0,0,.34.44h.12a.47.47,0,0,0,.4-.22c8.36-14.29,26.62-26,26.81-26.09a.5.5,0,0,0,.21-.35.43.43,0,0,0-.15-.37A75.08,75.08,0,0,0,37.52,5.85C33.46,3.62,29.93,2.49,27,2.49Z" transform="translate(-3.71 -2.49)"/><path class="cls-5" d="M4.16,35.27A348.28,348.28,0,0,1,33.75,9.84,14,14,0,0,0,37.3,6.25C31.3,3,24.71,1.12,20.92,5.66,12.73,15.46,6.67,15.8,6.67,15.8a9.52,9.52,0,0,1,2.95,7.51C9.54,28.29,4.44,34.92,4.16,35.27Z" transform="translate(-3.71 -2.49)"/><g class="cls-6"><path class="cls-7" d="M27,3.52c2.73,0,6.1,1.08,10,3.23a73.12,73.12,0,0,1,12.47,9C46.32,17.88,31.72,28,23.85,40.36a9.46,9.46,0,0,0-4.91-7.07,10.52,10.52,0,0,0-4.69-1A26.43,26.43,0,0,0,5.76,34c1.61-2.37,4.36-6.94,4.43-10.71a10.58,10.58,0,0,0-2.37-7.15C10,15.61,15.06,13.56,21.35,6A7,7,0,0,1,27,3.52M27,3a7.55,7.55,0,0,0-6.1,2.71C12.73,15.46,6.67,15.8,6.67,15.8a9.52,9.52,0,0,1,2.95,7.51c-.08,5-5.18,11.61-5.46,12a28.42,28.42,0,0,1,10.09-2.38,10,10,0,0,1,4.43.9c4.78,2.34,4.78,8.3,4.78,8.3,8.52-14.56,27-26.25,27-26.25A74.48,74.48,0,0,0,37.3,6.25C33.86,4.36,30.22,3,27,3Z" transform="translate(-3.71 -2.49)"/></g><path class="cls-8" d="M8.48,31.94a17.78,17.78,0,0,1,9.91-.46,8.91,8.91,0,0,1,5.93,6.39c3.56-7.39,12.52-14.56,18.42-18.71l.16-.1c3.16-2.22,5.41-3.54,5.41-3.54L36.44,9.23,27.3,16.66h-.05Z" transform="translate(-3.71 -2.49)"/><path class="cls-9" d="M8.48,31.94a17.78,17.78,0,0,1,9.91-.46,8.91,8.91,0,0,1,5.93,6.39c3.56-7.39,12.52-14.56,18.42-18.71-1.53,1-14.38,9.86-18.49,16.11A6.57,6.57,0,0,0,19.34,31a20.33,20.33,0,0,0-8.14-.27L27.27,16.67h0Z" transform="translate(-3.71 -2.49)"/></g><path class="cls-10" d="M24.44,16.07a.23.23,0,0,1-.23-.23V3.31a.23.23,0,0,1,.22-.23h0a1.28,1.28,0,0,1,.95.41C27.05,5.21,27,12.2,27,13.62c1.49,0,9.64-.1,15.35-.1s5.81.08,5.92.11a11.74,11.74,0,0,1,2.36,2,.23.23,0,0,1,0,.25.23.23,0,0,1-.21.14Z" transform="translate(-3.71 -2.49)"/><path d="M24.48,3.31c2.58,0,2.24,10.54,2.24,10.54s9.24-.1,15.59-.1c3.18,0,5.63,0,5.84.1a11.92,11.92,0,0,1,2.27,2h-26V3.31h0m0-.46h-.06a.46.46,0,0,0-.44.46V15.84a.47.47,0,0,0,.46.46h26a.46.46,0,0,0,.42-.28.46.46,0,0,0-.08-.49,11,11,0,0,0-2.46-2.11c-.14-.05-.35-.13-6-.13-5.46,0-13.15.07-15.12.1,0-1.94,0-8.35-1.64-10a1.43,1.43,0,0,0-1.07-.49Z" transform="translate(-3.71 -2.49)"/><path class="cls-11" d="M23.94,3.31v13h25.8l.68-.46a11.92,11.92,0,0,0-2.27-2c-.52-.19-14.38-.07-19.53,0l-1.9,0S27,4.47,24.89,3.4A1.1,1.1,0,0,0,23.94,3.31Z" transform="translate(-3.71 -2.49)"/><path class="cls-12" d="M23.94,3.31v13h1.59l3.09-2.47-1.9,0S27,4.47,24.89,3.4A1.1,1.1,0,0,0,23.94,3.31Z" transform="translate(-3.71 -2.49)"/><g class="cls-6"><path class="cls-7" d="M24.37,3.24a1.38,1.38,0,0,0-.43.07v.36a.71.71,0,0,1,.2,0c2.38,0,2.14,10.7,2.14,10.7s9.64,0,16.11,0c3.23,0,5.67,0,5.71,0s1.43,1.37,1.43,1.37l-.84.58h1.05l.68-.46a11.92,11.92,0,0,0-2.27-2c-.22-.08-2.7-.1-5.9-.1-4.57,0-10.6.05-13.63.08l-1.9,0S27,4.47,24.89,3.4a.86.86,0,0,0-.52-.16Z" transform="translate(-3.71 -2.49)"/></g></g></g></g></svg>