<svg xmlns="http://www.w3.org/2000/svg" xmlns:xlink="http://www.w3.org/1999/xlink" viewBox="0 0 11.23 53.54"><defs><style>.cls-1{isolation:isolate;}.cls-2{fill:url(#linear-gradient);}.cls-3{fill:#4a1516;}.cls-4{mix-blend-mode:overlay;fill:url(#radial-gradient);}.cls-5{fill:#140806;}</style><linearGradient id="linear-gradient" x1="-638.85" y1="8.31" x2="-639.54" y2="39" gradientTransform="matrix(-1, 0, 0, 1, -633.65, 0)" gradientUnits="userSpaceOnUse"><stop offset="0" stop-color="#ba3637"/><stop offset="1" stop-color="#210000"/></linearGradient><radialGradient id="radial-gradient" cx="-976.43" cy="-21.07" r="22.64" gradientTransform="translate(971.22 38.17) scale(1 0.81)" gradientUnits="userSpaceOnUse"><stop offset="0.09" stop-color="#fff"/><stop offset="0.46" stop-color="#fff"/><stop offset="0.92" stop-color="#fff" stop-opacity="0"/></radialGradient></defs><g class="cls-1"><g id="Layer_2" data-name="Layer 2"><g id="Layer_1-2" data-name="Layer 1"><path class="cls-2" d="M2.29,53a1.61,1.61,0,0,1-1.7-1.49V2.08A1.61,1.61,0,0,1,2.29.59H8.94a1.6,1.6,0,0,1,1.69,1.49V51.46A1.6,1.6,0,0,1,8.94,53Z"/><path class="cls-3" d="M8.94,1.19a1,1,0,0,1,1.1.89V51.46a1,1,0,0,1-1.1.89H2.29a1,1,0,0,1-1.1-.89V2.08a1,1,0,0,1,1.1-.89H8.94M8.94,0H2.29A2.19,2.19,0,0,0,0,2.08V51.46a2.19,2.19,0,0,0,2.29,2.08H8.94a2.19,2.19,0,0,0,2.29-2.08V2.08A2.19,2.19,0,0,0,8.94,0Z"/><rect class="cls-4" x="2.54" y="1.19" width="6.02" height="42.35"/><path class="cls-5" d="M1.09,5.54A10,10,0,0,0,2.84,7.81,14.35,14.35,0,0,0,5.09,9.67a14.09,14.09,0,0,0,2.57,1.38,11.33,11.33,0,0,0,2.82.71.43.43,0,0,1,.37.47.43.43,0,0,1-.47.37.2.2,0,0,1-.11,0h0c-.92-.39-1.83-.77-2.71-1.22s-1.73-.95-2.58-1.45A19.5,19.5,0,0,1,2.56,8.13,19.34,19.34,0,0,1,.42,6h0a.43.43,0,0,1,0-.59.41.41,0,0,1,.59,0Z"/><path class="cls-5" d="M1.09,16.93A10.21,10.21,0,0,0,2.84,19.2a14.29,14.29,0,0,0,2.25,1.85,13.51,13.51,0,0,0,2.57,1.38,11.35,11.35,0,0,0,2.82.72.42.42,0,0,1,.37.46.43.43,0,0,1-.47.38l-.11,0,0,0c-.92-.39-1.83-.76-2.71-1.22a26.17,26.17,0,0,1-2.58-1.45,19.42,19.42,0,0,1-2.38-1.75A21.28,21.28,0,0,1,.42,17.41l0,0a.43.43,0,0,1,0-.59.42.42,0,0,1,.59.05A.22.22,0,0,1,1.09,16.93Z"/><path class="cls-5" d="M1.09,29.32a10,10,0,0,0,1.75,2.27,13.82,13.82,0,0,0,2.25,1.86,14.09,14.09,0,0,0,2.57,1.38,11.33,11.33,0,0,0,2.82.71.43.43,0,0,1,.37.47.43.43,0,0,1-.47.37.2.2,0,0,1-.11,0h0c-.92-.39-1.83-.76-2.71-1.22a28.38,28.38,0,0,1-2.58-1.45,19.5,19.5,0,0,1-2.38-1.76A19.34,19.34,0,0,1,.42,29.8h0a.43.43,0,0,1,0-.59.41.41,0,0,1,.59.05Z"/><path class="cls-5" d="M1.09,41.72A10,10,0,0,0,2.84,44a13.76,13.76,0,0,0,2.25,1.85,13,13,0,0,0,2.57,1.38,10.93,10.93,0,0,0,2.82.72.43.43,0,0,1,.37.47.43.43,0,0,1-.47.37.2.2,0,0,1-.11,0h0c-.92-.39-1.83-.77-2.71-1.22s-1.73-1-2.58-1.45a19.5,19.5,0,0,1-2.38-1.76A19.34,19.34,0,0,1,.42,42.2h0a.43.43,0,0,1,0-.59.41.41,0,0,1,.59,0Z"/></g></g></g></svg>